<?xml version="1.0" encoding="UTF-8"?>
<svg version="1.1" xmlns="http://www.w3.org/2000/svg" width="512" height="512">
<path d="M0 0 C8.220942 5.94474598 12.81524232 12.44572695 16 22 C16.90397549 34.09252454 15.8411749 43.80149069 7.875 53.375 C2.20206809 59.27297384 -4.98811422 63.62317476 -13.30950928 64.14476013 C-14.58281097 64.15902794 -14.58281097 64.15902794 -15.88183594 64.17358398 C-16.8509491 64.18707382 -17.82006226 64.20056366 -18.81854248 64.21446228 C-20.38562958 64.23011986 -20.38562958 64.23011986 -21.984375 64.24609375 C-24.22265952 64.27907549 -26.46094068 64.31228629 -28.69921875 64.34570312 C-32.20716668 64.39275204 -35.71510553 64.43710509 -39.22314453 64.47680664 C-63.83510636 64.70089887 -63.83510636 64.70089887 -87.875 69.5625 C-88.64457031 69.78357422 -89.41414063 70.00464844 -90.20703125 70.23242188 C-94.19247327 71.3799623 -94.19247327 71.3799623 -98 73 C-95.77786169 76.32543776 -93.6828588 78.3762163 -90 80 C-84.71866573 79.88140523 -79.5521207 78.17018862 -74.54711914 76.59179688 C-66.79076935 74.78968896 -58.84547062 74.81615108 -50.921875 74.76171875 C-49.22747284 74.74961113 -49.22747284 74.74961113 -47.49884033 74.73725891 C-45.12554423 74.72350219 -42.75222904 74.71274291 -40.37890625 74.70483398 C-37.95241498 74.69324351 -35.52595056 74.67268239 -33.09960938 74.64331055 C-29.58185624 74.60078773 -26.06485264 74.58449392 -22.546875 74.57421875 C-20.92178009 74.54795662 -20.92178009 74.54795662 -19.26385498 74.52116394 C-11.80597879 74.54273116 -11.80597879 74.54273116 -7.81347656 76.80786133 C-6 79 -6 79 -5.4375 82.5 C-6 86 -6 86 -7.33496094 88.18725586 C-11.64619662 91.11973341 -16.11055511 90.54297445 -21.203125 90.50390625 C-22.31371277 90.51332748 -23.42430054 90.52274872 -24.56854248 90.53245544 C-28.12921405 90.56114741 -31.68922224 90.56418552 -35.25 90.5625 C-56.80470548 90.51305535 -56.80470548 90.51305535 -78 94 C-77.42475586 94.77657959 -77.42475586 94.77657959 -76.83789062 95.56884766 C-73 100.75 -73 100.75 -73 103 C-72.43285971 102.85899557 -71.86571941 102.71799114 -71.28139305 102.57271385 C-64.03123115 100.93017315 -57.0761265 100.70390813 -49.66259766 100.70947266 C-47.71422249 100.69939682 -47.71422249 100.69939682 -45.72648621 100.68911743 C-42.1912422 100.67158497 -38.65609523 100.66676758 -35.12081194 100.66548586 C-32.90517089 100.66405676 -30.68955394 100.659773 -28.47391891 100.65449142 C-20.72478438 100.63603545 -12.97571828 100.62781549 -5.2265625 100.62939453 C1.96602018 100.63059569 9.15830269 100.60948713 16.35080945 100.5779072 C22.55328463 100.55165671 28.75566225 100.54103085 34.95819247 100.54230535 C38.65071689 100.54281228 42.34297391 100.53727903 46.03544235 100.51594925 C50.15843626 100.4927781 54.28076695 100.50214107 58.40380859 100.51416016 C59.60730453 100.50292114 60.81080048 100.49168213 62.05076599 100.48010254 C75.4170286 100.57863829 85.18182588 104.42669039 94.74609375 113.69140625 C102.83334555 122.38368936 104.4868349 132.42672325 104.27734375 143.87890625 C103.76624096 154.96805693 98.063607 163.3592992 90.1875 170.75 C80.92820721 178.53420392 70.66852441 179.71738813 58.99169922 179.17919922 C48.01146618 178.19127435 39.38744353 171.31020668 32.5390625 163.1484375 C26.98892714 155.40078662 24.88617995 146.43564699 26 137 C27.5625 134.375 27.5625 134.375 30 133 C35.91448119 132.27366021 35.91448119 132.27366021 38.59375 134.06640625 C41.00629061 137.38364958 41.51381041 141.4294478 42.37304688 145.375 C43.43817685 149.84943723 45.00048274 152.55587789 48 156 C48 156.66 48 157.32 48 158 C49.32258472 158.68774405 50.65986503 159.34711373 52 160 C52.99 160.53625 53.98 161.0725 55 161.625 C60.73056843 164.0281416 67.40086452 164.00944033 73.33984375 162.34375 C79.75236506 159.48827026 83.53264499 154.64123901 86.875 148.625 C89.15055064 141.29267018 88.41954653 135.30699988 85.328125 128.296875 C81.96239037 122.47613393 76.42493291 118.81052626 70 117 C65.60300534 116.57227235 61.22733297 116.6209372 56.81274414 116.65942383 C55.49498993 116.65898575 54.17723572 116.65854767 52.81954956 116.65809631 C49.22284709 116.65723878 45.62644735 116.67482485 42.02981496 116.69581819 C38.26488246 116.71462569 34.49994232 116.71633863 30.73497009 116.71989441 C23.61298557 116.72920295 16.49113989 116.7538005 9.36921638 116.78394288 C1.25798254 116.81752408 -6.85325808 116.83398223 -14.96454418 116.84902918 C-31.64311061 116.8803512 -48.32153756 116.93308838 -65 117 C-64.6390625 117.98742187 -64.278125 118.97484375 -63.90625 119.9921875 C-63.43733319 121.28639791 -62.96859231 122.58067206 -62.5 123.875 C-62.26152344 124.52597656 -62.02304687 125.17695313 -61.77734375 125.84765625 C-60 130.7734375 -60 130.7734375 -60 133 C-59.41992188 132.79503906 -58.83984375 132.59007812 -58.2421875 132.37890625 C-57.46101563 132.10949219 -56.67984375 131.84007812 -55.875 131.5625 C-55.10929687 131.29566406 -54.34359375 131.02882812 -53.5546875 130.75390625 C-38.12964382 126.20186737 -21.42708271 129.02471193 -7.25 136.0625 C8.10411519 144.99684246 17.80976838 158.01010118 23 175 C24.57545707 181.74492557 25.08133294 188.10148803 25 195 C26.1859375 195.14695313 27.371875 195.29390625 28.59375 195.4453125 C49.43676098 198.24343908 65.77209742 205.04402425 81 220 C81.7734375 220.74894531 82.546875 221.49789062 83.34375 222.26953125 C97.2029078 236.57958631 103.8353176 256.30258593 104.25 276 C103.78614457 296.81892327 96.70712764 315.35713296 83 331 C82.11054687 332.03253906 82.11054687 332.03253906 81.203125 333.0859375 C67.05430475 348.38359358 45.79891239 356.28076205 25.30456543 357.15821838 C24.04325806 357.17376266 22.78195068 357.18930695 21.48242188 357.20532227 C20.77899658 357.21522186 20.07557129 357.22512146 19.35083008 357.23532104 C17.05683603 357.26656946 14.76282138 357.29154618 12.46875 357.31640625 C10.86592105 357.33700757 9.26309715 357.35800481 7.66027832 357.37937927 C3.46496699 357.4342721 -0.73039068 357.48382436 -4.92578125 357.53222656 C-9.21618721 357.58268278 -13.50652684 357.63824226 -17.796875 357.69335938 C-26.19786039 357.80053918 -34.5989017 357.90207138 -43 358 C-43.12479736 359.0919165 -43.24959473 360.18383301 -43.37817383 361.30883789 C-43.55002505 362.75930911 -43.72215917 364.20974683 -43.89453125 365.66015625 C-43.97578247 366.37772095 -44.05703369 367.09528564 -44.14074707 367.83459473 C-45.75155398 381.21462265 -52.47665061 390.56021021 -62.609375 399.2109375 C-71.69203585 406.00809219 -81.33243171 408.30249298 -92.47363281 408.29052734 C-93.38521149 408.29724457 -94.29679016 408.30396179 -95.23599243 408.31088257 C-98.22509318 408.32975852 -101.21396851 408.33378032 -104.203125 408.3359375 C-106.28961274 408.34236853 -108.37609958 408.34909712 -110.46258545 408.35610962 C-114.82338556 408.36805329 -119.18410658 408.37179302 -123.54492188 408.37060547 C-129.1360683 408.37040149 -134.72671091 408.39779759 -140.31773758 408.43214989 C-144.6208124 408.45435816 -148.92376429 408.45844501 -153.22689056 408.45738602 C-155.28900655 408.45974752 -157.35112565 408.46860181 -159.41318512 408.48405075 C-162.29046927 408.50360427 -165.16664405 408.49791656 -168.04394531 408.48583984 C-168.89596527 408.49707886 -169.74798523 408.50831787 -170.62582397 408.51989746 C-174.45651618 408.47895351 -176.38408624 408.44342002 -179.55975342 406.15713501 C-181 404 -181 404 -181 401 C-187.6 401 -194.2 401 -201 401 C-201.33 402.65 -201.66 404.3 -202 406 C-205.71141116 409.71141116 -211.86267253 408.4133765 -216.875 408.4375 C-218.07253906 408.47037109 -219.27007812 408.50324219 -220.50390625 408.53710938 C-221.65503906 408.54419922 -222.80617187 408.55128906 -223.9921875 408.55859375 C-225.04776855 408.57204834 -226.10334961 408.58550293 -227.19091797 408.59936523 C-230 408 -230 408 -232.37548828 405.59008789 C-234 403 -234 403 -234 401 C-239.94 401 -245.88 401 -252 401 C-252.33 402.65 -252.66 404.3 -253 406 C-255.57427036 408.57427036 -257.39891556 408.3106117 -260.91601562 408.38037109 C-278.04576105 408.34197924 -291.0931076 403.27302161 -303.67578125 391.48046875 C-310.3100513 384.40019735 -314.22067785 376.2195794 -317 367 C-317.19722656 366.39542969 -317.39445312 365.79085938 -317.59765625 365.16796875 C-318.20892438 361.87424241 -318.10349247 358.58615621 -318.0625 355.25 C-318.05798828 354.55261719 -318.05347656 353.85523438 -318.04882812 353.13671875 C-318.0371002 351.42444197 -318.01916653 349.71220967 -318 348 C-319.27617187 347.63068359 -319.27617187 347.63068359 -320.578125 347.25390625 C-340.54945166 339.93564614 -355.50854644 321.92784147 -364.2421875 303.14453125 C-374.7209223 279.28639346 -375.12531095 252.938299 -365.6875 228.6875 C-355.19670556 205.34627953 -337.47589662 187.12227614 -313.48144531 177.89697266 C-303.66258071 174.31177824 -293.74033553 171.93244576 -283.26171875 171.98046875 C-282.46080811 171.98328857 -281.65989746 171.9861084 -280.8347168 171.98901367 C-280.22926025 171.99263916 -279.62380371 171.99626465 -279 172 C-279.01571045 171.32646484 -279.0314209 170.65292969 -279.04760742 169.95898438 C-279.67236666 139.02153981 -273.74579542 111.91309243 -253 88 C-252.32453125 87.18015625 -251.6490625 86.3603125 -250.953125 85.515625 C-233.36163419 64.84241318 -206.59499235 52.41145139 -179.921875 49.3125 C-159.50082185 47.68532445 -137.1776301 49.6975804 -119.1875 60.25 C-115.73156712 61.93242314 -114.4560021 62.1168137 -110.67578125 61.1484375 C-108.12612703 60.0917264 -105.64121086 59.00205133 -103.14453125 57.8359375 C-98.77593758 55.81513436 -94.33330043 54.48050412 -89.6875 53.25 C-88.99076172 53.05229004 -88.29402344 52.85458008 -87.57617188 52.65087891 C-69.98252979 48.04843864 -51.42718174 48.64483593 -33.39892578 48.54370117 C-30.15631645 48.52208378 -26.91428432 48.48272638 -23.671875 48.44140625 C-22.68749451 48.44129044 -21.70311401 48.44117462 -20.68890381 48.4410553 C-14.47428874 48.35119244 -9.88905065 47.66495238 -5.13671875 43.28125 C-4.65847656 42.6934375 -4.18023437 42.105625 -3.6875 41.5 C-3.19636719 40.9121875 -2.70523437 40.324375 -2.19921875 39.71875 C0.8503888 35.34797696 0.46883294 30.10153814 0 25 C-1.30719263 21.63121229 -1.30719263 21.63121229 -3 19 C-3.33 18.01 -3.66 17.02 -4 16 C-5.78228936 14.85790183 -5.78228936 14.85790183 -8 14 C-8.70125 13.62875 -9.4025 13.2575 -10.125 12.875 C-15.94250539 11.10445488 -21.78328691 11.11656796 -27.375 13.625 C-32.11831583 16.39272956 -34.35219201 19.60247533 -35.796875 24.94921875 C-36.29502826 27.05620373 -36.76166865 29.17097252 -37.19140625 31.29296875 C-38.03947543 34.13215689 -38.58889786 35.31506509 -41 37 C-42.9375 37.3984375 -42.9375 37.3984375 -45 37.375 C-46.0209375 37.38660156 -46.0209375 37.38660156 -47.0625 37.3984375 C-49.64607054 36.86713872 -50.48835926 36.15882638 -52 34 C-53.31491479 26.21712596 -52.00968603 18.75826114 -48 12 C-37.09117587 -2.90145376 -16.88014021 -10.59650087 0 0 Z " fill="#0A0F40" transform="translate(390,54)"/>
<path d="M0 0 C1.1653125 0.37511719 2.330625 0.75023438 3.53125 1.13671875 C28.04771161 9.43983662 48.77905135 25.81511271 60.4375 49.1875 C69.6907451 68.47855462 69.6907451 68.47855462 68 75 C65.69346492 77.39681042 63.22516529 79.4897455 60.671875 81.62109375 C53.54224451 87.96896651 46.99414053 98.04101627 45.625 107.625 C45.50069754 110.31867357 45.50069754 110.31867357 46 114 C47.87938172 116.29827312 47.87938172 116.29827312 50.9375 116.3125 C53.9120634 116.27581888 53.9120634 116.27581888 55.55078125 114.83203125 C57.40109725 112.49295253 58.22326121 110.17322474 59.25 107.375 C64.06251055 95.50794876 73.17591807 85.42837402 84.875 80 C96.47408375 75.13041382 111.71661599 74.99412051 123.39453125 79.671875 C127.97721882 82.00787766 132.0137917 84.75816219 136 88 C136.62519531 88.47695312 137.25039063 88.95390625 137.89453125 89.4453125 C144.64244135 95.26405213 150.36677318 106.28280157 152 115 C152.04678698 116.91739977 152.03850104 118.83649498 151.9921875 120.75390625 C151.97542969 121.85541016 151.95867187 122.95691406 151.94140625 124.09179688 C151.8970576 126.40966611 151.84494651 128.72739955 151.78515625 131.04492188 C151.77097656 132.14513672 151.75679688 133.24535156 151.7421875 134.37890625 C151.7201123 135.3851001 151.69803711 136.39129395 151.67529297 137.42797852 C151.80476962 140.00642126 151.80476962 140.00642126 153.23217773 141.83032227 C155.48617172 143.32167501 156.85027492 143.35482224 159.54296875 143.3359375 C160.44418457 143.34512207 161.34540039 143.35430664 162.27392578 143.36376953 C163.23540527 143.36747559 164.19688477 143.37118164 165.1875 143.375 C183.07665458 143.83923626 198.6280656 149.2917615 211.91015625 161.78125 C225.92834343 176.66411041 231.74605095 193.18996818 231.20703125 213.265625 C230.62119674 228.02980889 224.94648088 241.88620595 215 253 C214.37996094 253.72316406 213.75992187 254.44632812 213.12109375 255.19140625 C203.06586959 266.13549001 188.70913993 273.22600552 174 275 C171.27767137 275.08439843 168.58271484 275.12705889 165.86157227 275.11352539 C165.08026443 275.11367142 164.2989566 275.11381744 163.49397278 275.1139679 C160.9347548 275.11327627 158.37561138 275.10551927 155.81640625 275.09765625 C154.03279154 275.0957894 152.24917632 275.09436676 150.46556091 275.09336853 C145.78848842 275.08956435 141.11144735 275.07975213 136.43438721 275.06866455 C131.65483017 275.05840516 126.87526802 275.05386123 122.09570312 275.04882812 C112.730455 275.03812786 103.36523012 275.02107682 94 275 C93.72946808 274.45154922 93.45893616 273.90309845 93.1802063 273.33802795 C92.82312592 272.6181218 92.46604553 271.89821564 92.09814453 271.15649414 C91.74511261 270.44304337 91.39208069 269.72959259 91.02835083 268.99452209 C85.44835192 258.17192071 76.51113999 251.87195495 65.1875 248.125 C61.14753856 246.86068046 57.16771044 245.74621863 53 245 C52.88785156 243.89205078 52.88785156 243.89205078 52.7734375 242.76171875 C51.43596704 232.44221626 47.74545681 223.64399666 39.98046875 216.49609375 C28.77754963 208.03313907 17.37208488 207.70789135 4 208 C3.64808594 207.09378906 3.29617187 206.18757812 2.93359375 205.25390625 C0.14090942 198.36334048 -2.5705447 192.55572077 -7.484375 186.8671875 C-9 185 -9 185 -9.953125 182.8828125 C-11.28742553 180.48306304 -12.527371 180.11154882 -15 179 C-16.373627 177.92013878 -17.7265768 176.81367077 -19.0625 175.6875 C-26.43760294 169.87204998 -37.30987303 164.21775466 -46.93994141 163.94506836 C-49.11612856 163.85269493 -50.9263928 163.67697416 -53 163 C-54.81410011 160.5591535 -55.84315565 158.78744538 -57 156.0625 C-57.6571975 154.68357778 -58.32264525 153.30855877 -58.99609375 151.9375 C-59.32593262 151.26332031 -59.65577148 150.58914063 -59.99560547 149.89453125 C-62.35326881 145.4474074 -65.71238173 141.77267671 -69 138 C-69.5053125 137.34 -70.010625 136.68 -70.53125 136 C-81.33003 122.33623756 -98.54763309 113.70067626 -115 109 C-115.69222656 108.79632813 -116.38445312 108.59265625 -117.09765625 108.3828125 C-118.72823615 107.90952291 -120.36356513 107.45263092 -122 107 C-126.28759968 84.80738407 -120.47211055 60.47163281 -108.16552734 41.70751953 C-92.77374236 19.15826437 -71.80038436 4.20673984 -45 -2 C-30.7305252 -4.66669641 -13.82488701 -4.66404118 0 0 Z " fill="#BDDCFB" transform="translate(248,121)"/>
<path d="M0 0 C6.7923017 6.2159852 11.88979071 15.09883256 14.8125 23.8125 C14.8125 24.8025 14.8125 25.7925 14.8125 26.8125 C13.6633139 27.9616861 12.50785525 29.10533953 11.3203125 30.21484375 C6.2467524 35.59071443 2.45632219 41.44110962 2.60546875 48.8984375 C2.70713717 50.91169296 2.70713717 50.91169296 3.875 52.875 C5.95813436 54.00808231 5.95813436 54.00808231 9.125 54.25 C14.39956684 52.19381293 15.04907743 48.83004457 17.28515625 43.8359375 C20.03442572 38.3936496 23.90316632 35.91403866 29.0625 32.9375 C36.08982999 30.829301 42.36043027 30.79696892 49.125 33.8125 C55.26277703 37.23755523 59.00007432 42.46211805 61.8125 48.8125 C62.09960938 50.88720703 62.09960938 50.88720703 62.15625 53.0703125 C62.18589844 53.86050781 62.21554687 54.65070313 62.24609375 55.46484375 C62.29057425 57.12108813 62.33484311 58.77733821 62.37890625 60.43359375 C62.40855469 61.22121094 62.43820312 62.00882812 62.46875 62.8203125 C62.48744141 63.53848145 62.50613281 64.25665039 62.52539062 64.99658203 C62.66945156 67.06145435 62.66945156 67.06145435 64.8125 68.8125 C67.0995852 68.99090434 69.39389992 69.08044131 71.6875 69.125 C81.75629995 69.57755753 90.64031006 72.65666783 98.05859375 79.71875 C105.44836346 88.54039046 107.62952385 97.555727 106.8125 108.8125 C104.93900376 119.60891904 98.62876508 127.54830096 89.8125 133.8125 C79.96875417 139.33327934 68.80814187 138.38079956 57.90234375 138.3515625 C55.88260336 138.36148004 53.862872 138.37342529 51.84315491 138.38729858 C46.55860501 138.41950015 41.27426238 138.43004055 35.98962402 138.43414307 C27.50047746 138.44293961 19.0114993 138.47827524 10.52249336 138.5263176 C7.55870905 138.53892903 4.59513817 138.53814372 1.6313324 138.53604126 C-0.17294483 138.54261691 -1.97722055 138.54962224 -3.78149414 138.55712891 C-4.6079393 138.55300491 -5.43438446 138.54888092 -6.28587341 138.54463196 C-10.70658139 138.39458699 -10.70658139 138.39458699 -14.1875 140.8125 C-14.5175 142.1325 -14.8475 143.4525 -15.1875 144.8125 C-22.1175 144.8125 -29.0475 144.8125 -36.1875 144.8125 C-36.5175 146.4625 -36.8475 148.1125 -37.1875 149.8125 C-40.89891116 153.52391116 -47.05017253 152.2258765 -52.0625 152.25 C-53.26003906 152.28287109 -54.45757812 152.31574219 -55.69140625 152.34960938 C-56.84253906 152.35669922 -57.99367188 152.36378906 -59.1796875 152.37109375 C-60.76305908 152.39127563 -60.76305908 152.39127563 -62.37841797 152.41186523 C-65.1875 151.8125 -65.1875 151.8125 -67.56298828 149.40258789 C-69.1875 146.8125 -69.1875 146.8125 -69.1875 144.8125 C-71.08435547 144.89951172 -71.08435547 144.89951172 -73.01953125 144.98828125 C-74.67965065 145.03517728 -76.33980989 145.08067761 -78 145.125 C-79.25006836 145.1878418 -79.25006836 145.1878418 -80.52539062 145.25195312 C-82.84719628 145.29857573 -84.914259 145.29358792 -87.1875 144.8125 C-89.19921875 142.35546875 -89.19921875 142.35546875 -90.1875 139.8125 C-92.07972591 137.92027409 -95.5384115 138.58887636 -98.0625 138.5 C-110.85800341 137.78559956 -120.86972494 133.0993331 -130.03515625 123.97265625 C-138.14143863 114.16633512 -140.61875049 102.1975432 -139.47851562 89.8046875 C-138.02077555 79.82552724 -132.1504193 70.72853436 -124.3125 64.5625 C-112.92700807 56.57306302 -101.81170636 55.73887775 -88.1875 56.8125 C-77.88213551 58.93231475 -69.81056006 66.21181492 -63.6875 74.4609375 C-61.73322528 77.52467026 -60.31144869 80.67496858 -59.01171875 84.0625 C-58.31706684 86.00547446 -58.31706684 86.00547446 -56.1875 86.8125 C-52.05685374 87.18865126 -52.05685374 87.18865126 -48.3125 85.6875 C-46.6776954 82.96282567 -46.96218943 80.95539151 -47.1875 77.8125 C-52.47292981 64.55052412 -62.15831283 54.01309023 -75.04833984 47.93505859 C-78.69887892 46.3762622 -82.41460486 45.04131527 -86.1875 43.8125 C-87.10082591 26.8652304 -83.84421058 14.82820311 -72.1875 1.8125 C-51.41672615 -18.31975096 -22.03691019 -17.61267392 0 0 Z " fill="#5792D3" transform="translate(225.1875,310.1875)"/>
<path d="M0 0 C0.83144531 0.66773438 1.66289062 1.33546875 2.51953125 2.0234375 C10.47345095 8.79221095 18.09019076 16.77020189 21 27 C20.04480469 27.29132813 19.08960938 27.58265625 18.10546875 27.8828125 C-1.52147404 34.02658859 -16.47618647 44.32662744 -26.1875 62.875 C-30.83077767 72.62345207 -32.37248275 81.06986088 -32.7890625 91.75390625 C-33 95 -33 95 -34 96 C-35.85309773 96.19778547 -37.70757111 96.38269708 -39.5625 96.5625 C-51.62881922 98.35452761 -64.00234665 104.6831461 -72 114 C-75.88530582 119.35088287 -79.23918632 124.99117022 -82 131 C-99.68729784 124.39504856 -111.64746423 109.73971317 -119.6484375 93.16015625 C-127.46359528 74.88714282 -129.07774706 53.78845578 -122 35 C-118.24851967 25.87954555 -113.68276092 17.31528561 -107 10 C-106.24976562 9.16984375 -105.49953125 8.3396875 -104.7265625 7.484375 C-77.60825075 -21.08823107 -30.94205745 -24.85593376 0 0 Z " fill="#BDDCFB" transform="translate(158,257)"/>
<path d="M0 0 C8.93231283 6.23898186 15.73786268 14.80733274 17.796875 25.6796875 C18.68028085 38.67009813 17.48253749 49.28964973 8.765625 59.61328125 C0.5187508 68.26922659 -8.78195009 72.67513252 -20.82617188 73.19726562 C-23.19126784 73.22325569 -25.5566906 73.226974 -27.921875 73.2109375 C-29.81323181 73.21667786 -29.81323181 73.21667786 -31.74279785 73.22253418 C-35.05567113 73.22592399 -38.36777092 73.21001534 -41.68054199 73.1875 C-44.39041459 73.17703275 -47.09976258 73.19637985 -49.80956268 73.21546173 C-53.05537891 73.23338094 -56.30104243 73.22084892 -59.546875 73.2109375 C-60.7572644 73.21903442 -61.96765381 73.22713135 -63.21472168 73.23547363 C-64.89797546 73.21656067 -64.89797546 73.21656067 -66.61523438 73.19726562 C-67.60052124 73.19408325 -68.58580811 73.19090088 -69.60095215 73.18762207 C-72.95230307 72.5334507 -74.13925705 71.35624523 -76.203125 68.6796875 C-76.765625 65.1796875 -76.765625 65.1796875 -76.203125 61.6796875 C-73.99760082 58.95528793 -72.17159495 57.81631656 -68.68518066 57.32446289 C-65.45056676 57.18526214 -62.23746776 57.1790435 -59 57.2109375 C-57.80763733 57.20388794 -56.61527466 57.19683838 -55.38677979 57.1895752 C-50.29305891 57.16010429 -45.19972043 57.17668137 -40.10595703 57.18896484 C-36.38290777 57.19135356 -32.66047286 57.17037827 -28.9375 57.1484375 C-27.22611847 57.16541687 -27.22611847 57.16541687 -25.48016357 57.18273926 C-17.51309192 57.13271845 -11.08277399 55.93755636 -4.86328125 50.71484375 C-4.33605469 50.06386719 -3.80882812 49.41289063 -3.265625 48.7421875 C-2.44771484 47.76958984 -2.44771484 47.76958984 -1.61328125 46.77734375 C2.43248829 40.75912147 2.53856274 34.73029934 1.796875 27.6796875 C-0.26837012 20.86996035 -4.68510673 15.98024908 -10.765625 12.3671875 C-16.6318427 9.65031919 -23.5038448 9.39454795 -29.609375 11.515625 C-31.55179067 12.47958502 -33.36369864 13.53422654 -35.203125 14.6796875 C-36.26853516 15.19015625 -36.26853516 15.19015625 -37.35546875 15.7109375 C-39.84559048 17.01654044 -40.1708768 18.06465872 -41.203125 20.6796875 C-41.698125 21.8965625 -42.193125 23.1134375 -42.703125 24.3671875 C-44.09672019 28.08808665 -44.91339489 31.7870051 -45.578125 35.69921875 C-46.33910735 38.11058156 -47.20307583 39.14773494 -49.203125 40.6796875 C-52.99483215 41.16226841 -55.28345102 41.19847795 -58.640625 39.3046875 C-61.49601071 34.5076395 -60.71620191 29.45708732 -59.73046875 24.12109375 C-57.0255617 13.73878587 -50.81764186 5.94221456 -42.203125 -0.3203125 C-29.05488435 -7.61084337 -12.96819388 -7.77171903 0 0 Z " fill="#080D3E" transform="translate(476.203125,71.3203125)"/>
<path d="M0 0 C0.86625 0.66 1.7325 1.32 2.625 2 C3.429375 2.53625 4.23375 3.0725 5.0625 3.625 C11.95552889 10.01366092 17.15523773 18.06511613 17.90234375 27.50390625 C18.15185775 37.23495208 18.15185775 37.23495208 16.3203125 39.89453125 C13.45514125 41.76283416 10.92780695 41.35387217 7.625 41 C5.23406911 39.3145897 4.69030801 38.32261175 4.10546875 35.43359375 C3.96044922 33.95052734 3.96044922 33.95052734 3.8125 32.4375 C2.64906434 24.56046843 -0.42301251 17.90694392 -6.875 13 C-13.92438925 8.30040717 -22.19553608 7.93003769 -30.375 9 C-33.46154945 10.35348069 -36.1031824 11.87520069 -38.875 13.78515625 C-42.1349553 15.36929078 -43.93826477 14.97166748 -47.375 14 C-49.64248932 11.88367664 -50.29814778 10.6607156 -50.65625 7.58203125 C-50.30138482 4.32417175 -49.46593411 3.53793004 -47 1.4375 C-33.23872039 -9.50462858 -14.7536449 -8.74290068 0 0 Z " fill="#0C1242" transform="translate(436.375,296)"/>
<path d="M0 0 C1.9375 1.0625 1.9375 1.0625 3 3 C3.625 6.3125 3.625 6.3125 3 10 C0.98380968 12.41331872 -1.48042772 14.13895229 -4 16 C-16.33789513 26.1691245 -26.09649133 38.54197116 -28 55 C-28.22188941 57.87288396 -28.43146938 60.73843567 -28.55859375 63.6171875 C-29.07846703 66.4235831 -29.6993056 67.3467103 -32 69 C-35.79170715 69.48258091 -38.08032602 69.51879045 -41.4375 67.625 C-45.44716288 60.88876636 -42.71505531 51.83579166 -41.03125 44.6484375 C-36.02384842 26.93285767 -24.86869471 10.93003513 -9.140625 1.03125 C-5.92170813 -0.51946908 -3.48433173 -0.62717971 0 0 Z " fill="#0C1243" transform="translate(193,152)"/>
<path d="M0 0 C0.7105957 0.0112793 1.42119141 0.02255859 2.15332031 0.03417969 C15.47452498 0.37884999 15.47452498 0.37884999 21 4.0625 C22.84966684 7.08922756 22.95628871 8.82476772 22.375 12.3125 C20.71484375 14.51171875 20.71484375 14.51171875 18.375 16.3125 C15.59765625 16.51953125 15.59765625 16.51953125 12.4375 16.125 C11.29539063 15.99480469 10.15328125 15.86460937 8.9765625 15.73046875 C7.78804687 15.59253906 6.59953125 15.45460937 5.375 15.3125 C1.96794655 15.12404043 -1.43915855 14.94916499 -4.84765625 14.7890625 C-7.97386561 14.25263839 -9.42211914 13.5827631 -11.625 11.3125 C-12.15625 9.375 -12.15625 9.375 -12.125 7.3125 C-12.1353125 6.631875 -12.145625 5.95125 -12.15625 5.25 C-11.625 3.3125 -11.625 3.3125 -10.0703125 1.58203125 C-6.72973853 -0.1522923 -3.67185461 -0.09432602 0 0 Z " fill="#0D1243" transform="translate(223.625,142.6875)"/>
<path d="M0 0 C1.09763672 -0.02449219 2.19527344 -0.04898437 3.32617188 -0.07421875 C4.91075195 -0.08001953 4.91075195 -0.08001953 6.52734375 -0.0859375 C7.492771 -0.09415527 8.45819824 -0.10237305 9.45288086 -0.11083984 C12.82328996 0.51663832 13.99860579 1.68207806 16.0625 4.375 C16.79220082 10.31684952 16.79220082 10.31684952 14.90014648 13.06054688 C10.85716419 15.95245822 4.90536928 14.88529697 0.125 14.875 C-1.06802734 14.90335937 -2.26105469 14.93171875 -3.49023438 14.9609375 C-4.63685547 14.96351563 -5.78347656 14.96609375 -6.96484375 14.96875 C-8.01406006 14.97583984 -9.06327637 14.98292969 -10.14428711 14.99023438 C-12.9375 14.375 -12.9375 14.375 -15.34594727 12.06835938 C-16.9375 9.375 -16.9375 9.375 -16.375 5.6875 C-13.23876955 -1.53946582 -6.83135374 0.00799456 0 0 Z " fill="#090E3F" transform="translate(172.9375,447.625)"/>
</svg>
