<?xml version="1.0" encoding="UTF-8"?>
<svg version="1.1" xmlns="http://www.w3.org/2000/svg" width="64" height="64">
<path d="M0 0 C3.83378636 1.81233537 5.53351018 3.30026527 7.875 6.8125 C9.13934666 10.39481555 9.22631656 13.22805741 9 17 C9.763125 17.2475 10.52625 17.495 11.3125 17.75 C14.3510741 19.16329028 15.27014086 20.17472862 17 23 C17.80503292 27.06541625 17.95254041 31.23956421 15.9453125 34.94921875 C14.18765675 37.09688687 12.49320013 38.75339994 10 40 C8.49014697 40.10987274 6.97565314 40.15905208 5.46191406 40.17700195 C4.04969574 40.19625481 4.04969574 40.19625481 2.60894775 40.21589661 C1.58815125 40.22328354 0.56735474 40.23067047 -0.484375 40.23828125 C-1.53272522 40.246353 -2.58107544 40.25442474 -3.66119385 40.26274109 C-5.88381289 40.27658934 -8.10645327 40.28730817 -10.32910156 40.29516602 C-13.72241777 40.31236024 -17.11475516 40.35623845 -20.5078125 40.40039062 C-22.6666595 40.41051905 -24.82551478 40.41903468 -26.984375 40.42578125 C-27.99707458 40.44328934 -29.00977417 40.46079742 -30.05316162 40.47883606 C-36.04261865 40.46047028 -39.42626451 39.96638682 -44 36 C-47.38509352 32.16356068 -47.51632897 28.36567692 -47.34765625 23.4375 C-46.82190495 19.75133356 -45.51185609 17.71016051 -43 15 C-39.8753581 13.03011706 -37.60408255 12.07396929 -33.9375 11.625 C-30.78472716 11.2493282 -30.78472716 11.2493282 -28.6875 8.5 C-25.34627876 5.39188722 -23.5297376 5.54894982 -19.15234375 5.30859375 C-15.97277263 4.85272058 -14.25589293 3.18753254 -12 1 C-8.28507853 -0.85746073 -4.05436108 -0.4421807 0 0 Z M-13 6 C-13.99 7.485 -13.99 7.485 -15 9 C-16.98736094 8.96742031 -18.9750452 8.93070266 -20.9609375 8.84765625 C-24.1883218 9.08878266 -25.81342454 10.74716468 -28 13 C-28.33 13.66 -28.66 14.32 -29 15 C-30.890625 15.23828125 -30.890625 15.23828125 -33.25 15.3125 C-37.0473843 15.63902668 -37.88148349 15.90370534 -41 18.4375 C-43.93934438 22.20353499 -44.46057454 24.21002479 -44 29 C-42.34846805 32.1807282 -41.11037174 34.37568027 -37.94921875 36.15307617 C-33.78169809 37.34985839 -29.81606285 37.30526559 -25.5 37.30078125 C-24.58669922 37.30506638 -23.67339844 37.3093515 -22.73242188 37.31376648 C-20.805998 37.31949645 -18.87955249 37.32001988 -16.953125 37.31567383 C-14.01004111 37.31251079 -11.06795997 37.33600018 -8.125 37.36132812 C-6.25000126 37.36360098 -4.37499983 37.36430468 -2.5 37.36328125 C-1.18418945 37.37709587 -1.18418945 37.37709587 0.15820312 37.39118958 C4.91664648 37.35523501 8.16770074 37.14091931 12 34 C14.33984442 31.12351775 14.33984442 31.12351775 13.875 27.5625 C12.9275442 23.70500137 12.10978733 22.37807267 9 20 C8.01 19.67 7.02 19.34 6 19 C5.98582031 18.41992188 5.97164062 17.83984375 5.95703125 17.2421875 C5.70721005 13.15052138 5.36864771 9.85211659 2.875 6.5 C-2.52139946 1.80747873 -7.16522917 2.20061435 -13 6 Z " fill="#FFFFFF" transform="translate(47,12)"/>
</svg>
