<?xml version="1.0" encoding="UTF-8"?>
<svg version="1.1" xmlns="http://www.w3.org/2000/svg" width="512" height="512">
<path d="M0 0 C2.6023615 2.02607876 3.84879017 3.21628375 4.48101807 6.49310303 C4.47213562 7.42575989 4.46325317 8.35841675 4.45410156 9.31933594 C4.45364838 10.91053253 4.45364838 10.91053253 4.45318604 12.53387451 C4.43254089 13.67253967 4.41189575 14.81120483 4.390625 15.984375 C4.38496521 17.15510559 4.37930542 18.32583618 4.37347412 19.53204346 C4.35108125 23.271778 4.3008768 27.01055497 4.25 30.75 C4.22993889 33.28514242 4.21168744 35.82029985 4.1953125 38.35546875 C4.15120678 44.57063929 4.08426454 50.78525124 4 57 C4.92506348 57.12044678 5.85012695 57.24089355 6.80322266 57.36499023 C28.3539914 60.28452648 45.79087104 68.43510194 61 84 C61.79921875 84.77859375 62.5984375 85.5571875 63.421875 86.359375 C77.59661034 100.92513753 83.43370757 119.29018747 86 139 C86.65510559 138.99111755 87.31021118 138.98223511 87.98516846 138.9730835 C94.79812909 138.8846495 101.61092693 138.8242819 108.42431641 138.78027344 C110.96767803 138.76014728 113.51099333 138.73284363 116.05419922 138.69824219 C119.70812404 138.6497703 123.36143756 138.62704084 127.015625 138.609375 C128.72362274 138.57840729 128.72362274 138.57840729 130.46612549 138.54681396 C132.05732208 138.54636078 132.05732208 138.54636078 133.68066406 138.54589844 C134.61332092 138.53701599 135.54597778 138.52813354 136.50689697 138.51898193 C139.7805177 139.1505927 140.96629904 140.40926316 143 143 C143.50347322 146.45238782 143.41556154 148.26782014 141.6875 151.3125 C138.79720253 154.20279747 135.86049495 154.13821367 131.9777832 154.20532227 C130.95695145 154.22526749 129.93611969 154.24521271 128.88435364 154.26576233 C127.23423531 154.29083107 127.23423531 154.29083107 125.55078125 154.31640625 C124.4230278 154.33718735 123.29527435 154.35796844 122.13334656 154.37937927 C118.5264604 154.44482847 114.91950071 154.50373844 111.3125 154.5625 C108.86913298 154.60568961 106.42577344 154.64930404 103.98242188 154.69335938 C97.98835926 154.80050516 91.99422329 154.90228029 86 155 C85.80954102 156.07741455 85.61908203 157.1548291 85.42285156 158.26489258 C85.1623715 159.70398627 84.90161453 161.14302986 84.640625 162.58203125 C84.5163916 163.28912231 84.3921582 163.99621338 84.26416016 164.72473145 C81.76935249 178.36379787 75.58499701 192.83409408 66 203 C66.8353125 203.67482422 66.8353125 203.67482422 67.6875 204.36328125 C79.32466335 214.17230914 89.52107698 228.44816844 91.21826172 244 C91.61054141 248.66157297 91.83181209 253.32553604 92 258 C93.13695312 258.15855469 94.27390625 258.31710937 95.4453125 258.48046875 C114.37055861 261.27467601 130.42221994 267.22615928 145 280 C146.03253906 280.88945313 146.03253906 280.88945313 147.0859375 281.796875 C162.05731488 295.64391969 170.12614482 316.44097251 171.125 336.51171875 C171.68427343 360.45561234 162.57840846 380.99567277 146.25 398.125 C141.29166702 402.97064359 136.02737456 406.60797103 130 410 C129.19949219 410.46148437 128.39898437 410.92296875 127.57421875 411.3984375 C117.12260235 417.0433367 105.17772693 420.04688627 93.3125 420.25 C92.40113281 420.27578125 91.48976563 420.3015625 90.55078125 420.328125 C87.50501794 419.93632696 86.19367451 419.11939659 84 417 C83.67 416.01 83.34 415.02 83 414 C76.73 413.67 70.46 413.34 64 413 C63.34 414.65 62.68 416.3 62 418 C57.33938611 421.10707593 52.54441488 420.36858465 47.0625 420.375 C45.96486328 420.39949219 44.86722656 420.42398437 43.73632812 420.44921875 C42.15174805 420.45501953 42.15174805 420.45501953 40.53515625 420.4609375 C39.569729 420.46915527 38.60430176 420.47737305 37.60961914 420.48583984 C34.25316639 419.86095997 33.05381084 418.68041262 31 416 C31 415.01 31 414.02 31 413 C25.06 413 19.12 413 13 413 C12.34 414.65 11.68 416.3 11 418 C7.025098 420.64993466 3.58479669 420.28051691 -1.02947998 420.26069641 C-1.96476036 420.26452196 -2.90004075 420.26834751 -3.86366296 420.27228898 C-7.01170415 420.28264416 -10.15956379 420.2786219 -13.30761719 420.2746582 C-15.55955678 420.2790036 -17.81149489 420.28418617 -20.06343079 420.29014587 C-26.19424664 420.30357387 -32.32500097 420.30410973 -38.45582867 420.30158257 C-43.57683187 420.30051422 -48.69782257 420.30539338 -53.8188231 420.310188 C-66.60341624 420.32193484 -79.38796489 420.32105094 -92.17255762 420.31463119 C-103.24912829 420.30947576 -114.32561063 420.32067916 -125.40216383 420.33972941 C-136.78947893 420.35916277 -148.17673611 420.36706288 -159.56407094 420.36360615 C-165.95124084 420.36179759 -172.33833009 420.36438571 -178.72548676 420.37832069 C-184.74356089 420.39095717 -190.76145983 420.38890002 -196.77953148 420.37590981 C-198.97921243 420.37355613 -201.17890591 420.37623493 -203.37857246 420.38453293 C-232.77533667 420.48735823 -258.06295167 413.17255036 -279.8125 392.5625 C-299.43506589 371.73164803 -305.83003747 346.85724079 -305.13183594 318.90332031 C-304.12767793 296.78952963 -292.46369226 274.48342343 -276.37109375 259.5625 C-256.97616183 243.22992575 -236.93498324 236.73989672 -212 235 C-212.01571045 234.32646484 -212.0314209 233.65292969 -212.04760742 232.95898438 C-212.71997908 199.66382061 -212.71997908 199.66382061 -207.09375 191.09765625 C-205 189 -205 189 -201.75 188.6875 C-200.38875 188.8421875 -200.38875 188.8421875 -199 189 C-198.896875 188.319375 -198.79375 187.63875 -198.6875 186.9375 C-198 184 -198 184 -196.375 180.4375 C-194.84839462 176.62498428 -194.84839462 176.62498428 -196 173 C-196.89533521 169.55825443 -197.28701511 167.67839935 -195.8828125 164.359375 C-191.40832846 157.71725202 -186.54837269 151.7729274 -181 146 C-180.26652344 145.21496094 -179.53304687 144.42992187 -178.77734375 143.62109375 C-173.64368746 138.27013984 -168.24484532 133.98410013 -162 130 C-161.13117188 129.42507812 -160.26234375 128.85015625 -159.3671875 128.2578125 C-136.6918678 114.04626116 -112.9607288 112.49014582 -87 113 C-86.53851563 112.06800781 -86.07703125 111.13601562 -85.6015625 110.17578125 C-74.22841406 87.74334892 -57.76443166 70.63546455 -33.78125 61.81640625 C-28.47504168 60.09188855 -23.28025503 58.84825281 -17.77539062 57.94628906 C-16.6940686 57.76841858 -15.61274658 57.5905481 -14.49865723 57.4072876 C-13.67410034 57.27288269 -12.84954346 57.13847778 -12 57 C-11.99413376 56.37217117 -11.98826752 55.74434235 -11.98222351 55.0974884 C-11.91826226 48.5597318 -11.83383517 42.0224662 -11.73754883 35.48510742 C-11.70430583 33.04572017 -11.67627199 30.60625612 -11.65356445 28.16674805 C-11.62000783 24.65900968 -11.56768951 21.15197475 -11.51171875 17.64453125 C-11.50532883 16.55477493 -11.4989389 15.46501862 -11.49235535 14.34223938 C-11.30748227 4.80930717 -11.30748227 4.80930717 -8 1 C-5.15916359 -0.42041821 -3.14522722 -0.31452272 0 0 Z " fill="#BDDCFB" transform="translate(323,46)"/>
<path d="M0 0 C2.6023615 2.02607876 3.84879017 3.21628375 4.48101807 6.49310303 C4.47213562 7.42575989 4.46325317 8.35841675 4.45410156 9.31933594 C4.45379944 10.38013367 4.45349731 11.4409314 4.45318604 12.53387451 C4.43254089 13.67253967 4.41189575 14.81120483 4.390625 15.984375 C4.38496521 17.15510559 4.37930542 18.32583618 4.37347412 19.53204346 C4.35108125 23.271778 4.3008768 27.01055497 4.25 30.75 C4.22993889 33.28514242 4.21168744 35.82029985 4.1953125 38.35546875 C4.15120678 44.57063929 4.08426454 50.78525124 4 57 C4.92506348 57.12044678 5.85012695 57.24089355 6.80322266 57.36499023 C28.3539914 60.28452648 45.79087104 68.43510194 61 84 C61.79921875 84.77859375 62.5984375 85.5571875 63.421875 86.359375 C77.59661034 100.92513753 83.43370757 119.29018747 86 139 C86.65510559 138.99111755 87.31021118 138.98223511 87.98516846 138.9730835 C94.79812909 138.8846495 101.61092693 138.8242819 108.42431641 138.78027344 C110.96767803 138.76014728 113.51099333 138.73284363 116.05419922 138.69824219 C119.70812404 138.6497703 123.36143756 138.62704084 127.015625 138.609375 C128.72362274 138.57840729 128.72362274 138.57840729 130.46612549 138.54681396 C132.05732208 138.54636078 132.05732208 138.54636078 133.68066406 138.54589844 C134.61332092 138.53701599 135.54597778 138.52813354 136.50689697 138.51898193 C139.7805177 139.1505927 140.96629904 140.40926316 143 143 C143.50347322 146.45238782 143.41556154 148.26782014 141.6875 151.3125 C138.79720253 154.20279747 135.86049495 154.13821367 131.9777832 154.20532227 C130.95695145 154.22526749 129.93611969 154.24521271 128.88435364 154.26576233 C127.23423531 154.29083107 127.23423531 154.29083107 125.55078125 154.31640625 C124.4230278 154.33718735 123.29527435 154.35796844 122.13334656 154.37937927 C118.5264604 154.44482847 114.91950071 154.50373844 111.3125 154.5625 C108.86913298 154.60568961 106.42577344 154.64930404 103.98242188 154.69335938 C97.98835926 154.80050516 91.99422329 154.90228029 86 155 C85.80954102 156.07741455 85.61908203 157.1548291 85.42285156 158.26489258 C85.1623715 159.70398627 84.90161453 161.14302986 84.640625 162.58203125 C84.5163916 163.28912231 84.3921582 163.99621338 84.26416016 164.72473145 C81.76935249 178.36379787 75.58499701 192.83409408 66 203 C66.8353125 203.67482422 66.8353125 203.67482422 67.6875 204.36328125 C79.32466335 214.17230914 89.52107698 228.44816844 91.21826172 244 C91.61054141 248.66157297 91.83181209 253.32553604 92 258 C93.13695312 258.15855469 94.27390625 258.31710937 95.4453125 258.48046875 C114.37055861 261.27467601 130.42221994 267.22615928 145 280 C146.03253906 280.88945313 146.03253906 280.88945313 147.0859375 281.796875 C162.05731488 295.64391969 170.12614482 316.44097251 171.125 336.51171875 C171.68427343 360.45561234 162.57840846 380.99567277 146.25 398.125 C141.29166702 402.97064359 136.02737456 406.60797103 130 410 C129.19949219 410.46148437 128.39898437 410.92296875 127.57421875 411.3984375 C117.12260235 417.0433367 105.17772693 420.04688627 93.3125 420.25 C92.40113281 420.27578125 91.48976563 420.3015625 90.55078125 420.328125 C87.52920789 419.93943869 86.21068829 419.05528843 84 417 C82.78390888 414.39409046 82.93859875 413.22885922 83.6875 410.4375 C85.18994471 407.64724553 86.29692618 406.62740808 89 405 C91.671875 404.6640625 91.671875 404.6640625 94.75 404.625 C112.81328947 403.58991263 128.88194888 395.29934316 141 382 C152.79965764 367.56300166 157.46009433 349.3971886 156 331 C152.88777697 313.45837929 144.49244637 297.68660393 130 287 C119.61412638 279.94657216 107.71215764 275.05611608 95.0234375 274.7890625 C94.105625 274.76070313 93.1878125 274.73234375 92.2421875 274.703125 C90.32311842 274.65083429 88.40381287 274.60662619 86.484375 274.5703125 C85.56914062 274.539375 84.65390625 274.5084375 83.7109375 274.4765625 C82.87868652 274.45674316 82.04643555 274.43692383 81.18896484 274.41650391 C79 274 79 274 77.21508789 272.81982422 C75.50232383 270.2546357 75.72199052 268.46944441 75.84765625 265.40625 C75.87537109 264.2925 75.90308594 263.17875 75.93164062 262.03125 C76.01772931 259.70814042 76.10873857 257.38520706 76.20507812 255.0625 C76.51936101 241.69397905 71.8624365 230.76220802 63.00390625 220.7421875 C51.97691427 210.09962276 39.21249576 207.48277445 24.5234375 207.72265625 C18.79528264 207.96083563 14.09158089 209.38124104 9 212 C8.12859375 212.44730469 7.2571875 212.89460937 6.359375 213.35546875 C-6.14537551 220.33791178 -11.78907121 230.24279114 -17.140625 243.22265625 C-18 245 -18 245 -20 247 C-26.25303293 247.56845754 -26.25303293 247.56845754 -28.68359375 245.71875 C-30.59003146 243.22963252 -30.64781555 240.85349674 -30.54296875 237.79296875 C-28.34991329 226.51214388 -20.53379571 215.34962999 -11.5 208.5625 C-9.23092703 206.64149842 -8.14303312 205.69927302 -7.54296875 202.765625 C-8.44252772 187.49743483 -19.08760799 171.05074092 -29 160 C-29.81210937 159.09378906 -30.62421875 158.18757812 -31.4609375 157.25390625 C-47.97935234 139.79088998 -71.83595831 128.69694619 -95.88671875 127.78125 C-122.14518013 127.14857374 -145.0283394 134.86677747 -165 152 C-165.97710937 152.76957031 -166.95421875 153.53914062 -167.9609375 154.33203125 C-171.20027004 157.0295921 -173.63658083 160.11669192 -176.125 163.5 C-176.96052356 164.61489367 -177.79645557 165.72948136 -178.6328125 166.84375 C-180.12641805 168.83522407 -181.61307397 170.8319471 -183.08984375 172.8359375 C-185 175 -185 175 -188.4375 176.125 C-192 176 -192 176 -195 173.9375 C-197 171 -197 171 -196.8515625 168.1875 C-192.76018912 152.87300146 -174.99184187 137.87892346 -162 130 C-161.13890625 129.4328125 -160.2778125 128.865625 -159.390625 128.28125 C-136.74703662 114.0195424 -112.94879727 112.49038015 -87 113 C-86.53851563 112.06800781 -86.07703125 111.13601562 -85.6015625 110.17578125 C-74.22841406 87.74334892 -57.76443166 70.63546455 -33.78125 61.81640625 C-28.47504168 60.09188855 -23.28025503 58.84825281 -17.77539062 57.94628906 C-16.6940686 57.76841858 -15.61274658 57.5905481 -14.49865723 57.4072876 C-13.67410034 57.27288269 -12.84954346 57.13847778 -12 57 C-11.99413376 56.37217117 -11.98826752 55.74434235 -11.98222351 55.0974884 C-11.91826226 48.5597318 -11.83383517 42.0224662 -11.73754883 35.48510742 C-11.70430583 33.04572017 -11.67627199 30.60625612 -11.65356445 28.16674805 C-11.62000783 24.65900968 -11.56768951 21.15197475 -11.51171875 17.64453125 C-11.50532883 16.55477493 -11.4989389 15.46501862 -11.49235535 14.34223938 C-11.30748227 4.80930717 -11.30748227 4.80930717 -8 1 C-5.15916359 -0.42041821 -3.14522722 -0.31452272 0 0 Z " fill="#0A0F3F" transform="translate(323,46)"/>
<path d="M0 0 C1.1034375 -0.01611328 2.206875 -0.03222656 3.34375 -0.04882812 C15.3361862 -0.05586594 25.62920453 2.83737796 36.25 8.3125 C37.48169922 8.94091797 37.48169922 8.94091797 38.73828125 9.58203125 C55.12672655 18.65187259 66.53109894 33.33306331 72.3125 50.99609375 C72.621875 52.09050781 72.93125 53.18492187 73.25 54.3125 C73.61351562 55.54097656 73.97703125 56.76945312 74.3515625 58.03515625 C78.87116228 76.61301997 74.76518317 96.68335945 65.35546875 112.9375 C62.61682174 117.32746479 59.63898917 121.40457186 56.25 125.3125 C55.59257812 125.0959375 54.93515625 124.879375 54.2578125 124.65625 C41.49502682 120.92080053 28.54226585 121.12842666 15.75390625 124.65625 C13.25 125.3125 13.25 125.3125 10.25 125.3125 C9.99347656 124.35472656 9.73695313 123.39695312 9.47265625 122.41015625 C5.01040471 106.57921338 -2.3587522 93.04823583 -12.75 80.3125 C-13.24886719 79.66152344 -13.74773437 79.01054687 -14.26171875 78.33984375 C-27.59927836 61.56279885 -48.22077142 52.54394384 -67.75 45.3125 C-64.00262092 37.05123248 -59.76909709 30.1032762 -53.75 23.3125 C-53.23050781 22.69890625 -52.71101563 22.0853125 -52.17578125 21.453125 C-38.86908503 6.83922185 -19.27045356 -0.05550246 0 0 Z " fill="#F5B434" transform="translate(318.75,117.6875)"/>
<path d="M0 0 C4.11884831 0.84058129 5.58127621 2.26805016 8.0625 5.625 C8.39521766 9.80177564 7.77282671 13.15573331 6.57421875 17.140625 C4.78345126 23.9499631 4.72050832 30.37137738 4.875 37.375 C4.88853516 38.5609375 4.90207031 39.746875 4.91601562 40.96875 C4.95092591 43.85466693 4.99995461 46.73957264 5.0625 49.625 C5.90542603 49.69086304 5.90542603 49.69086304 6.76538086 49.75805664 C28.54725151 51.76900762 47.30361605 65.32967467 61.0625 81.625 C67.95475012 90.39755029 76.95492123 102.0394601 76.0625 113.625 C74.4375 116 74.4375 116 72.0625 117.625 C69.0625 118.125 69.0625 118.125 66.0625 117.625 C62.0420447 114.42801145 60.30083306 110.41787948 58.1875 105.875 C55.32271431 99.94099134 52.35789896 94.66016212 48.0625 89.625 C47.6396875 89.06039062 47.216875 88.49578125 46.78125 87.9140625 C36.67908215 74.93395148 19.02926164 65.85553229 2.984375 63.02734375 C-20.79876599 60.58743984 -41.33340608 64.65707744 -60.4543457 79.80029297 C-74.40984982 91.2879898 -84.62575996 108.76892437 -87.65625 126.71875 C-89.92087622 150.11988758 -84.60166465 171.01279103 -69.9375 189.625 C-61.22352342 200.05239895 -48.71098337 208.0499223 -35.9375 212.625 C-34.99611459 212.99516283 -34.99611459 212.99516283 -34.03571129 213.37280369 C-23.78276563 216.81748993 -12.96237435 216.03356144 -2.28759766 215.99389648 C0.0113035 215.9963669 2.31020352 216.00020776 4.60910034 216.00531006 C9.54228862 216.01362242 14.47536135 216.0128625 19.40855026 216.00512505 C27.20720487 215.99351533 35.00571161 216.00572539 42.80435181 216.02174377 C53.7339909 216.04214621 64.66360392 216.05504581 75.59326172 216.05883789 C76.6316694 216.05920519 76.6316694 216.05920519 77.69105501 216.05957992 C85.42298393 216.06212852 93.15491159 216.06269094 100.88684082 216.06164551 C103.69588216 216.06131242 106.5049235 216.06102705 109.31396484 216.06079102 C110.35382483 216.06069683 110.35382483 216.06069683 111.41469209 216.06060075 C122.97174033 216.05999608 134.52870119 216.07506436 146.0857197 216.10162407 C153.84101452 216.11844087 161.59601388 216.11660474 169.35130763 216.10080135 C174.16767758 216.09501746 178.98390636 216.10572015 183.80025101 216.12104797 C186.03638897 216.12478355 188.27255038 216.12163933 190.50866699 216.11117744 C193.5567046 216.09786434 196.60370753 216.10896697 199.65170288 216.12620544 C200.98432445 216.11149528 200.98432445 216.11149528 202.34386766 216.09648794 C206.40927754 216.14417021 208.54176005 216.30619513 212.08036232 218.47258091 C214.65856636 221.2722732 215.21786614 222.81852949 215.0625 226.625 C213.08415023 229.34621834 211.47876502 231.29431975 208.09811616 232.08365917 C205.65006453 232.26584638 203.24721049 232.28161682 200.79251099 232.24645996 C199.38702714 232.25604319 199.38702714 232.25604319 197.95314968 232.26582003 C194.81094356 232.28108944 191.66999441 232.26059456 188.52783203 232.24023438 C186.27559491 232.24373521 184.02336025 232.24939335 181.77113342 232.25704956 C175.64855319 232.27132058 169.52642091 232.2542078 163.40388346 232.23076439 C156.99003163 232.21066341 150.57619858 232.21653499 144.162323 232.21887207 C133.37993358 232.21881845 122.59775932 232.19916812 111.81542969 232.16699219 C100.74800212 232.13397812 89.6807571 232.11972074 78.61328125 232.12597656 C65.2571496 232.13348897 51.90113429 232.12603043 38.54500961 232.10432434 C33.45528923 232.09617967 28.36560907 232.09343544 23.27588272 232.09501648 C17.26595818 232.0959008 11.25624934 232.08153274 5.24638176 232.05578995 C3.0499355 232.04867542 0.85346621 232.04652155 -1.34298897 232.04990768 C-30.72467998 232.0865367 -56.00853699 224.78988864 -77.75 204.1875 C-97.37256589 183.35664803 -103.76753747 158.48224079 -103.06933594 130.52832031 C-102.06517793 108.41452963 -90.40119226 86.10842343 -74.30859375 71.1875 C-54.91366183 54.85492575 -34.87248324 48.36489672 -9.9375 46.625 C-9.95321045 45.95146484 -9.9689209 45.27792969 -9.98510742 44.58398438 C-10.65934459 11.19644281 -10.65934459 11.19644281 -5.01171875 2.7421875 C-2.9375 0.625 -2.9375 0.625 0 0 Z " fill="#0B1142" transform="translate(120.9375,234.375)"/>
<path d="M0 0 C16.75536539 4.59106351 27.6922336 15.05612133 36.5625 29.4375 C41.48729381 38.39923747 44.30952856 49.20701918 42.5625 59.4375 C40.25651617 62.35187105 39.25023309 63.30855005 35.5625 64 C32.5625 63.4375 32.5625 63.4375 30.25 61.625 C28.55168143 58.41706492 28.32031105 56.9582387 28.125 53.4375 C27.3521643 40.95452334 21.51880764 30.63147256 12.28125 22.40625 C4.55087885 16.4829786 -4.32391032 13.59302301 -14 12.9375 C-17.19105416 12.70400823 -18.29100108 12.53167788 -21.0625 10.75 C-22.88547485 7.68408776 -23.02264474 5.94836845 -22.4375 2.4375 C-18.21825897 -5.1973171 -6.85455055 -1.62566856 0 0 Z " fill="#0D113E" transform="translate(335.4375,135.5625)"/>
<path d="M0 0 C8.54699547 5.4964169 15.52199771 14.10711853 18.125 24.04296875 C18.53466291 26.9551377 18.69015139 29.78178642 18.734375 32.72265625 C18.76015625 33.75648438 18.7859375 34.7903125 18.8125 35.85546875 C18.484375 38.59765625 18.484375 38.59765625 17.1875 40.44140625 C14.33205665 42.37996412 11.8132468 41.95432109 8.484375 41.59765625 C6.09344411 39.91224595 5.54968301 38.920268 4.96484375 36.03125 C4.81982422 34.54818359 4.81982422 34.54818359 4.671875 33.03515625 C3.5353292 25.51576926 1.15792887 19.40281169 -5.02734375 14.6796875 C-12.83757276 9.87953215 -19.35236996 8.63255691 -28.515625 9.59765625 C-32.38143971 10.97227843 -36.56315224 12.64518349 -39.515625 15.59765625 C-42.328125 15.97265625 -42.328125 15.97265625 -45.515625 15.59765625 C-48.06996634 13.24497344 -49.26174192 11.49778718 -50.203125 8.16015625 C-49.04988162 3.86170365 -46.15581367 1.95852564 -42.515625 -0.40234375 C-28.97902468 -8.04042547 -13.53638213 -7.20959483 0 0 Z " fill="#0C1142" transform="translate(435.515625,350.40234375)"/>
<path d="M0 0 C2.4375 2.125 2.4375 2.125 4 5 C3.94921875 7.90234375 3.94921875 7.90234375 3 11 C0.5234375 13.30859375 0.5234375 13.30859375 -2.625 15.4375 C-3.7291165 16.2203687 -4.83069391 17.00683086 -5.9296875 17.796875 C-6.94289062 18.52390625 -7.95609375 19.2509375 -9 20 C-19.66104093 28.44837206 -25.42325135 41.96378642 -28 55 C-28.20259098 57.03841543 -28.37238973 59.08052056 -28.5 61.125 C-28.72555364 64.44946453 -28.89507215 65.8224298 -30.625 68.75 C-34.12921872 70.59432564 -36.25991287 70.08802535 -40 69 C-42.71234374 66.16208479 -43.43145822 64.14090797 -43.4375 60.25 C-42.88093428 42.83413102 -35.57232236 26.842737 -24 14 C-23.44699219 13.36578125 -22.89398438 12.7315625 -22.32421875 12.078125 C-16.56624263 5.86665672 -8.89266451 -1.0251266 0 0 Z " fill="#0D1343" transform="translate(193,207)"/>
<path d="M0 0 C2.375 1.5625 2.375 1.5625 4 4 C4.625 7.4375 4.625 7.4375 4 11 C-0.84496643 15.74171305 -6.63809914 18.91435767 -12.5 22.25 C-13.42425781 22.79140625 -14.34851563 23.3328125 -15.30078125 23.890625 C-23.95610535 28.84360017 -23.95610535 28.84360017 -29 29 C-31.8125 28 -31.8125 28 -34 26 C-35.0625 22.625 -35.0625 22.625 -35 19 C-30.9559437 12.86454103 -24.90229803 10.15860273 -18.625 6.6875 C-16.93890625 5.71973633 -16.93890625 5.71973633 -15.21875 4.73242188 C-13.58292969 3.81879883 -13.58292969 3.81879883 -11.9140625 2.88671875 C-10.9235791 2.33201904 -9.9330957 1.77731934 -8.91259766 1.20581055 C-5.67112709 -0.13615283 -3.47486862 -0.3477311 0 0 Z " fill="#080D3E" transform="translate(443,115)"/>
<path d="M0 0 C3.6875 0.3125 3.6875 0.3125 6.125 1.9375 C8.15546784 5.02381112 8.00813946 6.65355206 7.6875 10.3125 C6.44995117 13.2409668 6.44995117 13.2409668 4.73046875 16.26171875 C4.11236328 17.35677734 3.49425781 18.45183594 2.85742188 19.58007812 C2.20322266 20.70865234 1.54902344 21.83722656 0.875 23 C0.23240234 24.14017578 -0.41019531 25.28035156 -1.07226562 26.45507812 C-7.51996309 37.76694529 -7.51996309 37.76694529 -12.1875 39.1875 C-16.02707298 39.34108292 -17.4753797 38.90643856 -20.3125 36.3125 C-21.80112221 31.62089967 -21.36183293 28.80710118 -19.21484375 24.53515625 C-18.24561524 22.80429661 -17.25664358 21.08437056 -16.25 19.375 C-15.77111328 18.51970703 -15.29222656 17.66441406 -14.79882812 16.78320312 C-5.53329652 0.52200911 -5.53329652 0.52200911 0 0 Z " fill="#080D3E" transform="translate(389.3125,64.6875)"/>
<path d="M0 0 C3.03613281 1.3293457 3.03613281 1.3293457 6.203125 3.17578125 C6.76698914 3.5016069 7.33085327 3.82743256 7.9118042 4.16313171 C9.09519511 4.85055679 10.27495511 5.544267 11.45117188 6.24389648 C13.25054083 7.31282128 15.06134812 8.35982771 16.875 9.40429688 C25.70833193 14.56249789 25.70833193 14.56249789 28 18 C28.4375 21.4375 28.4375 21.4375 28 25 C25.9375 27.5 25.9375 27.5 23 29 C17.84359937 28.68179776 14.32276159 27.39990056 9.91796875 24.76171875 C8.82162109 24.10623047 7.72527344 23.45074219 6.59570312 22.77539062 C5.47099609 22.08638672 4.34628906 21.39738281 3.1875 20.6875 C2.03239965 20.00241382 0.87680431 19.31816151 -0.27929688 18.63476562 C-9.68802298 12.94279235 -9.68802298 12.94279235 -11 9 C-10.86003746 5.57091775 -10.63112109 3.70124565 -8.3125 1.125 C-5.28320436 -0.34871139 -3.35784594 -0.27830385 0 0 Z " fill="#080D3E" transform="translate(203,115)"/>
<path d="M0 0 C4.51241526 2.09843477 8.67676524 4.7176452 12.875 7.375 C14.02508113 8.08229341 15.17611679 8.78803719 16.328125 9.4921875 C24.60185365 14.60185365 24.60185365 14.60185365 27 17 C27.32683936 20.52986508 27.35374004 23.13775866 26 26.4375 C23.53180608 28.3657765 21.64363595 28.5700632 18.54980469 28.50610352 C13.34823146 27.47365797 8.90059479 24.51161996 4.39794922 21.81103516 C2.61959004 20.74676237 0.82562482 19.7137722 -0.97265625 18.68359375 C-10.71007924 12.96549473 -10.71007924 12.96549473 -12 9 C-11.81416141 5.96463635 -11.44051393 3.77737753 -9.9375 1.125 C-6.63782479 -0.79094044 -3.63251418 -0.71981831 0 0 Z " fill="#080D3E" transform="translate(420,241)"/>
<path d="M0 0 C5.24486134 4.29536058 8.38052045 10.04662131 11.8125 15.8125 C12.40998047 16.77220703 13.00746094 17.73191406 13.62304688 18.72070312 C17.02867507 24.42269776 19.00182831 28.32616632 18 35 C15.875 37.5625 15.875 37.5625 13 39 C9.44173777 39 7.70312391 38.61787576 5.01855469 36.25878906 C1.3962929 32.20543081 -1.0649609 27.45324431 -3.75 22.75 C-4.35199219 21.73808594 -4.95398438 20.72617188 -5.57421875 19.68359375 C-8.91423655 13.8442429 -10.98167925 9.76267925 -10 3 C-7.21376523 -0.42921203 -4.23976577 -0.69220666 0 0 Z " fill="#080D3E" transform="translate(253,65)"/>
<path d="M0 0 C13.09163629 2.04384195 13.09163629 2.04384195 16 6 C16.41616519 9.25996064 16.2766188 11.34303035 15 14.375 C10.34299154 18.15881937 0.43036509 15.72576116 -5.3125 15.1875 C-6.65151367 15.08211914 -6.65151367 15.08211914 -8.01757812 14.97460938 C-8.87416016 14.89404297 -9.73074219 14.81347656 -10.61328125 14.73046875 C-11.38454346 14.66239014 -12.15580566 14.59431152 -12.95043945 14.52416992 C-15.47521979 13.87846374 -16.44335833 13.07339939 -18 11 C-18.48724607 7.17163803 -18.71440425 4.96513267 -16.375 1.8046875 C-11.69069219 -1.75477008 -5.60317117 -0.48027181 0 0 Z " fill="#0D1343" transform="translate(230,198)"/>
<path d="M0 0 C0.98484375 -0.01095703 1.9696875 -0.02191406 2.984375 -0.03320312 C7.43663942 0.01192118 10.23583198 0.10859569 14.1171875 2.4140625 C16.58527838 5.23034877 17.15301275 6.81368774 17 10.5625 C15.33821654 13.07923219 14.55693911 14.1282421 12 15.5625 C7.96713906 16.28454888 4.02348107 16.21482846 -0.0625 16.125 C-1.15111328 16.13595703 -2.23972656 16.14691406 -3.36132812 16.15820312 C-11.34990388 16.08446243 -11.34990388 16.08446243 -14.30639648 13.71069336 C-16 11.5625 -16 11.5625 -16.5625 8.625 C-14.89452365 -0.45620455 -7.5725483 -0.18336668 0 0 Z " fill="#0E1445" transform="translate(370,450.4375)"/>
</svg>
