<?xml version="1.0" encoding="UTF-8"?>
<svg version="1.1" xmlns="http://www.w3.org/2000/svg" width="64" height="64">
<path d="M0 0 C2.19921875 0.1015625 2.19921875 0.1015625 5 1 C6.81920875 3.10707701 8.30067211 5.06636124 9.8125 7.375 C10.68411661 8.65547868 11.55652265 9.93542032 12.4296875 11.21484375 C12.85991211 11.85405762 13.29013672 12.49327148 13.73339844 13.15185547 C15.55383233 15.80811694 17.49935015 18.36641192 19.4375 20.9375 C25.61933921 29.55460921 27.066112 36.41240495 26 47 C24.30257912 53.66157627 19.54460397 58.17969559 14 62 C7.56912546 65.23701739 -0.54711876 65.12389015 -7.4453125 63.3828125 C-13.48336462 60.70712666 -18.23836261 55.52327478 -21.16796875 49.6640625 C-23.28704981 42.87902362 -23.22226793 34.63305134 -20.25 28.125 C-16.31725055 21.31049449 -11.26019172 15.13114721 -6.45703125 8.91650391 C-4.23440024 5.99296948 -2.11714868 3.00059123 0 0 Z M1 8 C-0.42958005 9.46248483 -0.42958005 9.46248483 -1.86328125 11.40234375 C-2.42080078 12.12873047 -2.97832031 12.85511719 -3.55273438 13.60351562 C-4.13345703 14.37373047 -4.71417969 15.14394531 -5.3125 15.9375 C-5.88162109 16.67291016 -6.45074219 17.40832031 -7.03710938 18.16601562 C-13.09806084 26.13362691 -17.97492225 32.82463452 -17.4765625 43.1328125 C-16.45438863 49.28261268 -13.36637218 53.30591834 -8.4375 57 C-3.19448237 59.91388882 2.17717706 59.95610282 8 59 C13.44111954 57.04585822 17.37237686 53.40846964 20.140625 48.35546875 C22.28908158 42.46674457 22.15565337 36.85692669 19.80859375 31.0546875 C15.25558685 22.82636177 9.26128239 15.01928175 3 8 C2.34 8 1.68 8 1 8 Z " fill="#FFFFFF" transform="translate(30,0)"/>
<path d="M0 0 C-0.49269082 4.48175339 -1.96562248 6.47831591 -5.11328125 9.64453125 C-5.94923828 10.48564453 -6.78519531 11.32675781 -7.64648438 12.19335938 C-8.96616211 13.48983398 -8.96616211 13.48983398 -10.3125 14.8125 C-11.18068359 15.69615234 -12.04886719 16.57980469 -12.94335938 17.49023438 C-13.78318359 18.32490234 -14.62300781 19.15957031 -15.48828125 20.01953125 C-16.25696533 20.78370361 -17.02564941 21.54787598 -17.81762695 22.33520508 C-20 24 -20 24 -24 24 C-23.50730918 19.51824661 -22.03437752 17.52168409 -18.88671875 14.35546875 C-18.05076172 13.51435547 -17.21480469 12.67324219 -16.35351562 11.80664062 C-15.47373047 10.94232422 -14.59394531 10.07800781 -13.6875 9.1875 C-12.81931641 8.30384766 -11.95113281 7.42019531 -11.05664062 6.50976562 C-10.21681641 5.67509766 -9.37699219 4.84042969 -8.51171875 3.98046875 C-7.74303467 3.21629639 -6.97435059 2.45212402 -6.18237305 1.66479492 C-4 0 -4 0 0 0 Z " fill="#FFFFFF" transform="translate(44,28)"/>
<path d="M0 0 C0.70125 0.00515625 1.4025 0.0103125 2.125 0.015625 C2.82625 0.01046875 3.5275 0.0053125 4.25 0 C6.125 0.265625 6.125 0.265625 8.125 2.265625 C8.390625 4.140625 8.390625 4.140625 8.375 6.265625 C8.38015625 6.966875 8.3853125 7.668125 8.390625 8.390625 C8.125 10.265625 8.125 10.265625 6.125 12.265625 C4.25 12.53125 4.25 12.53125 2.125 12.515625 C1.42375 12.52078125 0.7225 12.5259375 0 12.53125 C-1.875 12.265625 -1.875 12.265625 -3.875 10.265625 C-4.140625 8.390625 -4.140625 8.390625 -4.125 6.265625 C-4.13015625 5.564375 -4.1353125 4.863125 -4.140625 4.140625 C-3.75603481 1.4258707 -2.7147543 0.38459019 0 0 Z M1.125 5.265625 C1.125 5.925625 1.125 6.585625 1.125 7.265625 C1.785 7.265625 2.445 7.265625 3.125 7.265625 C3.125 6.605625 3.125 5.945625 3.125 5.265625 C2.465 5.265625 1.805 5.265625 1.125 5.265625 Z " fill="#FFFFFF" transform="translate(35.875,43.734375)"/>
<path d="M0 0 C0.70125 0.00515625 1.4025 0.0103125 2.125 0.015625 C2.82625 0.01046875 3.5275 0.0053125 4.25 0 C6.125 0.265625 6.125 0.265625 8.125 2.265625 C8.390625 4.140625 8.390625 4.140625 8.375 6.265625 C8.38015625 6.966875 8.3853125 7.668125 8.390625 8.390625 C8.125 10.265625 8.125 10.265625 6.125 12.265625 C4.25 12.53125 4.25 12.53125 2.125 12.515625 C1.42375 12.52078125 0.7225 12.5259375 0 12.53125 C-1.875 12.265625 -1.875 12.265625 -3.875 10.265625 C-4.140625 8.390625 -4.140625 8.390625 -4.125 6.265625 C-4.13015625 5.564375 -4.1353125 4.863125 -4.140625 4.140625 C-3.75603481 1.4258707 -2.7147543 0.38459019 0 0 Z M1.125 5.265625 C1.125 5.925625 1.125 6.585625 1.125 7.265625 C1.785 7.265625 2.445 7.265625 3.125 7.265625 C3.125 6.605625 3.125 5.945625 3.125 5.265625 C2.465 5.265625 1.805 5.265625 1.125 5.265625 Z " fill="#FFFFFF" transform="translate(23.875,23.734375)"/>
</svg>
