<?xml version="1.0" encoding="UTF-8"?>
<svg version="1.1" xmlns="http://www.w3.org/2000/svg" width="512" height="512">
<path d="M0 0 C1.70724243 0.00845947 1.70724243 0.00845947 3.44897461 0.01708984 C33.31966077 0.44560192 59.09602655 12.78955565 80.5 33.125 C93.92739258 47.08068343 102.80428626 63.85467217 108.25 82.3125 C108.91209473 82.17247559 109.57418945 82.03245117 110.25634766 81.88818359 C124.92433243 78.97723592 141.35893159 78.04100498 155.25 84.3125 C156.19746094 84.73660156 157.14492188 85.16070312 158.12109375 85.59765625 C165.15902171 89.10197822 170.70907979 93.78106766 176.25 99.3125 C176.8996875 99.95058594 177.549375 100.58867188 178.21875 101.24609375 C188.29187682 111.87147533 193.37847417 127.16991886 193.25 141.6875 C193.25 142.88375 193.25 144.08 193.25 145.3125 C194.91275221 146.97525221 197.02853436 146.64424366 199.26416016 146.85595703 C218.87044874 148.7744072 235.23526398 156.4997782 249.25 170.3125 C249.87261719 170.86292969 250.49523437 171.41335937 251.13671875 171.98046875 C264.58468704 184.21963091 271.67642685 203.70498363 272.5703125 221.53125 C273.30721224 245.8595595 265.73778195 266.90683799 249.0625 284.9375 C238.76753074 294.6296107 224.50586958 303.54979588 210.25 305.3125 C210.15251465 306.38089111 210.0550293 307.44928223 209.95458984 308.55004883 C209.22314032 314.35749072 207.57467339 319.89302407 205.9765625 325.51171875 C205.65215179 326.66493118 205.32774109 327.81814362 204.99349976 329.00630188 C204.3088157 331.43349587 203.62114586 333.85984936 202.93066406 336.28540039 C201.87627274 339.99552156 200.83603616 343.70941629 199.796875 347.42382812 C199.12845535 349.78669929 198.4592126 352.14933779 197.7890625 354.51171875 C197.32483383 356.17432991 197.32483383 356.17432991 196.85122681 357.87052917 C196.40594131 359.42288017 196.40594131 359.42288017 195.95166016 361.0065918 C195.69486481 361.91289841 195.43806946 362.81920502 195.17349243 363.75297546 C193.90648188 367.26458474 192.69355884 370.59072058 189.25 372.3125 C185.74662019 372.69330215 183.88721374 372.71495078 180.875 370.8125 C178.1856276 366.67500399 178.82892241 362.3488247 179.79293823 357.68685913 C180.56775911 354.67355107 181.40910051 351.68694309 182.27734375 348.69921875 C182.58571671 347.6078511 182.89408966 346.51648346 183.21180725 345.39204407 C184.19395351 341.92517003 185.19057114 338.4626486 186.1875 335 C186.85445735 332.65326223 187.52048288 330.30625942 188.18554688 327.95898438 C192.89393306 311.38070083 192.89393306 311.38070083 194.25 307.3125 C193.156875 307.250625 192.06375 307.18875 190.9375 307.125 C189.720625 306.856875 188.50375 306.58875 187.25 306.3125 C186.87875 305.4875 186.5075 304.6625 186.125 303.8125 C184.54767808 301.16188019 184.54767808 301.16188019 182.2355957 300.80932617 C179.66919438 300.5944515 177.13777476 300.51695499 174.5625 300.5 C173.66982422 300.47486328 172.77714844 300.44972656 171.85742188 300.42382812 C169.65450561 300.36492662 167.45357681 300.32867246 165.25 300.3125 C164.96125 301.09625 164.6725 301.88 164.375 302.6875 C163.25 305.3125 163.25 305.3125 161.25 307.3125 C159.93 307.3125 158.61 307.3125 157.25 307.3125 C157.01925781 308.281875 156.78851563 309.25125 156.55078125 310.25 C154.77578029 317.59486341 152.8779321 324.89214135 150.6875 332.125 C150.49003174 332.79982422 150.29256348 333.47464844 150.08911133 334.16992188 C148.1937341 340.28132347 148.1937341 340.28132347 145.25 342.3125 C141.35495209 342.80823337 139.15506283 342.89266848 135.8125 340.75 C133.73888016 337.51515304 133.80050815 335.01389094 134.25 331.3125 C135.23758433 327.11062537 136.48198824 322.99971008 137.75 318.875 C138.25080078 317.2053418 138.25080078 317.2053418 138.76171875 315.50195312 C139.58264508 312.76944118 140.41226972 310.0398977 141.25 307.3125 C140.13625 307.209375 139.0225 307.10625 137.875 307 C136.080625 306.6596875 136.080625 306.6596875 134.25 306.3125 C132.25 303.3125 132.25 303.3125 132.25 300.3125 C126.31 300.3125 120.37 300.3125 114.25 300.3125 C113.59 301.9625 112.93 303.6125 112.25 305.3125 C109.6845406 307.8779594 107.77313332 307.85296087 104.25 308.3125 C103.95931892 309.36366501 103.95931892 309.36366501 103.6627655 310.43606567 C101.83035132 317.05818542 99.99198468 323.67862692 98.14701366 330.29725838 C97.19883257 333.69955663 96.25291838 337.10245058 95.31225586 340.50683594 C94.22931646 344.42574719 93.13639484 348.34181411 92.04296875 352.2578125 C91.54122383 354.08156906 91.54122383 354.08156906 91.02934265 355.94216919 C90.70923721 357.08289886 90.38913177 358.22362854 90.05932617 359.39892578 C89.78174973 360.39820099 89.50417328 361.3974762 89.21818542 362.42703247 C86.43569164 370.71965418 86.43569164 370.71965418 83.25 372.3125 C80.01119319 372.59413537 77.88329909 372.62059145 74.9375 371.1875 C72.6337799 368.627811 72.58306782 366.71433201 72.25 363.3125 C72.69247437 360.55438232 72.69247437 360.55438232 73.49755859 357.70605469 C73.79471771 356.63184265 74.09187683 355.55763062 74.39804077 354.4508667 C74.72817169 353.30692444 75.05830261 352.16298218 75.3984375 350.984375 C75.73042145 349.79902161 76.0624054 348.61366821 76.40444946 347.39239502 C77.46641269 343.61239503 78.54571728 339.83758685 79.625 336.0625 C80.34640027 333.50594736 81.06360004 330.94823515 81.78125 328.390625 C83.09577929 323.72574433 84.411599 319.06127728 85.74365234 314.40136719 C86.01092133 313.46460144 86.27819031 312.52783569 86.55355835 311.56268311 C87.25 309.3125 87.25 309.3125 88.25 307.3125 C75.71 307.3125 63.17 307.3125 50.25 307.3125 C49.59 310.9425 48.93 314.5725 48.25 318.3125 C47.40505797 322.01338074 46.40039182 325.65789837 45.375 329.3125 C45.13136719 330.23933594 44.88773438 331.16617187 44.63671875 332.12109375 C44.38792969 333.00925781 44.13914062 333.89742188 43.8828125 334.8125 C43.66512207 335.6065625 43.44743164 336.400625 43.22314453 337.21875 C42.0012497 339.84769383 40.73661054 340.85591763 38.25 342.3125 C32.29477612 342.93936567 32.29477612 342.93936567 29.375 341.1875 C27.28321246 337.70118743 27.07653784 334.2882747 27.77905273 330.33642578 C28.22680054 328.81251221 28.22680054 328.81251221 28.68359375 327.2578125 C28.97032959 326.25766113 29.25706543 325.25750977 29.55249023 324.22705078 C29.92704346 322.97649902 30.30159668 321.72594727 30.6875 320.4375 C31.863125 316.43625 33.03875 312.435 34.25 308.3125 C22.04 307.9825 9.83 307.6525 -2.75 307.3125 C-3.41 310.6125 -4.07 313.9125 -4.75 317.3125 C-5.20442462 319.2001526 -5.67793287 321.08347694 -6.18286133 322.95825195 C-6.44686234 323.94239578 -6.71086334 324.92653961 -6.98286438 325.94050598 C-8.18583366 330.34666658 -9.39043625 334.7522945 -10.60766602 339.15454102 C-11.2461368 341.47513988 -11.87728421 343.79776562 -12.5012207 346.12231445 C-13.40776969 349.4989775 -14.33610345 352.86896303 -15.26953125 356.23828125 C-15.54368362 357.27479324 -15.817836 358.31130524 -16.10029602 359.37922668 C-17.69223311 365.01668375 -18.97864524 368.75788073 -23.75 372.3125 C-27.43455227 372.9892545 -28.99316508 372.81041771 -32.125 370.75 C-34.2779674 367.5205489 -34.18004058 365.04555883 -33.75 361.3125 C-32.83486736 357.09557373 -31.65706697 352.96349753 -30.46875 348.81640625 C-30.13580933 347.62772446 -29.80286865 346.43904266 -29.45983887 345.21434021 C-28.39836874 341.43211446 -27.32437464 337.65357802 -26.25 333.875 C-25.52549395 331.30585541 -24.80384954 328.7359179 -24.08203125 326.16601562 C-22.31570609 319.87830412 -20.53247954 313.59574036 -18.75 307.3125 C-30.96 307.3125 -43.17 307.3125 -55.75 307.3125 C-57.07 312.9225 -58.39 318.5325 -59.75 324.3125 C-60.56545815 327.32253391 -61.38334995 330.28109966 -62.3125 333.25 C-62.50779297 333.91966797 -62.70308594 334.58933594 -62.90429688 335.27929688 C-64.03396044 338.92586559 -64.46439422 340.12209615 -67.75 342.3125 C-71.54106167 342.72607036 -73.87965695 342.79118868 -77.25 340.9375 C-80.33194482 335.54409656 -77.89825712 328.46171488 -76.33984375 322.7421875 C-75.79955097 320.88753729 -75.24687756 319.03648362 -74.6875 317.1875 C-73.718125 313.92875 -72.74875 310.67 -71.75 307.3125 C-83.96 307.6425 -96.17 307.9725 -108.75 308.3125 C-109.87019531 312.35757812 -110.99039063 316.40265625 -112.14453125 320.5703125 C-113.04439497 323.80624817 -113.94549672 327.04183339 -114.847435 330.27719116 C-115.79741601 333.68619252 -116.74523322 337.09576097 -117.68774414 340.50683594 C-118.77068354 344.42574719 -119.86360516 348.34181411 -120.95703125 352.2578125 C-121.29152786 353.47365021 -121.62602448 354.68948792 -121.97065735 355.94216919 C-122.29076279 357.08289886 -122.61086823 358.22362854 -122.94067383 359.39892578 C-123.21825027 360.39820099 -123.49582672 361.3974762 -123.78181458 362.42703247 C-126.56430836 370.71965418 -126.56430836 370.71965418 -129.75 372.3125 C-132.98880681 372.59413537 -135.11670091 372.62059145 -138.0625 371.1875 C-140.36603185 368.62802017 -140.41686986 366.71392479 -140.75 363.3125 C-140.30752563 360.56111145 -140.30752563 360.56111145 -139.50244141 357.72192383 C-139.20528229 356.65093948 -138.90812317 355.57995514 -138.60195923 354.47651672 C-138.27182831 353.33571152 -137.94169739 352.19490631 -137.6015625 351.01953125 C-137.26957855 349.83654953 -136.9375946 348.65356781 -136.59555054 347.43473816 C-135.53361209 343.66144268 -134.45447549 339.89331148 -133.375 336.125 C-132.65513067 333.57648778 -131.93636774 331.02766277 -131.21875 328.47851562 C-126.14056726 310.48420179 -126.14056726 310.48420179 -124.75 306.3125 C-125.925625 306.250625 -127.10125 306.18875 -128.3125 306.125 C-145.70045286 304.11137166 -162.00800818 294.92232777 -174.75 283.3125 C-175.80767578 282.37664062 -175.80767578 282.37664062 -176.88671875 281.421875 C-192.65261767 266.67812669 -203.22948608 243.65726076 -203.98828125 222.109375 C-204.50173266 194.35076424 -197.66593893 170.83500446 -178.27905273 150.42578125 C-163.58320726 135.52110131 -142.45166044 123.78631318 -121.1015625 123.21484375 C-119.87179688 123.22644531 -118.64203125 123.23804688 -117.375 123.25 C-116.12976563 123.25902344 -114.88453125 123.26804687 -113.6015625 123.27734375 C-112.66054687 123.28894531 -111.71953125 123.30054688 -110.75 123.3125 C-110.7814209 122.27246826 -110.7814209 122.27246826 -110.81347656 121.21142578 C-111.42506226 97.79698345 -111.42506226 97.79698345 -109 86.875 C-108.84305664 86.14361816 -108.68611328 85.41223633 -108.52441406 84.65869141 C-107.75676441 81.59619659 -107.03788608 79.59924367 -104.78125 77.3515625 C-102.29363734 76.07905295 -100.50711421 76.08274048 -97.75 76.3125 C-95.17071806 69.44529728 -95.17071806 69.44529728 -93.75 62.3125 C-94.245 61.3534375 -94.245 61.3534375 -94.75 60.375 C-96.2085805 57.36667773 -95.53437188 55.52450284 -94.75 52.3125 C-80.1669218 27.16413045 -55.2911113 11.49767542 -28.203125 3.13671875 C-18.79069592 0.89008692 -9.66961287 -0.05063761 0 0 Z " fill="#BDDCFB" transform="translate(221.75,17.6875)"/>
<path d="M0 0 C2.875 2 2.875 2 5 5 C4.93835532 8.63703601 4.33831229 11.62675753 3.4753418 15.12963867 C1.8211104 22.3245857 1.76838814 29.26878164 1.875 36.625 C1.88402344 37.81996094 1.89304687 39.01492187 1.90234375 40.24609375 C1.92568923 43.16427834 1.95843344 46.08202776 2 49 C3.16273437 49.11214844 4.32546875 49.22429687 5.5234375 49.33984375 C9.76319066 49.87563673 13.64464445 51.02832655 17.625 52.5625 C18.31376221 52.82788574 19.00252441 53.09327148 19.7121582 53.36669922 C32.92624183 58.63413772 43.07972355 65.94073544 53 76 C54.14275391 77.12728516 54.14275391 77.12728516 55.30859375 78.27734375 C61.16103551 84.40358396 65.09283116 91.55654148 69 99 C69.47050781 99.87527344 69.94101563 100.75054687 70.42578125 101.65234375 C72.81152996 106.44843651 73.53038837 109.64364071 72 115 C69.465888 117.534112 67.53769983 117.39257035 64.0703125 117.65625 C60.65392798 116.57332057 59.73479202 114.02111075 58 111 C56.8654781 108.74417906 55.76204045 106.47250129 54.6875 104.1875 C51.74920168 98.16726374 48.4791136 92.9878973 44 88 C43.27167969 87.17886719 42.54335937 86.35773438 41.79296875 85.51171875 C28.72136062 71.59541866 9.82274735 62.71770494 -9.328125 61.71484375 C-31.27576038 61.05850092 -50.52254734 68.2369433 -67.265625 82.40234375 C-81.6806959 96.0966611 -90.71551384 115.47718139 -91.41967773 135.41113281 C-91.6021762 157.44094762 -84.02350023 177.64922002 -68.875 193.6875 C-49.27537435 212.47386318 -26.53256257 216.46464413 -0.36083984 216.38476562 C1.90071892 216.38887729 4.16227556 216.39434167 6.42382812 216.40104675 C11.26692681 216.41271406 16.10991172 216.41527703 20.953022 216.41069031 C28.60882589 216.4038538 36.26448109 216.41979157 43.92025757 216.43908691 C54.64785113 216.46403368 65.37540987 216.48081742 76.10302734 216.48876953 C77.12134005 216.4895303 77.12134005 216.4895303 78.16022472 216.49030644 C83.67309661 216.49434152 89.18596882 216.49783813 94.69884109 216.50130367 C99.53278879 216.50436345 104.36673627 216.50763515 109.20068359 216.51123047 C109.88175284 216.51173308 110.56282208 216.5122357 111.26452978 216.51275355 C122.61486636 216.52149283 133.96514491 216.54203538 145.31545103 216.57071257 C152.92964552 216.5890921 160.54366864 216.59295361 168.15788007 216.58577728 C172.88240488 216.58425944 177.60684319 216.59501261 182.3313446 216.60915565 C184.52597605 216.61316973 186.72062377 216.61201396 188.91524887 216.60538292 C191.90421238 216.59704293 194.89257338 216.60694361 197.88150024 216.62145996 C198.75521731 216.61456603 199.62893438 216.60767209 200.52912772 216.60056925 C204.04777306 216.63400335 206.37026564 216.662462 209.50740623 218.34397125 C211.76515788 220.8489406 212 222.66076842 212 226 C210.4375 228.8125 210.4375 228.8125 208 231 C204.84765625 231.63671875 204.84765625 231.63671875 202 232 C201.70931892 233.05116501 201.70931892 233.05116501 201.4127655 234.12356567 C199.58035132 240.74568542 197.74198468 247.36612692 195.89701366 253.98475838 C194.94883257 257.38705663 194.00291838 260.78995058 193.06225586 264.19433594 C191.97931646 268.11324719 190.88639484 272.02931411 189.79296875 275.9453125 C189.29122383 277.76906906 189.29122383 277.76906906 188.77934265 279.62966919 C188.45923721 280.77039886 188.13913177 281.91112854 187.80932617 283.08642578 C187.53174973 284.08570099 187.25417328 285.0849762 186.96818542 286.11453247 C184.18569164 294.40715418 184.18569164 294.40715418 181 296 C177.76119319 296.28163537 175.63329909 296.30809145 172.6875 294.875 C170.3837799 292.315311 170.33306782 290.40183201 170 287 C170.44247437 284.24188232 170.44247437 284.24188232 171.24755859 281.39355469 C171.54471771 280.31934265 171.84187683 279.24513062 172.14804077 278.1383667 C172.47817169 276.99442444 172.80830261 275.85048218 173.1484375 274.671875 C173.48042145 273.48652161 173.8124054 272.30116821 174.15444946 271.07989502 C175.21641269 267.29989503 176.29571728 263.52508685 177.375 259.75 C178.09640027 257.19344736 178.81360004 254.63573515 179.53125 252.078125 C180.84577929 247.41324433 182.161599 242.74877728 183.49365234 238.08886719 C183.76092133 237.15210144 184.02819031 236.21533569 184.30355835 235.25018311 C185 233 185 233 186 231 C173.46 231 160.92 231 148 231 C147.34 234.63 146.68 238.26 146 242 C145.15505797 245.70088074 144.15039182 249.34539837 143.125 253 C142.88136719 253.92683594 142.63773438 254.85367188 142.38671875 255.80859375 C142.13792969 256.69675781 141.88914062 257.58492188 141.6328125 258.5 C141.41512207 259.2940625 141.19743164 260.088125 140.97314453 260.90625 C139.7512497 263.53519383 138.48661054 264.54341763 136 266 C130.04477612 266.62686567 130.04477612 266.62686567 127.125 264.875 C125.03321246 261.38868743 124.82653784 257.9757747 125.52905273 254.02392578 C125.97680054 252.50001221 125.97680054 252.50001221 126.43359375 250.9453125 C126.72032959 249.94516113 127.00706543 248.94500977 127.30249023 247.91455078 C127.67704346 246.66399902 128.05159668 245.41344727 128.4375 244.125 C129.613125 240.12375 130.78875 236.1225 132 232 C119.79 231.67 107.58 231.34 95 231 C94.34 234.3 93.68 237.6 93 241 C92.54557538 242.8876526 92.07206713 244.77097694 91.56713867 246.64575195 C91.17113716 248.1219677 91.17113716 248.1219677 90.76713562 249.62800598 C89.56416634 254.03416658 88.35956375 258.4397945 87.14233398 262.84204102 C86.5038632 265.16263988 85.87271579 267.48526562 85.2487793 269.80981445 C84.34223031 273.1864775 83.41389655 276.55646303 82.48046875 279.92578125 C82.20631638 280.96229324 81.932164 281.99880524 81.64970398 283.06672668 C80.05776689 288.70418375 78.77135476 292.44538073 74 296 C70.31544773 296.6767545 68.75683492 296.49791771 65.625 294.4375 C63.4720326 291.2080489 63.56995942 288.73305883 64 285 C64.91513264 280.78307373 66.09293303 276.65099753 67.28125 272.50390625 C67.61419067 271.31522446 67.94713135 270.12654266 68.29016113 268.90184021 C69.35163126 265.11961446 70.42562536 261.34107802 71.5 257.5625 C72.22450605 254.99335541 72.94615046 252.4234179 73.66796875 249.85351562 C75.43429391 243.56580412 77.21752046 237.28324036 79 231 C66.79 231 54.58 231 42 231 C40.68 236.61 39.36 242.22 38 248 C37.18454185 251.01003391 36.36665005 253.96859966 35.4375 256.9375 C35.24220703 257.60716797 35.04691406 258.27683594 34.84570312 258.96679688 C33.71603956 262.61336559 33.28560578 263.80959615 30 266 C26.20893833 266.41357036 23.87034305 266.47868868 20.5 264.625 C17.41805518 259.23159656 19.85174288 252.14921488 21.41015625 246.4296875 C21.95044903 244.57503729 22.50312244 242.72398362 23.0625 240.875 C24.031875 237.61625 25.00125 234.3575 26 231 C13.79 231.33 1.58 231.66 -11 232 C-12.12019531 236.04507813 -13.24039063 240.09015625 -14.39453125 244.2578125 C-15.29439497 247.49374817 -16.19549672 250.72933339 -17.097435 253.96469116 C-18.04741601 257.37369252 -18.99523322 260.78326097 -19.93774414 264.19433594 C-21.02068354 268.11324719 -22.11360516 272.02931411 -23.20703125 275.9453125 C-23.54152786 277.16115021 -23.87602448 278.37698792 -24.22065735 279.62966919 C-24.54076279 280.77039886 -24.86086823 281.91112854 -25.19067383 283.08642578 C-25.46825027 284.08570099 -25.74582672 285.0849762 -26.03181458 286.11453247 C-28.81430836 294.40715418 -28.81430836 294.40715418 -32 296 C-35.23880681 296.28163537 -37.36670091 296.30809145 -40.3125 294.875 C-42.61603185 292.31552017 -42.66686986 290.40142479 -43 287 C-42.55752563 284.24861145 -42.55752563 284.24861145 -41.75244141 281.40942383 C-41.45528229 280.33843948 -41.15812317 279.26745514 -40.85195923 278.16401672 C-40.52182831 277.02321152 -40.19169739 275.88240631 -39.8515625 274.70703125 C-39.51957855 273.52404953 -39.1875946 272.34106781 -38.84555054 271.12223816 C-37.78361209 267.34894268 -36.70447549 263.58081148 -35.625 259.8125 C-34.90513067 257.26398778 -34.18636774 254.71516277 -33.46875 252.16601562 C-28.39056726 234.17170179 -28.39056726 234.17170179 -27 230 C-28.175625 229.938125 -29.35125 229.87625 -30.5625 229.8125 C-47.95045286 227.79887166 -64.25800818 218.60982777 -77 207 C-78.05767578 206.06414062 -78.05767578 206.06414062 -79.13671875 205.109375 C-94.90261767 190.36562669 -105.47948608 167.34476076 -106.23828125 145.796875 C-106.75173266 118.03826424 -99.91593893 94.52250446 -80.52905273 74.11328125 C-65.83320726 59.20860131 -44.70166044 47.47381318 -23.3515625 46.90234375 C-22.12179688 46.91394531 -20.89203125 46.92554688 -19.625 46.9375 C-18.37976563 46.94652344 -17.13453125 46.95554688 -15.8515625 46.96484375 C-14.44003906 46.98224609 -14.44003906 46.98224609 -13 47 C-13.0314209 45.95996826 -13.0314209 45.95996826 -13.06347656 44.89892578 C-13.67506226 21.48448345 -13.67506226 21.48448345 -11.25 10.5625 C-11.09305664 9.83111816 -10.93611328 9.09973633 -10.77441406 8.34619141 C-10.00419556 5.27344831 -9.29951872 3.29245738 -7.01171875 1.05859375 C-4.34349067 -0.34546413 -2.97616543 -0.58071521 0 0 Z " fill="#090E3F" transform="translate(124,94)"/>
<path d="M0 0 C1.70724243 0.00845947 1.70724243 0.00845947 3.44897461 0.01708984 C33.31966077 0.44560192 59.09602655 12.78955565 80.5 33.125 C93.92739258 47.08068343 102.80428626 63.85467217 108.25 82.3125 C108.91209473 82.17247559 109.57418945 82.03245117 110.25634766 81.88818359 C124.92433243 78.97723592 141.35893159 78.04100498 155.25 84.3125 C156.19746094 84.73660156 157.14492188 85.16070312 158.12109375 85.59765625 C165.15902171 89.10197822 170.70907979 93.78106766 176.25 99.3125 C176.8996875 99.95058594 177.549375 100.58867188 178.21875 101.24609375 C188.29187682 111.87147533 193.37847417 127.16991886 193.25 141.6875 C193.25 142.88375 193.25 144.08 193.25 145.3125 C194.91275221 146.97525221 197.02853436 146.64424366 199.26416016 146.85595703 C218.87044874 148.7744072 235.23526398 156.4997782 249.25 170.3125 C249.87261719 170.86292969 250.49523437 171.41335937 251.13671875 171.98046875 C264.58468704 184.21963091 271.67642685 203.70498363 272.5703125 221.53125 C273.30721224 245.8595595 265.73778195 266.90683799 249.0625 284.9375 C238.76753074 294.6296107 224.50586958 303.54979588 210.25 305.3125 C210.15251465 306.38089111 210.0550293 307.44928223 209.95458984 308.55004883 C209.22314032 314.35749072 207.57467339 319.89302407 205.9765625 325.51171875 C205.65215179 326.66493118 205.32774109 327.81814362 204.99349976 329.00630188 C204.3088157 331.43349587 203.62114586 333.85984936 202.93066406 336.28540039 C201.87627274 339.99552156 200.83603616 343.70941629 199.796875 347.42382812 C199.12845535 349.78669929 198.4592126 352.14933779 197.7890625 354.51171875 C197.32483383 356.17432991 197.32483383 356.17432991 196.85122681 357.87052917 C196.40594131 359.42288017 196.40594131 359.42288017 195.95166016 361.0065918 C195.69486481 361.91289841 195.43806946 362.81920502 195.17349243 363.75297546 C193.90648188 367.26458474 192.69355884 370.59072058 189.25 372.3125 C185.74662019 372.69330215 183.88721374 372.71495078 180.875 370.8125 C178.1856276 366.67500399 178.82892241 362.3488247 179.79293823 357.68685913 C180.56775911 354.67355107 181.40910051 351.68694309 182.27734375 348.69921875 C182.58571671 347.6078511 182.89408966 346.51648346 183.21180725 345.39204407 C184.19395351 341.92517003 185.19057114 338.4626486 186.1875 335 C186.85445735 332.65326223 187.52048288 330.30625942 188.18554688 327.95898438 C192.89393306 311.38070083 192.89393306 311.38070083 194.25 307.3125 C193.156875 307.250625 192.06375 307.18875 190.9375 307.125 C187.25 306.3125 187.25 306.3125 185.125 304.1875 C184.25 301.3125 184.25 301.3125 185.4375 297.5625 C187.25 294.3125 187.25 294.3125 189.25 293.3125 C191.45572916 293.04047978 193.66477207 292.79515557 195.875 292.5625 C215.36381033 290.17950578 231.34896819 282.34806496 244 267 C254.48729097 252.68793232 258.92113269 235.85939323 257.25 218.3125 C254.40343761 200.94846942 245.79000898 185.24875673 231.625 174.625 C227.47905607 171.89553302 223.1569177 169.64199161 218.6875 167.5 C218.08663574 167.20971924 217.48577148 166.91943848 216.86669922 166.62036133 C207.4440873 162.30855579 198.11907093 161.97468905 187.89453125 161.83398438 C186.48107422 161.7943457 186.48107422 161.7943457 185.0390625 161.75390625 C184.19037598 161.74045166 183.34168945 161.72699707 182.46728516 161.71313477 C180.25 161.3125 180.25 161.3125 178.46020508 160.1027832 C176.81860833 157.67433274 176.96544656 156.1393153 177.09765625 153.2265625 C177.12851318 152.21940186 177.15937012 151.21224121 177.19116211 150.17456055 C177.25122437 148.57221558 177.25122437 148.57221558 177.3125 146.9375 C177.57344536 131.81050872 174.90537734 119.81362107 164.37109375 108.25 C159.58267906 103.76146583 154.24606166 100.89440037 148.25 98.3125 C147.57710937 97.99152344 146.90421875 97.67054687 146.2109375 97.33984375 C136.15017533 93.16404478 123.01221026 94.08473262 113.02734375 97.98828125 C99.82008659 104.2854123 92.98251305 112.00084266 86.828125 125.04296875 C83.38394919 132.17855081 83.38394919 132.17855081 81.25 134.3125 C75.12854251 134.7659413 75.12854251 134.7659413 72.3125 133.3125 C70.15644549 129.25404444 70.73726146 125.18338528 71.90625 120.91796875 C75.39999082 111.35535918 82.34735494 99.95455759 91.1875 94.5 C93.3846378 92.57194664 93.3846378 92.57194664 93.58203125 90.41015625 C92.92001037 71.46374908 77.46810338 51.87639037 64.57421875 39.3984375 C45.85939142 22.60227314 20.14568772 14.30612105 -4.69580078 15.19873047 C-9.79750793 15.48128283 -14.74864677 16.30317128 -19.75 17.3125 C-21.13638672 17.55226563 -21.13638672 17.55226563 -22.55078125 17.796875 C-46.73947322 22.74836381 -67.41073158 39.1285705 -81.19140625 59.09765625 C-82.75 61.3125 -82.75 61.3125 -84.75 63.3125 C-89.8739912 63.88183236 -89.8739912 63.88183236 -92.75 63.3125 C-94.8125 61.1875 -94.8125 61.1875 -95.75 58.3125 C-94.73170704 45.27120414 -79.88544386 32.710877 -70.52734375 24.53515625 C-50.45232488 8.46949417 -25.67982284 -0.13447951 0 0 Z " fill="#0A0F40" transform="translate(221.75,17.6875)"/>
<path d="M0 0 C8.67454949 6.34645349 15.09078548 14.63478716 17.1875 25.3125 C17.35379588 27.49615579 17.45267363 29.68553268 17.5 31.875 C17.55607422 33.57849609 17.55607422 33.57849609 17.61328125 35.31640625 C17.1875 38.3125 17.1875 38.3125 15.32421875 40.1875 C12.63790851 41.60186444 11.18305622 41.83672234 8.1875 41.3125 C6 40 6 40 4.1875 37.3125 C3.57289671 34.5969124 3.15812637 31.87530536 2.7265625 29.125 C1.18357453 21.074628 -3.15616317 15.92918866 -9.8125 11.3125 C-15.65415628 7.94369208 -22.20536814 7.17030965 -28.8125 8.3125 C-32.00619959 9.72571207 -35.01220061 11.34730267 -38.0703125 13.03125 C-40.71717036 14.26795852 -42.08146284 14.70682174 -44.9375 14.375 C-47.8125 13.3125 -47.8125 13.3125 -49.8125 10.3125 C-50.5625 7.0625 -50.5625 7.0625 -49.8125 3.3125 C-36.25260443 -10.16454488 -15.64460353 -9.63364094 0 0 Z " fill="#0C1242" transform="translate(436.8125,210.6875)"/>
<path d="M0 0 C2 2 2 2 2.5 5.81640625 C2.40156723 9.4526767 2.14083597 9.85422618 -0.5625 12.65234375 C-1.69296314 13.43669225 -2.83996335 14.1975916 -4 14.9375 C-5.20506912 15.78917354 -6.40560156 16.6473017 -7.6015625 17.51171875 C-8.18711914 17.93114746 -8.77267578 18.35057617 -9.37597656 18.78271484 C-20.14518013 26.85476069 -26.69653227 40.97874439 -29 54 C-29.16823332 55.97738858 -29.31436074 57.95679185 -29.4375 59.9375 C-29.68955112 63.33049585 -29.84656989 64.75564835 -31.6875 67.6875 C-34.78469427 69.44536702 -36.49549702 69.65709431 -40 69 C-42.76453481 66.89022343 -43.79870322 65.18518613 -44.3828125 61.74609375 C-45.13568055 44.90694512 -36.90344642 26.79425268 -26.06640625 14.17578125 C-9.80857901 -2.9425737 -9.80857901 -2.9425737 0 0 Z " fill="#0C1243" transform="translate(194,67)"/>
<path d="M0 0 C5.50990789 0.25479343 5.50990789 0.25479343 7.68766785 1.87736511 C10.04173781 5.04097797 9.37382488 8.8628689 8.96484375 12.59375 C8.18431156 16.52501752 7.1188289 20.34981747 6.0078125 24.19921875 C5.70418289 25.28205643 5.40055328 26.3648941 5.08772278 27.48054504 C4.44676735 29.75707448 3.80015668 32.03201851 3.14819336 34.30541992 C2.15345624 37.77736707 1.1778981 41.2542775 0.20507812 44.73242188 C-0.42205559 46.95083818 -1.05027393 49.16894821 -1.6796875 51.38671875 C-2.11581108 52.93845039 -2.11581108 52.93845039 -2.56074524 54.52153015 C-3.98438408 59.46009973 -5.37334405 64.15127405 -8.03515625 68.59375 C-11.1637612 70.15805248 -13.5911855 69.95002284 -17.03515625 69.59375 C-19.53515625 67.59375 -19.53515625 67.59375 -21.03515625 64.59375 C-20.60671725 57.79402389 -18.80168817 51.38506488 -17.015625 44.83203125 C-16.71578201 43.72321091 -16.41593903 42.61439056 -16.10700989 41.4719696 C-15.47363311 39.13895459 -14.83723883 36.80675691 -14.19799805 34.4753418 C-13.22388682 30.91075307 -12.26886703 27.34139015 -11.31445312 23.77148438 C-10.69517468 21.49968231 -10.07477027 19.22818681 -9.453125 16.95703125 C-9.17067429 15.89237137 -8.88822357 14.82771149 -8.59721375 13.73078918 C-5.19942575 1.516915 -5.19942575 1.516915 0 0 Z " fill="#080D3E" transform="translate(141.03515625,372.40625)"/>
<path d="M0 0 C2 1 2 1 3 3 C3.55987828 10.24038821 1.80205826 16.5128094 -0.140625 23.453125 C-0.46407898 24.63090515 -0.78753296 25.8086853 -1.12078857 27.02215576 C-1.80500186 29.5012317 -2.49450069 31.97885421 -3.18896484 34.45507812 C-4.24907025 38.24667465 -5.28363109 42.04463036 -6.31640625 45.84375 C-6.98544653 48.255634 -7.65596881 50.6671075 -8.328125 53.078125 C-8.63558655 54.2135675 -8.9430481 55.34901001 -9.25982666 56.51885986 C-9.55983582 57.57385681 -9.85984497 58.62885376 -10.16894531 59.71582031 C-10.42653625 60.64211243 -10.6841272 61.56840454 -10.94952393 62.52276611 C-12.18786869 65.44303216 -13.54237566 67.00885167 -16 69 C-19.5 69.5625 -19.5 69.5625 -23 69 C-25.5 67.0625 -25.5 67.0625 -27 64 C-26.61367004 56.81904217 -24.87431517 50.21808275 -22.91015625 43.32421875 C-22.60556992 42.23663773 -22.30098358 41.1490567 -21.98716736 40.02851868 C-21.34580268 37.7442206 -20.70101562 35.46088093 -20.05297852 33.1784668 C-19.06127276 29.68317456 -18.08158501 26.18467653 -17.10351562 22.68554688 C-16.47726657 20.46073919 -15.85033715 18.23612289 -15.22265625 16.01171875 C-14.92988297 14.96690842 -14.63710968 13.92209808 -14.33546448 12.84562683 C-14.0585527 11.87394058 -13.78164093 10.90225433 -13.49633789 9.90112305 C-13.25508682 9.04890671 -13.01383575 8.19669037 -12.76527405 7.31864929 C-12.01823948 5.0552625 -11.20712581 3.05523352 -10 1 C-6.80732485 -0.59633757 -3.47306385 -0.36932376 0 0 Z " fill="#080D3E" transform="translate(360,373)"/>
<path d="M0 0 C2.5624102 0.04583918 3.82502503 0.07582098 6.0625 1.375 C7.98507145 4.76777314 8.2942333 8.16997303 7.69598389 11.9879303 C7.4363385 12.9188298 7.17669312 13.84972931 6.90917969 14.80883789 C6.47312408 16.40563133 6.47312408 16.40563133 6.02825928 18.03468323 C5.70440247 19.16921432 5.38054565 20.30374542 5.046875 21.47265625 C4.5560141 23.24001381 4.5560141 23.24001381 4.05523682 25.04307556 C3.36158163 27.53012865 2.66187187 30.01549993 1.95654297 32.49926758 C0.87906165 36.29817969 -0.17714995 40.10252936 -1.23046875 43.90820312 C-1.90759999 46.32587245 -2.58594488 48.74320226 -3.265625 51.16015625 C-3.58138489 52.29671158 -3.89714478 53.43326691 -4.22247314 54.60426331 C-4.52578552 55.66564011 -4.8290979 56.72701691 -5.14160156 57.82055664 C-5.40442932 58.75066055 -5.66725708 59.68076447 -5.93804932 60.63905334 C-7.20527164 64.17034902 -8.41207256 67.51853628 -11.875 69.25 C-15.03363501 69.52466391 -17.28853643 69.48149878 -20.25 68.3125 C-22.86412176 64.99457622 -22.23716353 61.27366323 -21.875 57.25 C-21.10304291 53.31711878 -20.02892882 49.49373735 -18.91796875 45.64453125 C-18.61433914 44.56169357 -18.31070953 43.4788559 -17.99787903 42.36320496 C-17.3569236 40.08667552 -16.71031293 37.81173149 -16.05834961 35.53833008 C-15.06361249 32.06638293 -14.08805435 28.5894725 -13.11523438 25.11132812 C-12.48810066 22.89291182 -11.85988232 20.67480179 -11.23046875 18.45703125 C-10.9397197 17.42254349 -10.64897064 16.38805573 -10.34941101 15.32221985 C-6.04490615 0.38999395 -6.04490615 0.38999395 0 0 Z " fill="#080D3E" transform="translate(248.875,372.75)"/>
<path d="M0 0 C1.05509766 -0.00386719 2.11019531 -0.00773437 3.19726562 -0.01171875 C4.29876953 -0.00011719 5.40027344 0.01148438 6.53515625 0.0234375 C7.63279297 0.01183594 8.73042969 0.00023437 9.86132812 -0.01171875 C10.91771484 -0.00785156 11.97410156 -0.00398438 13.0625 0 C14.51064087 0.00507568 14.51064087 0.00507568 15.98803711 0.01025391 C19.03551683 0.46356972 20.39358621 1.27367762 22.59765625 3.3984375 C23.59765625 6.2734375 23.59765625 6.2734375 23.59765625 9.3984375 C21.91015625 12.2734375 21.91015625 12.2734375 19.59765625 14.3984375 C18.27765625 14.3984375 16.95765625 14.3984375 15.59765625 14.3984375 C15.36691406 15.3678125 15.13617188 16.3371875 14.8984375 17.3359375 C13.12343654 24.68080091 11.22558835 31.97807885 9.03515625 39.2109375 C8.83768799 39.88576172 8.64021973 40.56058594 8.43676758 41.25585938 C6.54139035 47.36726097 6.54139035 47.36726097 3.59765625 49.3984375 C-0.29739166 49.89417087 -2.49728092 49.97860598 -5.83984375 47.8359375 C-7.91346359 44.60109054 -7.8518356 42.09982844 -7.40234375 38.3984375 C-6.41475942 34.19656287 -5.17035551 30.08564758 -3.90234375 25.9609375 C-3.56847656 24.84783203 -3.23460937 23.73472656 -2.890625 22.58789062 C-2.06969867 19.85537868 -1.24007403 17.1258352 -0.40234375 14.3984375 C-1.51609375 14.2953125 -2.62984375 14.1921875 -3.77734375 14.0859375 C-5.57171875 13.745625 -5.57171875 13.745625 -7.40234375 13.3984375 C-9.40234375 10.3984375 -9.40234375 10.3984375 -9.21484375 6.8984375 C-7.86761283 1.09498124 -5.81698702 0.02041219 0 0 Z " fill="#090E3F" transform="translate(363.40234375,310.6015625)"/>
<path d="M0 0 C2.01359695 2.07150319 2.9439979 3.28958696 3.1730957 6.19580078 C2.33924198 12.58670801 0.9746438 18.68429839 -0.8125 24.875 C-1.06064453 25.79796875 -1.30878906 26.7209375 -1.56445312 27.671875 C-3.99938238 36.22200827 -3.99938238 36.22200827 -8 39 C-11.5 39.5625 -11.5 39.5625 -15 39 C-17.5 37 -17.5 37 -19 34 C-18.59133707 26.98862612 -16.62967651 20.40979227 -14.6875 13.6875 C-14.39166016 12.60404297 -14.09582031 11.52058594 -13.79101562 10.40429688 C-13.49259766 9.36724609 -13.19417969 8.33019531 -12.88671875 7.26171875 C-12.62076904 6.32287842 -12.35481934 5.38403809 -12.08081055 4.41674805 C-9.48701111 -1.38312109 -5.75715926 -1.57013434 0 0 Z " fill="#080D3E" transform="translate(405,403)"/>
<path d="M0 0 C3.375 1.0625 3.375 1.0625 5.375 3.125 C7.705241 9.97008293 4.47466311 18.03607742 2.5625 24.75 C2.31435547 25.67361328 2.06621094 26.59722656 1.81054688 27.54882812 C0.42204812 32.4562703 -0.79225641 36.47439961 -4.625 40.0625 C-8.59069988 40.69984462 -10.65780512 40.68249672 -14.0625 38.5 C-16.64588476 34.46991977 -15.96563582 30.72965717 -15.04321289 26.21508789 C-14.23644842 22.91547467 -13.35042108 19.64677307 -12.4375 16.375 C-12.14552734 15.24771484 -11.85355469 14.12042969 -11.55273438 12.95898438 C-11.25302734 11.87552734 -10.95332031 10.79207031 -10.64453125 9.67578125 C-10.24391479 8.20298706 -10.24391479 8.20298706 -9.83520508 6.70043945 C-7.70130352 2.04907646 -5.09279883 0.08780688 0 0 Z " fill="#080D3E" transform="translate(295.625,401.9375)"/>
<path d="M0 0 C3.375 1.0625 3.375 1.0625 5.375 3.125 C7.705241 9.97008293 4.47466311 18.03607742 2.5625 24.75 C2.31435547 25.67361328 2.06621094 26.59722656 1.81054688 27.54882812 C0.42204812 32.4562703 -0.79225641 36.47439961 -4.625 40.0625 C-8.59069988 40.69984462 -10.65780512 40.68249672 -14.0625 38.5 C-16.64588476 34.46991977 -15.96563582 30.72965717 -15.04321289 26.21508789 C-14.23644842 22.91547467 -13.35042108 19.64677307 -12.4375 16.375 C-12.14552734 15.24771484 -11.85355469 14.12042969 -11.55273438 12.95898438 C-11.25302734 11.87552734 -10.95332031 10.79207031 -10.64453125 9.67578125 C-10.24391479 8.20298706 -10.24391479 8.20298706 -9.83520508 6.70043945 C-7.70130352 2.04907646 -5.09279883 0.08780688 0 0 Z " fill="#080D3E" transform="translate(82.625,401.9375)"/>
<path d="M0 0 C1.99120175 2.07231736 2.94495764 3.30176168 3.1730957 6.19580078 C2.33924198 12.58670801 0.9746438 18.68429839 -0.8125 24.875 C-1.06064453 25.79796875 -1.30878906 26.7209375 -1.56445312 27.671875 C-3.99938238 36.22200827 -3.99938238 36.22200827 -8 39 C-11.5 39.5625 -11.5 39.5625 -15 39 C-17.5 37.0625 -17.5 37.0625 -19 34 C-19.10303775 27.24840759 -16.99246422 20.60520021 -15.125 14.1875 C-14.74021484 12.7962793 -14.74021484 12.7962793 -14.34765625 11.37695312 C-13.96287109 10.03600586 -13.96287109 10.03600586 -13.5703125 8.66796875 C-13.34102051 7.86641357 -13.11172852 7.0648584 -12.87548828 6.23901367 C-11.89877857 3.74113171 -10.79038916 1.99473004 -9 0 C-5.4314543 -1.18951523 -3.60804584 -0.97717908 0 0 Z " fill="#080D3E" transform="translate(231,455)"/>
<path d="M0 0 C4.19053861 1.36647998 4.19053861 1.36647998 5.875 3.9375 C6.93077509 8.36325564 6.7930685 11.45145494 5.58203125 15.81640625 C5.28103516 16.90244141 4.98003906 17.98847656 4.66992188 19.10742188 C4.18362305 20.78674805 4.18362305 20.78674805 3.6875 22.5 C3.38263672 23.62341797 3.07777344 24.74683594 2.76367188 25.90429688 C1.1937842 31.44333451 -0.04303284 35.70056355 -4.125 39.9375 C-8.09069988 40.57484462 -10.15780512 40.55749672 -13.5625 38.375 C-16.14588476 34.34491977 -15.46563582 30.60465717 -14.54321289 26.09008789 C-13.73644842 22.79047467 -12.85042108 19.52177307 -11.9375 16.25 C-11.64552734 15.12271484 -11.35355469 13.99542969 -11.05273438 12.83398438 C-10.75302734 11.75052734 -10.45332031 10.66707031 -10.14453125 9.55078125 C-9.74391479 8.07798706 -9.74391479 8.07798706 -9.33520508 6.57543945 C-7.3538086 2.25649878 -4.8166308 -0.09633262 0 0 Z " fill="#080D3E" transform="translate(121.125,454.0625)"/>
<path d="M0 0 C1.875 1.0625 1.875 1.0625 3 3 C3.58715631 10.20524676 1.79790931 16.37905531 -0.25 23.25 C-0.55035156 24.32507813 -0.85070312 25.40015625 -1.16015625 26.5078125 C-1.61455078 28.05855469 -1.61455078 28.05855469 -2.078125 29.640625 C-2.35043945 30.57422852 -2.62275391 31.50783203 -2.90332031 32.46972656 C-4.17495978 35.40366946 -5.5150364 36.99979475 -8 39 C-11.45750445 39.42460581 -13.83167192 39.70099685 -16.875 37.875 C-19.02315073 34.29474879 -19.14387939 30.85127558 -18.45849609 26.79614258 C-16.68281622 20.33646954 -16.68281622 20.33646954 -15.93212891 17.74926758 C-15.37520044 15.81319679 -14.85284433 13.86988229 -14.33203125 11.92382812 C-13.80802734 10.08401367 -13.80802734 10.08401367 -13.2734375 8.20703125 C-12.95810059 7.0878833 -12.64276367 5.96873535 -12.31787109 4.81567383 C-9.68579012 -0.80785153 -5.68767153 -1.73103047 0 0 Z " fill="#080D3E" transform="translate(192,403)"/>
<path d="M0 0 C2.96559879 0.96704308 3.97356548 1.55389013 5.875 3.9375 C6.64249504 11.55165874 4.76228358 18.06250905 2.5625 25.3125 C2.25376953 26.39144531 1.94503906 27.47039062 1.62695312 28.58203125 C-1.00431156 37.45631761 -1.00431156 37.45631761 -4.125 39.9375 C-6.0625 40.3359375 -6.0625 40.3359375 -8.125 40.3125 C-9.1459375 40.32410156 -9.1459375 40.32410156 -10.1875 40.3359375 C-12.71290299 39.81660059 -13.50777241 38.91998971 -15.125 36.9375 C-15.87158769 29.37358634 -14.07568213 22.8452382 -11.9375 15.625 C-11.64552734 14.55443359 -11.35355469 13.48386719 -11.05273438 12.38085938 C-8.80816289 4.67208375 -8.80816289 4.67208375 -5.58203125 1.203125 C-3.125 -0.0625 -3.125 -0.0625 0 0 Z " fill="#080D3E" transform="translate(334.125,454.0625)"/>
<path d="M0 0 C0.81146484 0.00064453 1.62292969 0.00128906 2.45898438 0.00195312 C3.72645508 0.02612305 3.72645508 0.02612305 5.01953125 0.05078125 C5.84517578 0.04755859 6.67082031 0.04433594 7.52148438 0.04101562 C13.81804483 0.09559574 20.00586489 0.5021473 25.39453125 4.05078125 C26.83203125 6.36328125 26.83203125 6.36328125 26.70703125 9.98828125 C25.83203125 13.36328125 25.83203125 13.36328125 23.83203125 15.36328125 C17.52664527 16.32034877 10.71031425 15.16824607 4.39453125 14.55078125 C3.2044043 14.44588379 3.2044043 14.44588379 1.99023438 14.33886719 C-3.69634901 13.72732801 -3.69634901 13.72732801 -5.88696289 12.03637695 C-8.02231297 9.24743964 -7.52903656 6.73324748 -7.16796875 3.36328125 C-5.03421489 0.49778965 -3.51146854 -0.01435152 0 0 Z " fill="#0B1041" transform="translate(219.16796875,57.63671875)"/>
</svg>
