<?xml version="1.0" encoding="UTF-8"?>
<svg version="1.1" xmlns="http://www.w3.org/2000/svg" width="64" height="64">
<path d="M0 0 C3.34625024 2.52676039 4.67977847 4.03933542 6 8 C6.10321708 9.86003921 6.15491687 11.72315348 6.17578125 13.5859375 C6.19962891 14.68164062 6.22347656 15.77734375 6.24804688 16.90625 C6.29086701 19.21075157 6.3221981 21.51549647 6.34179688 23.8203125 C6.40745101 30.30881314 6.40745101 30.30881314 8.9609375 36.1171875 C9.63382813 36.73851562 10.30671875 37.35984375 11 38 C13.44439626 43.12159217 13.28224325 47.58817924 12 53 C10.32925858 57.63085938 7.68426931 61.10115041 3.1875 63.33984375 C-2.6649995 65.10604449 -9.48535022 65.20363501 -15 62.375 C-19.82412211 58.55590333 -22.05258062 55.19834146 -22.9375 49.125 C-23.27052092 43.99028213 -22.26135682 40.60347638 -20 36 C-19.47728516 35.5460083 -18.95457031 35.0920166 -18.41601562 34.62426758 C-16.37334046 32.28117829 -16.61566502 30.52006054 -16.59375 27.44921875 C-16.57183594 26.35802734 -16.54992187 25.26683594 -16.52734375 24.14257812 C-16.51832031 23.00240234 -16.50929688 21.86222656 -16.5 20.6875 C-16.3887348 6.77140254 -16.3887348 6.77140254 -13 2 C-8.77005384 -0.8199641 -4.96779552 -0.79231188 0 0 Z M-10 8 C-10.56359455 10.91418249 -10.56359455 10.91418249 -10.43359375 14.2421875 C-10.44326172 15.47324219 -10.45292969 16.70429688 -10.46289062 17.97265625 C-10.44601419 20.56643501 -10.42520462 23.16019128 -10.40039062 25.75390625 C-10.48564896 35.35299197 -10.48564896 35.35299197 -13.46875 39.10546875 C-14.3040625 39.73066406 -15.139375 40.35585938 -16 41 C-17.13860018 44.01702814 -17.28263635 46.79490384 -17 50 C-15.22842161 53.82660933 -13.64498209 55.55567901 -10.1875 57.9375 C-6.24305056 59.25231648 -4.00087524 59.09114779 0 58 C3.48788832 55.75224975 5.46130014 53.83276147 7 50 C7.21322458 47.8031383 7.21322458 47.8031383 6.9375 45.5625 C6.88464844 44.82128906 6.83179687 44.08007812 6.77734375 43.31640625 C6.15761064 40.74581224 6.15761064 40.74581224 3.4765625 39.09765625 C-0.59483975 34.00519255 0.3770499 28.19362593 0.4375 21.875 C0.45405397 19.33078269 0.45357432 16.78638021 0.43359375 14.2421875 C0.44447021 13.1166748 0.45534668 11.99116211 0.46655273 10.83154297 C0.26660577 7.89615588 0.26660577 7.89615588 -1.90209961 6.10986328 C-5.5477528 4.18118419 -7.17943952 5.19717889 -10 8 Z " fill="#FFFFFF" transform="translate(37,0)"/>
<path d="M0 0 C1.65 0.33 3.3 0.66 5 1 C5 7.93 5 14.86 5 22 C6.32 22.66 7.64 23.32 9 24 C11.37040308 26.37040308 11.34465793 27.06302753 11.4375 30.3125 C11.339423 33.88942573 11.03928667 34.93984229 9 38.0625 C5.67845169 40.20766662 3.82131981 40.7595293 -0.0625 40.47265625 C-3.66317126 39.59426669 -5.00772296 38.05067422 -7 35 C-7.62877304 31.8728279 -7.64714637 29.12495904 -7 26 C-5.125 23.4375 -5.125 23.4375 -3 22 C-2.34 22 -1.68 22 -1 22 C-1.00523682 21.36908447 -1.01047363 20.73816895 -1.01586914 20.08813477 C-1.03657826 17.24626653 -1.04964066 14.40441412 -1.0625 11.5625 C-1.07087891 10.56927734 -1.07925781 9.57605469 -1.08789062 8.55273438 C-1.09111328 7.60849609 -1.09433594 6.66425781 -1.09765625 5.69140625 C-1.10289307 4.81685791 -1.10812988 3.94230957 -1.11352539 3.04125977 C-1 1 -1 1 0 0 Z " fill="#FFFFFF" transform="translate(30,16)"/>
<path d="M0 0 C4.62 0 9.24 0 14 0 C14 1.65 14 3.3 14 5 C9.38 5 4.76 5 0 5 C0 3.35 0 1.7 0 0 Z " fill="#FFFFFF" transform="translate(45,27)"/>
<path d="M0 0 C4.62 0 9.24 0 14 0 C13.67 1.65 13.34 3.3 13 5 C9.04 5 5.08 5 1 5 C0.67 3.35 0.34 1.7 0 0 Z " fill="#FFFFFF" transform="translate(45,8)"/>
<path d="M0 0 C1.134375 0.020625 2.26875 0.04125 3.4375 0.0625 C4.0975 1.3825 4.7575 2.7025 5.4375 4.0625 C3.4375 6.0625 3.4375 6.0625 -0.1875 6.1875 C-1.30125 6.14625 -2.415 6.105 -3.5625 6.0625 C-3.94468767 4.40635343 -4.27645102 2.73792976 -4.5625 1.0625 C-3.5625 0.0625 -3.5625 0.0625 0 0 Z " fill="#FFFFFF" transform="translate(49.5625,16.9375)"/>
</svg>
