<?xml version="1.0" encoding="UTF-8"?>
<svg version="1.1" xmlns="http://www.w3.org/2000/svg" width="512" height="512">
<path d="M0 0 C1.70724243 0.00845947 1.70724243 0.00845947 3.44897461 0.01708984 C33.31966077 0.44560192 59.09602655 12.78955565 80.5 33.125 C93.92739258 47.08068343 102.80428626 63.85467217 108.25 82.3125 C108.91209473 82.17247559 109.57418945 82.03245117 110.25634766 81.88818359 C124.92433243 78.97723592 141.35893159 78.04100498 155.25 84.3125 C156.19746094 84.73660156 157.14492188 85.16070312 158.12109375 85.59765625 C165.15902171 89.10197822 170.70907979 93.78106766 176.25 99.3125 C176.8996875 99.95058594 177.549375 100.58867188 178.21875 101.24609375 C188.29187682 111.87147533 193.37847417 127.16991886 193.25 141.6875 C193.25 142.88375 193.25 144.08 193.25 145.3125 C194.91275221 146.97525221 197.02853436 146.64424366 199.26416016 146.85595703 C218.87044874 148.7744072 235.23526398 156.4997782 249.25 170.3125 C249.87261719 170.86292969 250.49523437 171.41335937 251.13671875 171.98046875 C264.58468704 184.21963091 271.67642685 203.70498363 272.5703125 221.53125 C273.28722325 245.41646548 266.18277458 266.34494318 249.61328125 283.97265625 C235.9033401 297.54663104 218.61171939 305.97720901 199.25 307.3125 C198.89808594 309.25769531 198.89808594 309.25769531 198.5390625 311.2421875 C196.97220143 319.07649287 194.75559302 326.74222148 192.625 334.4375 C192.20020359 335.9816836 191.77572195 337.52595382 191.3515625 339.0703125 C190.32133305 342.81871651 189.28685647 346.56592396 188.25 350.3125 C189.5817627 350.2810791 189.5817627 350.2810791 190.94042969 350.24902344 C194.24294455 350.18074323 197.5447067 350.1306513 200.84765625 350.09277344 C202.27551121 350.07269018 203.70328425 350.04541748 205.13085938 350.01074219 C207.18640368 349.96207331 209.24085855 349.93950033 211.296875 349.921875 C212.53276367 349.90092773 213.76865234 349.87998047 215.04199219 349.85839844 C218.25 350.3125 218.25 350.3125 220.64648438 352.13378906 C222.25 354.3125 222.25 354.3125 222.859375 357.5625 C222.0315491 362.65681321 219.73318362 365.39998454 216.5 369.3125 C215.91089844 370.05306641 215.32179688 370.79363281 214.71484375 371.55664062 C212.90847861 373.82136608 211.08080474 376.0675132 209.25 378.3125 C208.22227694 379.59240171 207.19613825 380.87357785 206.171875 382.15625 C204.70777059 383.98960783 203.24248132 385.82182981 201.77026367 387.64868164 C198.03630045 392.28881027 194.41198771 397.00507387 190.8125 401.75 C185.95869491 408.14627855 180.96493517 414.40735899 175.86816406 420.61132812 C171.72532416 425.67225594 167.7971166 430.85886802 163.95703125 436.15234375 C162.25 438.3125 162.25 438.3125 160.25 439.3125 C157.01119319 439.59413537 154.88329909 439.62059145 151.9375 438.1875 C149.52685714 435.50900793 149.47702016 433.94034676 149.25 430.3125 C149.91236186 426.61720797 150.9499625 423.04815816 151.99609375 419.4453125 C152.43103905 417.89322586 152.43103905 417.89322586 152.87477112 416.30978394 C153.80077201 413.01562538 154.7438651 409.72664554 155.6875 406.4375 C156.31949372 404.20084105 156.95036621 401.96386495 157.58007812 399.7265625 C159.12374178 394.25146585 160.68145553 388.78051729 162.25 383.3125 C160.9182373 383.3439209 160.9182373 383.3439209 159.55957031 383.37597656 C156.25705545 383.44425677 152.9552933 383.4943487 149.65234375 383.53222656 C148.22448879 383.55230982 146.79671575 383.57958252 145.36914062 383.61425781 C143.31359632 383.66292669 141.25914145 383.68549967 139.203125 383.703125 C137.96723633 383.72407227 136.73134766 383.74501953 135.45800781 383.76660156 C132.25 383.3125 132.25 383.3125 129.81542969 381.78808594 C126.96921245 377.28704995 127.83077287 373.22269938 128.91867065 368.26571655 C129.86212954 364.58946435 130.88519082 360.94021162 131.93359375 357.29296875 C132.31322851 355.94420359 132.69196215 354.59518449 133.06983948 353.2459259 C134.06143793 349.71488477 135.06553702 346.18751902 136.07226562 342.6607666 C137.09585853 339.06580271 138.10676287 335.46727535 139.11914062 331.86914062 C144.88710925 311.40117225 144.88710925 311.40117225 146.25 307.3125 C115.56 307.3125 84.87 307.3125 53.25 307.3125 C52.92 309.9525 52.59 312.5925 52.25 315.3125 C51.78089656 317.15974672 51.26745096 318.99700135 50.6875 320.8125 C50.41808594 321.6684375 50.14867187 322.524375 49.87109375 323.40625 C49.66613281 324.0353125 49.46117187 324.664375 49.25 325.3125 C50.00310959 325.30139694 50.75621918 325.29029388 51.53215027 325.27885437 C58.63840453 325.17856253 65.74441263 325.10249009 72.85117626 325.05343914 C76.50468893 325.02737305 80.1576156 324.99203224 83.81079102 324.93530273 C87.33808948 324.88087235 90.86482527 324.85105698 94.39251137 324.83811378 C96.38956402 324.82441361 98.38639106 324.78539706 100.38310242 324.74601746 C110.48535187 324.74289255 110.48535187 324.74289255 113.60424805 327.63378906 C115.25 330.3125 115.25 330.3125 115.4140625 333.66015625 C113.95291445 338.24463083 111.72782088 341.13796242 108.625 344.75 C107.80467285 345.72851929 107.80467285 345.72851929 106.96777344 346.72680664 C105.88645137 348.01372092 104.80001168 349.29635596 103.70800781 350.57421875 C102.48505079 352.03226531 101.32426796 353.54215161 100.1796875 355.0625 C99.62539063 355.784375 99.07109375 356.50625 98.5 357.25 C98.05140625 357.85714844 97.6028125 358.46429688 97.140625 359.08984375 C95.25 360.3125 95.25 360.3125 91.4296875 360.09375 C88.87347841 359.99712859 87.66076981 360.02734088 85.5390625 361.50024414 C83.91611095 363.20900515 82.51862957 364.97512101 81.125 366.875 C80.6196875 367.48408203 80.114375 368.09316406 79.59375 368.72070312 C78.1835887 370.56131421 77.09073218 372.14956654 76.25 374.3125 C77.08381934 377.89760805 77.08381934 377.89760805 78.25 381.3125 C76.54825187 386.12476943 73.41381779 390.05336705 70.3125 394.0625 C69.88259766 394.63871094 69.45269531 395.21492188 69.00976562 395.80859375 C64.79702676 401.29346469 64.79702676 401.29346469 61.25 402.3125 C60.115625 402.23386719 58.98125 402.15523438 57.8125 402.07421875 C54.07152563 401.94647727 54.07152563 401.94647727 51.5625 404.83203125 C50.76811461 405.91276486 49.99756175 407.0113642 49.25 408.125 C48.84394531 408.67220703 48.43789063 409.21941406 48.01953125 409.78320312 C46.71291694 411.56056395 46.71291694 411.56056395 45.25 414.3125 C45.58 415.3025 45.91 416.2925 46.25 417.3125 C46.73768289 421.71213383 46.59204909 423.76138416 44.23046875 427.56640625 C43.3161655 428.68314322 42.38404705 429.78545855 41.4375 430.875 C40.42012521 432.10509861 39.40321081 433.33557811 38.38671875 434.56640625 C37.86384277 435.18789551 37.3409668 435.80938477 36.80224609 436.44970703 C34.38415852 439.35156425 32.07057726 442.33255814 29.75 445.3125 C28.83910375 446.47309762 27.92764289 447.63325232 27.015625 448.79296875 C26.56251953 449.36966309 26.10941406 449.94635742 25.64257812 450.54052734 C24.21522681 452.35674681 22.78735481 454.17255591 21.359375 455.98828125 C20.8842749 456.59260986 20.4091748 457.19693848 19.91967773 457.81958008 C18.98473039 459.00856298 18.04935703 460.19721103 17.11352539 461.38549805 C13.89816756 465.47230254 10.7258682 469.59014134 7.58984375 473.73828125 C5.45627492 476.24506912 4.20717235 476.31725863 0.875 476.6875 C-2.75 476.3125 -2.75 476.3125 -5.25 474.3125 C-8.31255382 468.18739236 -5.12750731 460.44927053 -3.34155273 454.14257812 C-2.9755748 452.82409378 -2.9755748 452.82409378 -2.60220337 451.47897339 C-1.80137534 448.59903661 -0.99255319 445.72141222 -0.18359375 442.84375 C0.37597952 440.83750002 0.93504906 438.83110948 1.49363708 436.82458496 C2.95997453 431.56251123 4.43311905 426.30236707 5.90771484 421.04260254 C7.41331524 415.66757662 8.91243477 410.29074416 10.41210938 404.9140625 C13.35175184 394.37843554 16.29859258 383.84483674 19.25 373.3125 C18.09488167 373.32249275 18.09488167 373.32249275 16.91642761 373.33268738 C9.66232217 373.39277629 2.40833725 373.43846289 -4.84595203 373.46793652 C-8.57555055 373.48359859 -12.30494358 373.50484629 -16.03442383 373.53881836 C-19.63299774 373.57139319 -23.23137389 373.58934894 -26.83008385 373.59713173 C-28.20364178 373.60267868 -29.57718878 373.61351052 -30.95066261 373.62969017 C-32.87300707 373.65143676 -34.79555015 373.65272517 -36.71801758 373.65307617 C-37.81277908 373.65973801 -38.90754059 373.66639984 -40.03547668 373.67326355 C-42.75 373.3125 -42.75 373.3125 -44.5644989 372.16621399 C-46.7475631 368.75265608 -46.94114072 365.50104883 -46.30752563 361.56111145 C-46.04184784 360.62417953 -45.77617004 359.68724762 -45.50244141 358.72192383 C-45.20528229 357.65093948 -44.90812317 356.57995514 -44.60195923 355.47651672 C-44.27182831 354.33571152 -43.94169739 353.19490631 -43.6015625 352.01953125 C-43.10358658 350.24505867 -43.10358658 350.24505867 -42.59555054 348.43473816 C-41.53361209 344.66144268 -40.45447549 340.89331148 -39.375 337.125 C-38.65513067 334.57648778 -37.93636774 332.02766277 -37.21875 329.47851562 C-32.14056726 311.48420179 -32.14056726 311.48420179 -30.75 307.3125 C-47.91 307.3125 -65.07 307.3125 -82.75 307.3125 C-83.41 310.9425 -84.07 314.5725 -84.75 318.3125 C-85.43288403 321.026782 -86.13549994 323.70226884 -86.9140625 326.38671875 C-87.20946426 327.42878227 -87.20946426 327.42878227 -87.51083374 328.49189758 C-88.12738097 330.66267997 -88.75102361 332.83134291 -89.375 335 C-89.79995593 336.49140069 -90.22443847 337.98293636 -90.6484375 339.47460938 C-91.67684933 343.08881636 -92.71161976 346.70114499 -93.75 350.3125 C-92.8621582 350.29678955 -91.97431641 350.2810791 -91.05957031 350.26489258 C-87.75710179 350.21368314 -84.4550568 350.17611144 -81.15234375 350.14770508 C-79.72454154 350.13264319 -78.2967854 350.11218938 -76.86914062 350.08618164 C-74.81368627 350.04968158 -72.75884495 350.03274834 -70.703125 350.01953125 C-69.46723633 350.0038208 -68.23134766 349.98811035 -66.95800781 349.97192383 C-63.50583597 350.33842152 -62.09821157 350.78302172 -59.75 353.3125 C-59.12791476 357.99249515 -59.11539804 360.19244216 -61.4453125 364.3046875 C-62.24710938 365.25601562 -63.04890625 366.20734375 -63.875 367.1875 C-64.79634617 368.310564 -65.71687189 369.43430142 -66.63671875 370.55859375 C-67.1373584 371.15784668 -67.63799805 371.75709961 -68.15380859 372.37451172 C-71.0840407 375.93220252 -73.87193557 379.60143517 -76.6875 383.25 C-83.11512936 391.51793376 -89.58443767 399.75281193 -96.06347656 407.98046875 C-97.39690437 409.67414907 -98.72971263 411.36831569 -100.0625 413.0625 C-100.50223145 413.6205835 -100.94196289 414.17866699 -101.39501953 414.75366211 C-104.11161121 418.20722727 -106.8051176 421.67753046 -109.484375 425.16015625 C-110.11947998 425.98354492 -110.75458496 426.80693359 -111.40893555 427.65527344 C-112.66101585 429.27975008 -113.90997005 430.90664184 -115.15551758 432.53613281 C-115.72423584 433.2731543 -116.2929541 434.01017578 -116.87890625 434.76953125 C-117.38494385 435.42928955 -117.89098145 436.08904785 -118.41235352 436.76879883 C-120.41144094 439.0758311 -121.5632195 439.29625822 -124.625 439.5625 C-128.1457881 439.28083695 -129.39837188 438.92542013 -131.75 436.3125 C-133.64771189 430.35882392 -131.68057056 425.21969574 -130.00390625 419.4453125 C-129.56896095 417.89322586 -129.56896095 417.89322586 -129.12522888 416.30978394 C-128.19922799 413.01562538 -127.2561349 409.72664554 -126.3125 406.4375 C-125.68050628 404.20084105 -125.04963379 401.96386495 -124.41992188 399.7265625 C-122.87625822 394.25146585 -121.31854447 388.78051729 -119.75 383.3125 C-120.6378418 383.33344727 -121.52568359 383.35439453 -122.44042969 383.37597656 C-125.74294455 383.44425677 -129.0447067 383.4943487 -132.34765625 383.53222656 C-133.77551121 383.55230982 -135.20328425 383.57958252 -136.63085938 383.61425781 C-138.68640368 383.66292669 -140.74085855 383.68549967 -142.796875 383.703125 C-144.03276367 383.72407227 -145.26865234 383.74501953 -146.54199219 383.76660156 C-149.75 383.3125 -149.75 383.3125 -152.18457031 381.78808594 C-155.07519002 377.21683144 -154.15181645 373.13499925 -153.04251099 368.10357666 C-152.03889951 364.17729006 -150.95627831 360.28038377 -149.84765625 356.3828125 C-149.44564548 354.94195624 -149.04449044 353.50086098 -148.64414978 352.05953979 C-147.59340221 348.28646483 -146.52999467 344.5170697 -145.46417236 340.74822998 C-144.59406115 337.66294942 -143.7332485 334.57511106 -142.87285709 331.48710823 C-141.84684989 327.80560531 -140.81652683 324.12531599 -139.78515625 320.4453125 C-139.58850939 319.74302647 -139.39186253 319.04074043 -139.18925667 318.317173 C-138.63379345 316.33724694 -138.07537945 314.35818021 -137.51586914 312.37939453 C-137.03954796 310.6901738 -137.03954796 310.6901738 -136.55360413 308.96682739 C-135.75 306.3125 -135.75 306.3125 -134.75 304.3125 C-135.58096191 304.1568457 -135.58096191 304.1568457 -136.42871094 303.99804688 C-141.97609713 302.87494201 -146.89599866 301.24526514 -152 298.8125 C-153.0974353 298.29018799 -153.0974353 298.29018799 -154.21704102 297.75732422 C-170.96013495 289.4688084 -183.42501157 276.29289766 -192.75 260.3125 C-193.24371094 259.46945312 -193.73742187 258.62640625 -194.24609375 257.7578125 C-205.15223959 237.57634637 -207.50720268 211.18370876 -201.0703125 189.23046875 C-192.73096057 163.62955504 -176.33438568 143.85341096 -152.35546875 131.57421875 C-138.92804344 125.38993029 -125.50367602 122.47076888 -110.75 123.3125 C-110.7814209 122.27246826 -110.7814209 122.27246826 -110.81347656 121.21142578 C-111.42506226 97.79698345 -111.42506226 97.79698345 -109 86.875 C-108.84305664 86.14361816 -108.68611328 85.41223633 -108.52441406 84.65869141 C-107.75676441 81.59619659 -107.03788608 79.59924367 -104.78125 77.3515625 C-102.29363734 76.07905295 -100.50711421 76.08274048 -97.75 76.3125 C-95.17071806 69.44529728 -95.17071806 69.44529728 -93.75 62.3125 C-94.245 61.3534375 -94.245 61.3534375 -94.75 60.375 C-96.2085805 57.36667773 -95.53437188 55.52450284 -94.75 52.3125 C-80.1669218 27.16413045 -55.2911113 11.49767542 -28.203125 3.13671875 C-18.79069592 0.89008692 -9.66961287 -0.05063761 0 0 Z " fill="#BDDCFB" transform="translate(221.75,17.6875)"/>
<path d="M0 0 C1.70724243 0.00845947 1.70724243 0.00845947 3.44897461 0.01708984 C33.31966077 0.44560192 59.09602655 12.78955565 80.5 33.125 C93.92739258 47.08068343 102.80428626 63.85467217 108.25 82.3125 C108.91209473 82.17247559 109.57418945 82.03245117 110.25634766 81.88818359 C124.92433243 78.97723592 141.35893159 78.04100498 155.25 84.3125 C156.19746094 84.73660156 157.14492188 85.16070312 158.12109375 85.59765625 C165.15902171 89.10197822 170.70907979 93.78106766 176.25 99.3125 C176.8996875 99.95058594 177.549375 100.58867188 178.21875 101.24609375 C188.29187682 111.87147533 193.37847417 127.16991886 193.25 141.6875 C193.25 142.88375 193.25 144.08 193.25 145.3125 C194.91275221 146.97525221 197.02853436 146.64424366 199.26416016 146.85595703 C218.87044874 148.7744072 235.23526398 156.4997782 249.25 170.3125 C249.87261719 170.86292969 250.49523437 171.41335937 251.13671875 171.98046875 C264.58468704 184.21963091 271.67642685 203.70498363 272.5703125 221.53125 C273.28722325 245.41646548 266.18277458 266.34494318 249.61328125 283.97265625 C235.9033401 297.54663104 218.61171939 305.97720901 199.25 307.3125 C198.89808594 309.25769531 198.89808594 309.25769531 198.5390625 311.2421875 C196.97220143 319.07649287 194.75559302 326.74222148 192.625 334.4375 C192.20020359 335.9816836 191.77572195 337.52595382 191.3515625 339.0703125 C190.32133305 342.81871651 189.28685647 346.56592396 188.25 350.3125 C189.5817627 350.2810791 189.5817627 350.2810791 190.94042969 350.24902344 C194.24294455 350.18074323 197.5447067 350.1306513 200.84765625 350.09277344 C202.27551121 350.07269018 203.70328425 350.04541748 205.13085938 350.01074219 C207.18640368 349.96207331 209.24085855 349.93950033 211.296875 349.921875 C212.53276367 349.90092773 213.76865234 349.87998047 215.04199219 349.85839844 C218.25 350.3125 218.25 350.3125 220.64648438 352.13378906 C222.25 354.3125 222.25 354.3125 222.859375 357.5625 C222.0315491 362.65681321 219.73318362 365.39998454 216.5 369.3125 C215.91089844 370.05306641 215.32179688 370.79363281 214.71484375 371.55664062 C212.90847861 373.82136608 211.08080474 376.0675132 209.25 378.3125 C208.22227694 379.59240171 207.19613825 380.87357785 206.171875 382.15625 C204.70777059 383.98960783 203.24248132 385.82182981 201.77026367 387.64868164 C198.03630045 392.28881027 194.41198771 397.00507387 190.8125 401.75 C185.95869491 408.14627855 180.96493517 414.40735899 175.86816406 420.61132812 C171.72532416 425.67225594 167.7971166 430.85886802 163.95703125 436.15234375 C162.25 438.3125 162.25 438.3125 160.25 439.3125 C157.01119319 439.59413537 154.88329909 439.62059145 151.9375 438.1875 C149.52685714 435.50900793 149.47702016 433.94034676 149.25 430.3125 C149.91236186 426.61720797 150.9499625 423.04815816 151.99609375 419.4453125 C152.43103905 417.89322586 152.43103905 417.89322586 152.87477112 416.30978394 C153.80077201 413.01562538 154.7438651 409.72664554 155.6875 406.4375 C156.31949372 404.20084105 156.95036621 401.96386495 157.58007812 399.7265625 C159.12374178 394.25146585 160.68145553 388.78051729 162.25 383.3125 C160.9182373 383.3439209 160.9182373 383.3439209 159.55957031 383.37597656 C156.25705545 383.44425677 152.9552933 383.4943487 149.65234375 383.53222656 C148.22448879 383.55230982 146.79671575 383.57958252 145.36914062 383.61425781 C143.31359632 383.66292669 141.25914145 383.68549967 139.203125 383.703125 C137.96723633 383.72407227 136.73134766 383.74501953 135.45800781 383.76660156 C132.25 383.3125 132.25 383.3125 129.81542969 381.78808594 C126.96921245 377.28704995 127.83077287 373.22269938 128.91867065 368.26571655 C129.86212954 364.58946435 130.88519082 360.94021162 131.93359375 357.29296875 C132.31322851 355.94420359 132.69196215 354.59518449 133.06983948 353.2459259 C134.06143793 349.71488477 135.06553702 346.18751902 136.07226562 342.6607666 C137.09585853 339.06580271 138.10676287 335.46727535 139.11914062 331.86914062 C144.88710925 311.40117225 144.88710925 311.40117225 146.25 307.3125 C115.56 307.3125 84.87 307.3125 53.25 307.3125 C52.92 309.9525 52.59 312.5925 52.25 315.3125 C51.78089656 317.15974672 51.26745096 318.99700135 50.6875 320.8125 C50.41808594 321.6684375 50.14867187 322.524375 49.87109375 323.40625 C49.66613281 324.0353125 49.46117187 324.664375 49.25 325.3125 C50.00310959 325.30139694 50.75621918 325.29029388 51.53215027 325.27885437 C58.63840453 325.17856253 65.74441263 325.10249009 72.85117626 325.05343914 C76.50468893 325.02737305 80.1576156 324.99203224 83.81079102 324.93530273 C87.33808948 324.88087235 90.86482527 324.85105698 94.39251137 324.83811378 C96.38956402 324.82441361 98.38639106 324.78539706 100.38310242 324.74601746 C110.48535187 324.74289255 110.48535187 324.74289255 113.60424805 327.63378906 C115.25 330.3125 115.25 330.3125 115.4140625 333.66015625 C113.95291445 338.24463083 111.72782088 341.13796242 108.625 344.75 C107.80467285 345.72851929 107.80467285 345.72851929 106.96777344 346.72680664 C105.88645137 348.01372092 104.80001168 349.29635596 103.70800781 350.57421875 C102.48505079 352.03226531 101.32426796 353.54215161 100.1796875 355.0625 C99.62539063 355.784375 99.07109375 356.50625 98.5 357.25 C98.05140625 357.85714844 97.6028125 358.46429688 97.140625 359.08984375 C95.25 360.3125 95.25 360.3125 91.4296875 360.09375 C88.87347841 359.99712859 87.66076981 360.02734088 85.5390625 361.50024414 C83.91611095 363.20900515 82.51862957 364.97512101 81.125 366.875 C80.6196875 367.48408203 80.114375 368.09316406 79.59375 368.72070312 C78.1835887 370.56131421 77.09073218 372.14956654 76.25 374.3125 C77.08381934 377.89760805 77.08381934 377.89760805 78.25 381.3125 C76.54825187 386.12476943 73.41381779 390.05336705 70.3125 394.0625 C69.88259766 394.63871094 69.45269531 395.21492188 69.00976562 395.80859375 C64.79702676 401.29346469 64.79702676 401.29346469 61.25 402.3125 C60.115625 402.23386719 58.98125 402.15523438 57.8125 402.07421875 C54.07152563 401.94647727 54.07152563 401.94647727 51.5625 404.83203125 C50.76811461 405.91276486 49.99756175 407.0113642 49.25 408.125 C48.84394531 408.67220703 48.43789063 409.21941406 48.01953125 409.78320312 C46.71291694 411.56056395 46.71291694 411.56056395 45.25 414.3125 C45.58 415.3025 45.91 416.2925 46.25 417.3125 C46.73768289 421.71213383 46.59204909 423.76138416 44.23046875 427.56640625 C43.3161655 428.68314322 42.38404705 429.78545855 41.4375 430.875 C40.42012521 432.10509861 39.40321081 433.33557811 38.38671875 434.56640625 C37.86384277 435.18789551 37.3409668 435.80938477 36.80224609 436.44970703 C34.38415852 439.35156425 32.07057726 442.33255814 29.75 445.3125 C28.83910375 446.47309762 27.92764289 447.63325232 27.015625 448.79296875 C26.56251953 449.36966309 26.10941406 449.94635742 25.64257812 450.54052734 C24.21522681 452.35674681 22.78735481 454.17255591 21.359375 455.98828125 C20.8842749 456.59260986 20.4091748 457.19693848 19.91967773 457.81958008 C18.98473039 459.00856298 18.04935703 460.19721103 17.11352539 461.38549805 C13.89816756 465.47230254 10.7258682 469.59014134 7.58984375 473.73828125 C5.45627492 476.24506912 4.20717235 476.31725863 0.875 476.6875 C-2.75 476.3125 -2.75 476.3125 -5.25 474.3125 C-8.31255382 468.18739236 -5.12750731 460.44927053 -3.34155273 454.14257812 C-2.9755748 452.82409378 -2.9755748 452.82409378 -2.60220337 451.47897339 C-1.80137534 448.59903661 -0.99255319 445.72141222 -0.18359375 442.84375 C0.37597952 440.83750002 0.93504906 438.83110948 1.49363708 436.82458496 C2.95997453 431.56251123 4.43311905 426.30236707 5.90771484 421.04260254 C7.41331524 415.66757662 8.91243477 410.29074416 10.41210938 404.9140625 C13.35175184 394.37843554 16.29859258 383.84483674 19.25 373.3125 C18.09488167 373.32249275 18.09488167 373.32249275 16.91642761 373.33268738 C9.66232217 373.39277629 2.40833725 373.43846289 -4.84595203 373.46793652 C-8.57555055 373.48359859 -12.30494358 373.50484629 -16.03442383 373.53881836 C-19.63299774 373.57139319 -23.23137389 373.58934894 -26.83008385 373.59713173 C-28.20364178 373.60267868 -29.57718878 373.61351052 -30.95066261 373.62969017 C-32.87300707 373.65143676 -34.79555015 373.65272517 -36.71801758 373.65307617 C-37.81277908 373.65973801 -38.90754059 373.66639984 -40.03547668 373.67326355 C-42.75 373.3125 -42.75 373.3125 -44.5644989 372.16621399 C-46.7475631 368.75265608 -46.94114072 365.50104883 -46.30752563 361.56111145 C-46.04184784 360.62417953 -45.77617004 359.68724762 -45.50244141 358.72192383 C-45.20528229 357.65093948 -44.90812317 356.57995514 -44.60195923 355.47651672 C-44.27182831 354.33571152 -43.94169739 353.19490631 -43.6015625 352.01953125 C-43.10358658 350.24505867 -43.10358658 350.24505867 -42.59555054 348.43473816 C-41.53361209 344.66144268 -40.45447549 340.89331148 -39.375 337.125 C-38.65513067 334.57648778 -37.93636774 332.02766277 -37.21875 329.47851562 C-32.14056726 311.48420179 -32.14056726 311.48420179 -30.75 307.3125 C-47.91 307.3125 -65.07 307.3125 -82.75 307.3125 C-83.41 310.9425 -84.07 314.5725 -84.75 318.3125 C-85.43288403 321.026782 -86.13549994 323.70226884 -86.9140625 326.38671875 C-87.20946426 327.42878227 -87.20946426 327.42878227 -87.51083374 328.49189758 C-88.12738097 330.66267997 -88.75102361 332.83134291 -89.375 335 C-89.79995593 336.49140069 -90.22443847 337.98293636 -90.6484375 339.47460938 C-91.67684933 343.08881636 -92.71161976 346.70114499 -93.75 350.3125 C-92.8621582 350.29678955 -91.97431641 350.2810791 -91.05957031 350.26489258 C-87.75710179 350.21368314 -84.4550568 350.17611144 -81.15234375 350.14770508 C-79.72454154 350.13264319 -78.2967854 350.11218938 -76.86914062 350.08618164 C-74.81368627 350.04968158 -72.75884495 350.03274834 -70.703125 350.01953125 C-69.46723633 350.0038208 -68.23134766 349.98811035 -66.95800781 349.97192383 C-63.50583597 350.33842152 -62.09821157 350.78302172 -59.75 353.3125 C-59.12791476 357.99249515 -59.11539804 360.19244216 -61.4453125 364.3046875 C-62.24710938 365.25601562 -63.04890625 366.20734375 -63.875 367.1875 C-64.79634617 368.310564 -65.71687189 369.43430142 -66.63671875 370.55859375 C-67.1373584 371.15784668 -67.63799805 371.75709961 -68.15380859 372.37451172 C-71.0840407 375.93220252 -73.87193557 379.60143517 -76.6875 383.25 C-83.11512936 391.51793376 -89.58443767 399.75281193 -96.06347656 407.98046875 C-97.39690437 409.67414907 -98.72971263 411.36831569 -100.0625 413.0625 C-100.50223145 413.6205835 -100.94196289 414.17866699 -101.39501953 414.75366211 C-104.11161121 418.20722727 -106.8051176 421.67753046 -109.484375 425.16015625 C-110.11947998 425.98354492 -110.75458496 426.80693359 -111.40893555 427.65527344 C-112.66101585 429.27975008 -113.90997005 430.90664184 -115.15551758 432.53613281 C-115.72423584 433.2731543 -116.2929541 434.01017578 -116.87890625 434.76953125 C-117.38494385 435.42928955 -117.89098145 436.08904785 -118.41235352 436.76879883 C-120.41144094 439.0758311 -121.5632195 439.29625822 -124.625 439.5625 C-128.1457881 439.28083695 -129.39837188 438.92542013 -131.75 436.3125 C-133.64771189 430.35882392 -131.68057056 425.21969574 -130.00390625 419.4453125 C-129.56896095 417.89322586 -129.56896095 417.89322586 -129.12522888 416.30978394 C-128.19922799 413.01562538 -127.2561349 409.72664554 -126.3125 406.4375 C-125.68050628 404.20084105 -125.04963379 401.96386495 -124.41992188 399.7265625 C-122.87625822 394.25146585 -121.31854447 388.78051729 -119.75 383.3125 C-120.6378418 383.33344727 -121.52568359 383.35439453 -122.44042969 383.37597656 C-125.74294455 383.44425677 -129.0447067 383.4943487 -132.34765625 383.53222656 C-133.77551121 383.55230982 -135.20328425 383.57958252 -136.63085938 383.61425781 C-138.68640368 383.66292669 -140.74085855 383.68549967 -142.796875 383.703125 C-144.03276367 383.72407227 -145.26865234 383.74501953 -146.54199219 383.76660156 C-149.75 383.3125 -149.75 383.3125 -152.18457031 381.78808594 C-155.07519002 377.21683144 -154.15181645 373.13499925 -153.04251099 368.10357666 C-152.03889951 364.17729006 -150.95627831 360.28038377 -149.84765625 356.3828125 C-149.44564548 354.94195624 -149.04449044 353.50086098 -148.64414978 352.05953979 C-147.59340221 348.28646483 -146.52999467 344.5170697 -145.46417236 340.74822998 C-144.59406115 337.66294942 -143.7332485 334.57511106 -142.87285709 331.48710823 C-141.84684989 327.80560531 -140.81652683 324.12531599 -139.78515625 320.4453125 C-139.58850939 319.74302647 -139.39186253 319.04074043 -139.18925667 318.317173 C-138.63379345 316.33724694 -138.07537945 314.35818021 -137.51586914 312.37939453 C-137.03954796 310.6901738 -137.03954796 310.6901738 -136.55360413 308.96682739 C-135.75 306.3125 -135.75 306.3125 -134.75 304.3125 C-135.58096191 304.1568457 -135.58096191 304.1568457 -136.42871094 303.99804688 C-141.97609713 302.87494201 -146.89599866 301.24526514 -152 298.8125 C-153.0974353 298.29018799 -153.0974353 298.29018799 -154.21704102 297.75732422 C-170.96013495 289.4688084 -183.42501157 276.29289766 -192.75 260.3125 C-193.24371094 259.46945312 -193.73742187 258.62640625 -194.24609375 257.7578125 C-205.15223959 237.57634637 -207.50720268 211.18370876 -201.0703125 189.23046875 C-192.73096057 163.62955504 -176.33438568 143.85341096 -152.35546875 131.57421875 C-138.92804344 125.38993029 -125.50367602 122.47076888 -110.75 123.3125 C-110.7814209 122.27246826 -110.7814209 122.27246826 -110.81347656 121.21142578 C-111.42506226 97.79698345 -111.42506226 97.79698345 -109 86.875 C-108.84305664 86.14361816 -108.68611328 85.41223633 -108.52441406 84.65869141 C-107.75419556 81.58594831 -107.04951872 79.60495738 -104.76171875 77.37109375 C-102.09349067 75.96703587 -100.72616543 75.73178479 -97.75 76.3125 C-94.875 78.3125 -94.875 78.3125 -92.75 81.3125 C-92.81164468 84.94953601 -93.41168771 87.93925753 -94.2746582 91.44213867 C-95.9288896 98.6370857 -95.98161186 105.58128164 -95.875 112.9375 C-95.86597656 114.13246094 -95.85695313 115.32742187 -95.84765625 116.55859375 C-95.82431077 119.47677834 -95.79156656 122.39452776 -95.75 125.3125 C-94.58726563 125.42464844 -93.42453125 125.53679687 -92.2265625 125.65234375 C-87.98680934 126.18813673 -84.10535555 127.34082655 -80.125 128.875 C-79.43623779 129.14038574 -78.74747559 129.40577148 -78.0378418 129.67919922 C-64.82375817 134.94663772 -54.67027645 142.25323544 -44.75 152.3125 C-43.60724609 153.43978516 -43.60724609 153.43978516 -42.44140625 154.58984375 C-36.58896449 160.71608396 -32.65716884 167.86904148 -28.75 175.3125 C-28.27949219 176.18777344 -27.80898437 177.06304687 -27.32421875 177.96484375 C-24.93847004 182.76093651 -24.21961163 185.95614071 -25.75 191.3125 C-28.284112 193.846612 -30.21230017 193.70507035 -33.6796875 193.96875 C-37.09607202 192.88582057 -38.01520798 190.33361075 -39.75 187.3125 C-40.8845219 185.05667906 -41.98795955 182.78500129 -43.0625 180.5 C-46.00079832 174.47976374 -49.2708864 169.3003973 -53.75 164.3125 C-54.47832031 163.49136719 -55.20664063 162.67023438 -55.95703125 161.82421875 C-69.02863938 147.90791866 -87.92725265 139.03020494 -107.078125 138.02734375 C-129.02576038 137.37100092 -148.27254734 144.5494433 -165.015625 158.71484375 C-179.4306959 172.4091611 -188.46551384 191.78968139 -189.16967773 211.72363281 C-189.3521762 233.75344762 -181.77350023 253.96172002 -166.625 270 C-147.20284831 288.61625328 -124.56048607 292.745423 -98.6015625 292.82421875 C-96.49163795 292.84109674 -94.38172326 292.85925109 -92.27182007 292.87861633 C-86.76467981 292.92578384 -81.25757956 292.95580717 -75.75030518 292.98205566 C-70.11210229 293.01203038 -64.47403683 293.05850191 -58.8359375 293.10351562 C-47.80736406 293.18916971 -36.77876203 293.25668206 -25.75 293.3125 C-25.61559509 292.70545731 -25.48119019 292.09841461 -25.3427124 291.47297668 C-25.16484192 290.67083237 -24.98697144 289.86868805 -24.80371094 289.04223633 C-24.62805603 288.24956863 -24.45240112 287.45690094 -24.27142334 286.64021301 C-21.93416447 276.20633428 -19.09881752 265.98046096 -15.96850586 255.76123047 C-14.34329603 250.41469761 -12.87762442 245.05579691 -11.5625 239.625 C-7.47654665 222.90973629 -7.47654665 222.90973629 -3.75 220.3125 C-0.56886292 219.92481995 -0.56886292 219.92481995 3.41186523 219.90844727 C4.13739594 219.90158401 4.86292664 219.89472076 5.61044312 219.88764954 C8.01002546 219.86934046 10.40895651 219.87322478 12.80859375 219.87890625 C14.47624424 219.87434623 16.14389284 219.86904119 17.8115387 219.86302185 C21.30778636 219.85408258 24.80380571 219.85652286 28.30004883 219.86645508 C32.78051448 219.87794293 37.2601918 219.8577408 41.74055386 219.82853794 C45.1849722 219.8101907 48.62920114 219.81046546 52.07365608 219.81617546 C53.72547575 219.81632887 55.37730809 219.81026801 57.02908134 219.79788399 C59.33947031 219.78300381 61.64839701 219.79362748 63.95874023 219.81079102 C65.93039406 219.81104027 65.93039406 219.81104027 67.94187927 219.81129456 C71.76620218 220.39070855 72.96359987 221.25249391 75.25 224.3125 C76.2101967 230.9092082 72.90157726 238.68444111 71.0625 244.9375 C70.42520599 247.1518043 69.78983299 249.36666226 69.15625 251.58203125 C68.8365625 252.69916504 68.516875 253.81629883 68.1875 254.96728516 C66.47829524 261.06611942 64.91961385 267.20451774 63.38012695 273.34814453 C62.14763911 278.18242947 60.75186894 282.91617264 59.15893555 287.64526367 C58.80083298 288.71097092 58.44273041 289.77667816 58.07377625 290.87467957 C57.666007 292.08140068 57.666007 292.08140068 57.25 293.3125 C75.34064495 293.27518522 93.43106836 293.21510884 111.52154446 293.12859726 C119.92297587 293.08893982 128.32431541 293.0564803 136.72583008 293.04150391 C144.05627563 293.02841793 151.38651791 293.00127846 158.71684891 292.95788693 C162.59128003 292.93542668 166.46546192 292.91957991 170.33996391 292.92061615 C195.8724762 292.91993962 219.51930688 292.11396848 238.6953125 273 C251.25986383 259.7822457 258.00719681 242.49494618 257.71826172 224.24536133 C256.90844324 206.91906183 249.05768582 190.01203331 236.25 178.3125 C225.23887956 169.34504351 211.46770901 162.39040592 197.0546875 162.1015625 C196.09175781 162.07320312 195.12882812 162.04484375 194.13671875 162.015625 C192.12128561 161.96334398 190.10562769 161.91913293 188.08984375 161.8828125 C187.12949219 161.851875 186.16914063 161.8209375 185.1796875 161.7890625 C184.30554199 161.76924316 183.43139648 161.74942383 182.53076172 161.72900391 C180.25 161.3125 180.25 161.3125 178.45141602 160.10058594 C176.82058283 157.67339183 176.96575071 156.13261439 177.09765625 153.2265625 C177.12851318 152.21940186 177.15937012 151.21224121 177.19116211 150.17456055 C177.25122437 148.57221558 177.25122437 148.57221558 177.3125 146.9375 C177.57344536 131.81050872 174.90537734 119.81362107 164.37109375 108.25 C159.58267906 103.76146583 154.24606166 100.89440037 148.25 98.3125 C147.57710938 97.99152344 146.90421875 97.67054687 146.2109375 97.33984375 C136.15017533 93.16404478 123.01221026 94.08473262 113.02734375 97.98828125 C99.82008659 104.2854123 92.98251305 112.00084266 86.828125 125.04296875 C83.38394919 132.17855081 83.38394919 132.17855081 81.25 134.3125 C75.12854251 134.7659413 75.12854251 134.7659413 72.3125 133.3125 C70.15644549 129.25404444 70.73726146 125.18338528 71.90625 120.91796875 C75.39999082 111.35535918 82.34735494 99.95455759 91.1875 94.5 C93.3846378 92.57194664 93.3846378 92.57194664 93.58203125 90.41015625 C92.92001037 71.46374908 77.46810338 51.87639037 64.57421875 39.3984375 C45.85939142 22.60227314 20.14568772 14.30612105 -4.69580078 15.19873047 C-9.79750793 15.48128283 -14.74864677 16.30317128 -19.75 17.3125 C-21.13638672 17.55226563 -21.13638672 17.55226563 -22.55078125 17.796875 C-46.73947322 22.74836381 -67.41073158 39.1285705 -81.19140625 59.09765625 C-82.75 61.3125 -82.75 61.3125 -84.75 63.3125 C-89.8739912 63.88183236 -89.8739912 63.88183236 -92.75 63.3125 C-94.8125 61.1875 -94.8125 61.1875 -95.75 58.3125 C-94.73170704 45.27120414 -79.88544386 32.710877 -70.52734375 24.53515625 C-50.45232488 8.46949417 -25.67982284 -0.13447951 0 0 Z " fill="#0A0F3F" transform="translate(221.75,17.6875)"/>
<path d="M0 0 C17.82 0 35.64 0 54 0 C52.87528345 8.99773243 52.87528345 8.99773243 51.6171875 13.37109375 C51.34060303 14.34449707 51.06401855 15.31790039 50.77905273 16.32080078 C50.48071533 17.34931152 50.18237793 18.37782227 49.875 19.4375 C49.23820036 21.67315404 48.60148395 23.9088318 47.96484375 26.14453125 C47.47540283 27.85116943 47.47540283 27.85116943 46.97607422 29.59228516 C45.44665122 34.9318765 43.93912548 40.27753314 42.4375 45.625 C42.00449585 47.16450317 42.00449585 47.16450317 41.56274414 48.73510742 C39.2937933 56.84598404 37.15832504 64.98775756 35.0715332 73.1472168 C33.74185038 78.30682136 32.28532369 83.37496918 30.625 88.4375 C29.11263147 93.20146088 28.43596256 97.01766932 29 102 C31.63790734 104.63790734 32.86849082 104.27101936 36.55126953 104.31884766 C37.71232208 104.33871735 38.87337463 104.35858704 40.0696106 104.37905884 C41.32796722 104.39061005 42.58632385 104.40216125 43.8828125 104.4140625 C45.16735321 104.43342865 46.45189392 104.4527948 47.77536011 104.4727478 C51.19147535 104.52413941 54.60763007 104.56372714 58.02392578 104.60089111 C61.50953999 104.64088698 64.99498903 104.69199938 68.48046875 104.7421875 C75.3201919 104.83902975 82.16002096 104.9234078 89 105 C85.21875 110.7578125 85.21875 110.7578125 83.25 112.9375 C81.39948831 115.99084429 81.74998908 118.49984714 82 122 C82.32883179 122.99906372 82.32883179 122.99906372 82.66430664 124.01831055 C82.77508545 124.67226807 82.88586426 125.32622559 83 126 C80.73919862 129.0478127 78.35415545 131.8200879 75.78320312 134.60351562 C74.27174712 136.36464035 73.01059687 137.90795678 72 140 C72.79147446 143.58008295 72.79147446 143.58008295 74 147 C72.29825187 151.81226943 69.16381779 155.74086705 66.0625 159.75 C65.63259766 160.32621094 65.20269531 160.90242187 64.75976562 161.49609375 C60.54702676 166.98096469 60.54702676 166.98096469 57 168 C55.86433594 167.90589844 54.72867188 167.81179688 53.55859375 167.71484375 C49.75459867 167.60920201 49.75459867 167.60920201 47.41015625 170.87890625 C46.19218245 172.71286679 45.05147092 174.58081917 43.91601562 176.46679688 C42.72265625 178.25390625 42.72265625 178.25390625 40 181 C38.03808594 181.05175781 38.03808594 181.05175781 35.92578125 180.67578125 C32.13022303 179.56520117 32.13022303 179.56520117 29.8203125 181.4140625 C28.98113281 182.50847656 28.98113281 182.50847656 28.125 183.625 C27.15433594 184.84896484 27.15433594 184.84896484 26.1640625 186.09765625 C25.44992188 187.05542969 24.73578125 188.01320313 24 189 C23.09357952 190.16725851 22.18460144 191.33253422 21.2734375 192.49609375 C18.81949072 195.64233353 16.40268628 198.81447127 14 202 C12.70905643 199.41811286 13.21220609 198.69810804 14.07421875 195.9921875 C14.32768066 195.17830566 14.58114258 194.36442383 14.84228516 193.52587891 C15.12120605 192.65108887 15.40012695 191.77629883 15.6875 190.875 C17.66716916 184.49225387 19.55643065 178.12174083 21.125 171.625 C23.17588452 163.1739232 25.43159727 154.78577683 28.140625 146.51953125 C30.96636176 137.92490851 30.96636176 137.92490851 31 129 C29.91317512 127.20072644 29.91317512 127.20072644 28 126 C25.19566023 125.52555299 25.19566023 125.52555299 21.96801758 125.56762695 C20.72695755 125.54783279 19.48589752 125.52803864 18.20722961 125.50764465 C16.85299837 125.50087491 15.49876547 125.49442804 14.14453125 125.48828125 C12.75874739 125.47143595 11.37297882 125.45328591 9.98722839 125.43388367 C6.34258808 125.38636062 2.69800977 125.35656656 -0.94683838 125.33044434 C-4.66715746 125.30065017 -8.38726284 125.254116 -12.10742188 125.20898438 C-19.40484194 125.12292522 -26.7022775 125.05559197 -34 125 C-33.6976946 123.43261249 -33.3922141 121.86583722 -33.08544922 120.29931641 C-32.91568573 119.42675201 -32.74592224 118.55418762 -32.5710144 117.65518188 C-31.6737011 113.48273016 -30.40334057 109.44362708 -29.125 105.375 C-27.0534224 98.6398709 -25.18055636 91.91629801 -23.53515625 85.06420898 C-22.24797655 79.79579816 -20.71514726 74.62170458 -19.125 69.4375 C-16.89676138 62.16759016 -14.88213522 54.86696833 -13 47.5 C-10.92609166 39.38240201 -8.68935654 31.3419391 -6.1796875 23.34765625 C-3.78326181 15.61373698 -1.97752318 7.91009271 0 0 Z " fill="#F4B434" transform="translate(226,252)"/>
<path d="M0 0 C7.59 0 15.18 0 23 0 C19.67093602 14.98078789 15.77880668 29.83671168 11.58129883 44.59692383 C10.77902408 47.91350944 10.63906596 50.60722005 11 54 C13.67848546 56.67848546 15.13970861 56.30504006 18.8828125 56.4140625 C20.04941406 56.45273437 21.21601562 56.49140625 22.41796875 56.53125 C24.25294922 56.57765625 24.25294922 56.57765625 26.125 56.625 C27.35605469 56.66367187 28.58710938 56.70234375 29.85546875 56.7421875 C32.90349376 56.8366999 35.95150862 56.92225494 39 57 C37.28203695 60.57956532 35.19866893 63.48713617 32.75 66.625 C32.32541504 67.17115967 31.90083008 67.71731934 31.46337891 68.2800293 C30.51449918 69.49984934 29.56404751 70.71844767 28.61230469 71.93603516 C26.81300426 74.23937947 25.01946479 76.54714099 23.2265625 78.85546875 C19.82089768 83.23946629 16.41155296 87.62058341 13 92 C12 90 12 90 12.99609375 86.62109375 C13.4737323 85.2255906 13.95436696 83.83111045 14.4375 82.4375 C16.42242424 76.42424831 17.77151041 71.39251479 17 65 C14.20787489 62.20787489 11.54695711 62.64861925 7.8046875 62.5859375 C7.09724396 62.56657135 6.38980042 62.5472052 5.66091919 62.5272522 C3.39906915 62.46742348 1.1371683 62.42105899 -1.125 62.375 C-2.6575744 62.33682314 -4.19012728 62.29777158 -5.72265625 62.2578125 C-9.48159624 62.16171961 -13.24063668 62.07770151 -17 62 C-14.39826585 51.38308738 -11.61205726 40.83899305 -8.64990234 30.31738281 C-7.98601976 27.95015009 -7.32972307 25.58093447 -6.67578125 23.2109375 C-6.34888306 22.02733643 -6.34888306 22.02733643 -6.01538086 20.81982422 C-5.60540223 19.33464812 -5.19600486 17.84931138 -4.78735352 16.36376953 C-3.26986159 10.88125952 -1.63581076 5.45270254 0 0 Z " fill="#F0B134" transform="translate(101,325)"/>
<path d="M0 0 C7.59 0 15.18 0 23 0 C20.74868651 10.13091068 20.74868651 10.13091068 19.6328125 14.19921875 C19.38869629 15.09165283 19.14458008 15.98408691 18.89306641 16.90356445 C18.63960449 17.82226318 18.38614258 18.74096191 18.125 19.6875 C17.86251465 20.65067139 17.6000293 21.61384277 17.32958984 22.60620117 C16.17407976 26.82858343 15.00505632 31.04197044 13.71875 35.2265625 C11.73887511 41.71772375 10.31974963 47.19749628 11 54 C13.67848546 56.67848546 15.13970861 56.30504006 18.8828125 56.4140625 C20.04941406 56.45273437 21.21601563 56.49140625 22.41796875 56.53125 C24.25294922 56.57765625 24.25294922 56.57765625 26.125 56.625 C27.35605469 56.66367187 28.58710938 56.70234375 29.85546875 56.7421875 C32.90349376 56.8366999 35.95150862 56.92225494 39 57 C37.63296439 59.93730685 36.0531172 62.39179877 34.05859375 64.94140625 C33.47867676 65.68535645 32.89875977 66.42930664 32.30126953 67.19580078 C31.68622559 67.97681152 31.07118164 68.75782227 30.4375 69.5625 C29.81214355 70.36155762 29.18678711 71.16061523 28.54248047 71.98388672 C23.77644608 78.05699408 18.93978249 84.06703373 14 90 C12.2084454 86.4168908 14.4777907 81.94955062 15.52929688 78.20507812 C16.73356939 73.71108556 17.38415856 69.69855471 17 65 C14.20787489 62.20787489 11.54695711 62.64861925 7.8046875 62.5859375 C7.09724396 62.56657135 6.38980042 62.5472052 5.66091919 62.5272522 C3.39906915 62.46742348 1.1371683 62.42105899 -1.125 62.375 C-2.6575744 62.33682314 -4.19012728 62.29777158 -5.72265625 62.2578125 C-9.48159624 62.16171961 -13.24063668 62.07770151 -17 62 C-15.32507503 54.44486321 -13.50984963 47.00641655 -11.1875 39.625 C-8.54426822 31.04035939 -6.21540091 22.39540607 -4.00463867 13.68994141 C-3.77107666 12.77390137 -3.53751465 11.85786133 -3.296875 10.9140625 C-2.99281738 9.7067749 -2.99281738 9.7067749 -2.68261719 8.47509766 C-1.89480331 5.61856793 -0.93703857 2.81111571 0 0 Z " fill="#F0B134" transform="translate(383,325)"/>
<path d="M0 0 C8.67454949 6.34645349 15.09078548 14.63478716 17.1875 25.3125 C17.35379588 27.49615579 17.45267363 29.68553268 17.5 31.875 C17.55607422 33.57849609 17.55607422 33.57849609 17.61328125 35.31640625 C17.1875 38.3125 17.1875 38.3125 15.32421875 40.1875 C12.63790851 41.60186444 11.18305622 41.83672234 8.1875 41.3125 C6 40 6 40 4.1875 37.3125 C3.57289671 34.5969124 3.15812637 31.87530536 2.7265625 29.125 C1.18357453 21.074628 -3.15616317 15.92918866 -9.8125 11.3125 C-15.65927058 7.94074273 -22.19964445 7.17962036 -28.8125 8.3125 C-32.02275897 9.68152267 -34.9826 11.2285753 -37.98828125 13 C-41.2120146 14.49816654 -43.29705251 14.67091853 -46.8125 14.3125 C-49.25 12.75 -49.25 12.75 -50.8125 10.3125 C-51.1875 7 -51.1875 7 -49.8125 3.3125 C-35.94589859 -9.92874488 -15.89771488 -9.78950196 0 0 Z " fill="#0C1142" transform="translate(436.8125,210.6875)"/>
<path d="M0 0 C2 2 2 2 2.5 5.81640625 C2.40156723 9.4526767 2.14083597 9.85422618 -0.5625 12.65234375 C-1.69296314 13.43669225 -2.83996335 14.1975916 -4 14.9375 C-5.20506912 15.78917354 -6.40560156 16.6473017 -7.6015625 17.51171875 C-8.18711914 17.93114746 -8.77267578 18.35057617 -9.37597656 18.78271484 C-20.14518013 26.85476069 -26.69653227 40.97874439 -29 54 C-29.16823332 55.97738858 -29.31436074 57.95679185 -29.4375 59.9375 C-29.68955112 63.33049585 -29.84656989 64.75564835 -31.6875 67.6875 C-34.78469427 69.44536702 -36.49549702 69.65709431 -40 69 C-42.76453481 66.89022343 -43.79870322 65.18518613 -44.3828125 61.74609375 C-45.13568055 44.90694512 -36.90344642 26.79425268 -26.06640625 14.17578125 C-9.80857901 -2.9425737 -9.80857901 -2.9425737 0 0 Z " fill="#0C1243" transform="translate(194,67)"/>
<path d="M0 0 C3.47105699 0.3471057 4.76341933 0.77598743 7.125 3.3125 C8.0625 5.625 8.0625 5.625 8.125 8.3125 C6.07071932 13.06302408 3.33059775 16.99935729 0.1875 21.0625 C-0.24240234 21.63871094 -0.67230469 22.21492188 -1.11523438 22.80859375 C-3.39528031 25.77715128 -5.24454455 28.14772888 -8.875 29.3125 C-12.30408225 29.17253746 -14.17375435 28.94362109 -16.75 26.625 C-18.29483287 23.44951021 -18.36665388 21.84831078 -17.875 18.3125 C-16.04426631 15.30894081 -13.8019967 12.71416709 -11.5 10.0625 C-10.59507812 8.98355469 -10.59507812 8.98355469 -9.671875 7.8828125 C-3.33448592 0.36244412 -3.33448592 0.36244412 0 0 Z " fill="#0C103E" transform="translate(291.875,390.6875)"/>
<path d="M0 0 C0.81146484 0.00064453 1.62292969 0.00128906 2.45898438 0.00195312 C3.72645508 0.02612305 3.72645508 0.02612305 5.01953125 0.05078125 C5.84517578 0.04755859 6.67082031 0.04433594 7.52148438 0.04101562 C13.81804483 0.09559574 20.00586489 0.5021473 25.39453125 4.05078125 C26.83203125 6.36328125 26.83203125 6.36328125 26.70703125 9.98828125 C25.83203125 13.36328125 25.83203125 13.36328125 23.83203125 15.36328125 C21.58984375 15.59375 21.58984375 15.59375 18.95703125 15.55078125 C18.09335938 15.54433594 17.2296875 15.53789063 16.33984375 15.53125 C13.83203125 15.36328125 13.83203125 15.36328125 11.953125 14.875 C7.76045661 13.8635091 3.34321453 14.01115634 -0.953125 13.83984375 C-4.16796875 13.36328125 -4.16796875 13.36328125 -6.078125 12.04296875 C-7.93208852 9.18560561 -7.52021575 6.65091991 -7.16796875 3.36328125 C-5.03421489 0.49778965 -3.51146854 -0.01435152 0 0 Z " fill="#0B1041" transform="translate(219.16796875,57.63671875)"/>
</svg>
