<?xml version="1.0" encoding="UTF-8"?>
<svg version="1.1" xmlns="http://www.w3.org/2000/svg" width="64" height="64">
<path d="M0 0 C1.32 0 2.64 0 4 0 C4.125 5.75 4.125 5.75 3 8 C4.423125 7.9690625 4.423125 7.9690625 5.875 7.9375 C9 8 9 8 11 9 C11.66 7.35 12.32 5.7 13 4 C13.99 4 14.98 4 16 4 C15.835 4.763125 15.67 5.52625 15.5 6.3125 C14.90854604 9.03596236 14.90854604 9.03596236 15 12 C16.24296125 13.4719278 17.48807124 14.94222762 18.75390625 16.39453125 C21.9271887 20.48299233 22.34203116 24.98354305 22 30 C21.67 30.66 21.34 31.32 21 32 C25.29 32 29.58 32 34 32 C33.67 33.32 33.34 34.64 33 36 C12.54 36 -7.92 36 -29 36 C-29.33 34.68 -29.66 33.36 -30 32 C-26.04 31.67 -22.08 31.34 -18 31 C-18.061875 30.01 -18.12375 29.02 -18.1875 28 C-18.15749441 20.57361766 -14.91484234 15.31334307 -10 10 C-10.515625 9.401875 -11.03125 8.80375 -11.5625 8.1875 C-12.036875 7.465625 -12.51125 6.74375 -13 6 C-12.67 5.01 -12.34 4.02 -12 3 C-10.0625 3.75 -10.0625 3.75 -8 5 C-7.25 7.125 -7.25 7.125 -7 9 C-6.34 8.67 -5.68 8.34 -5 8 C-3.00039988 7.960008 -0.99952758 7.95653201 1 8 C0.67 7.34 0.34 6.68 0 6 C-0.039992 4.00039988 -0.04346799 1.99952758 0 0 Z M-10.62109375 16.765625 C-13.97156854 21.58727144 -14.61066571 25.19867577 -14 31 C-12.11680732 32.88319268 -8.88069863 32.13054285 -6.375 32.1328125 C-5.71290527 32.13376923 -5.05081055 32.13472595 -4.36865234 32.13571167 C-2.96647039 32.13639326 -1.5642853 32.13454042 -0.16210938 32.13037109 C1.99095713 32.12502246 4.14381502 32.1303167 6.296875 32.13671875 C7.65625046 32.13605796 9.0156258 32.13477679 10.375 32.1328125 C11.62023437 32.13168457 12.86546875 32.13055664 14.1484375 32.12939453 C16.89905431 32.32572127 16.89905431 32.32572127 18 31 C18.61066571 25.19867577 17.97156854 21.58727144 14.62109375 16.765625 C11.12208337 12.95465466 7.02593278 11.33765546 2 10.5 C-3.02593278 11.33765546 -7.12208337 12.95465466 -10.62109375 16.765625 Z " fill="#FFFFFF" transform="translate(30,17)"/>
<path d="M0 0 C15.84 0 31.68 0 48 0 C47.67 1.32 47.34 2.64 47 4 C31.82 4 16.64 4 1 4 C0.67 2.68 0.34 1.36 0 0 Z " fill="#FFFFFF" transform="translate(8,55)"/>
<path d="M0 0 C2.95662966 0.22743305 4.55033688 0.61235938 6.8125 2.5625 C7.204375 3.036875 7.59625 3.51125 8 4 C7.67 4.99 7.34 5.98 7 7 C6.01 7 5.02 7 4 7 C4 9.31 4 11.62 4 14 C2.68 14 1.36 14 0 14 C0 11.69 0 9.38 0 7 C-1.32 6.67 -2.64 6.34 -4 6 C-2.84826645 3.53199953 -1.95216435 1.95216435 0 0 Z " fill="#FFFFFF" transform="translate(30,0)"/>
<path d="M0 0 C8.58 0 17.16 0 26 0 C26.33 0.99 26.66 1.98 27 3 C17.76 3 8.52 3 -1 3 C-0.67 2.01 -0.34 1.02 0 0 Z " fill="#FFFFFF" transform="translate(19,61)"/>
<path d="M0 0 C-0.33 1.32 -0.66 2.64 -1 4 C-2.65 4.33 -4.3 4.66 -6 5 C-6 3.68 -6 2.36 -6 1 C-4 0 -4 0 0 0 Z " fill="#FFFFFF" transform="translate(56,30)"/>
<path d="M0 0 C2.97 0.495 2.97 0.495 6 1 C6 2.32 6 3.64 6 5 C4.35 4.67 2.7 4.34 1 4 C0.67 2.68 0.34 1.36 0 0 Z " fill="#FFFFFF" transform="translate(8,30)"/>
<path d="M0 0 C1.98 0 3.96 0 6 0 C6 0.99 6 1.98 6 3 C4.02 3 2.04 3 0 3 C0 2.01 0 1.02 0 0 Z " fill="#FFFFFF" transform="translate(5,43)"/>
<path d="M0 0 C1.98 0 3.96 0 6 0 C6 0.99 6 1.98 6 3 C4.02 3 2.04 3 0 3 C0 2.01 0 1.02 0 0 Z " fill="#FFFFFF" transform="translate(53,43)"/>
</svg>
