<?xml version="1.0" encoding="UTF-8"?>
<svg version="1.1" xmlns="http://www.w3.org/2000/svg" width="64" height="64">
<path d="M0 0 C1.32 0 2.64 0 4 0 C4.125 5.75 4.125 5.75 3 8 C4.423125 7.9690625 4.423125 7.9690625 5.875 7.9375 C9 8 9 8 11 9 C11.66 7.35 12.32 5.7 13 4 C13.99 4 14.98 4 16 4 C15.835 4.763125 15.67 5.52625 15.5 6.3125 C14.90854604 9.03596236 14.90854604 9.03596236 15 12 C16.62126675 14.03697617 18.28859531 16.03814584 20 18 C20.495 18.99 20.495 18.99 21 20 C24.04581269 20.46954261 24.04581269 20.46954261 27.5625 20.625 C29.35880859 20.73714844 29.35880859 20.73714844 31.19140625 20.8515625 C32.11824219 20.90054688 33.04507813 20.94953125 34 21 C34 22.32 34 23.64 34 25 C12.88 25 -8.24 25 -30 25 C-30 23.68 -30 22.36 -30 21 C-28.66195313 20.99613281 -28.66195313 20.99613281 -27.296875 20.9921875 C-23.77595119 20.87585742 -20.46120872 20.66561706 -17 20 C-14.23420292 17.35328664 -14.23420292 17.35328664 -13 14 C-12.01133494 12.65824027 -11.0161846 11.32103998 -10 10 C-10.515625 9.401875 -11.03125 8.80375 -11.5625 8.1875 C-12.036875 7.465625 -12.51125 6.74375 -13 6 C-12.67 5.01 -12.34 4.02 -12 3 C-10.0625 3.75 -10.0625 3.75 -8 5 C-7.25 7.125 -7.25 7.125 -7 9 C-6.34 8.67 -5.68 8.34 -5 8 C-3.00039988 7.960008 -0.99952758 7.95653201 1 8 C0.67 7.34 0.34 6.68 0 6 C-0.039992 4.00039988 -0.04346799 1.99952758 0 0 Z M-11 17.125 C-12.15686275 18.93995098 -12.15686275 18.93995098 -12 21 C-2.76 21 6.48 21 16 21 C13.81728951 15.54322378 13.05861261 14.57529369 8 12 C0.51365406 9.84127548 -5.63308627 11.42265417 -11 17.125 Z " fill="#FFFCFC" transform="translate(30,25)"/>
<path d="M0 0 C15.84 0 31.68 0 48 0 C48 1.32 48 2.64 48 4 C32.16 4 16.32 4 0 4 C0 2.68 0 1.36 0 0 Z " fill="#FFFCFC" transform="translate(8,52)"/>
<path d="M0 0 C8.58 0 17.16 0 26 0 C26 1.32 26 2.64 26 4 C17.42 4 8.84 4 0 4 C0 2.68 0 1.36 0 0 Z " fill="#FFFCFC" transform="translate(19,58)"/>
<path d="M0 0 C0.99 0.33 1.98 0.66 3 1 C3 3.31 3 5.62 3 8 C4.32 8 5.64 8 7 8 C5.92598892 10.91517292 5.22189824 12.77810176 3 15 C-0.22986927 14.83436568 -1.58162582 14.44722757 -3.8125 12.0625 C-5 10 -5 10 -5 8 C-3.68 8 -2.36 8 -1 8 C-1.020625 6.865625 -1.04125 5.73125 -1.0625 4.5625 C-1 1 -1 1 0 0 Z " fill="#FFFCFC" transform="translate(31,2)"/>
<path d="M0 0 C-0.33 1.32 -0.66 2.64 -1 4 C-2.65 4.33 -4.3 4.66 -6 5 C-6 3.68 -6 2.36 -6 1 C-4 0 -4 0 0 0 Z " fill="#FFFCFC" transform="translate(56,38)"/>
<path d="M0 0 C2.97 0.495 2.97 0.495 6 1 C6 2.32 6 3.64 6 5 C4.35 4.67 2.7 4.34 1 4 C0.67 2.68 0.34 1.36 0 0 Z " fill="#FFFCFC" transform="translate(8,38)"/>
</svg>
