<?xml version="1.0" encoding="UTF-8"?>
<svg version="1.1" xmlns="http://www.w3.org/2000/svg" width="64" height="64">
<path d="M0 0 C4.09550274 2.08498321 6.3008496 3.75977783 8 8 C8.6359083 12.05642561 8.92954126 16.18535769 7.01953125 19.9140625 C4.72837427 22.77624629 2.37835367 24.66558495 -1 26 C-3.56903076 26.24050903 -3.56903076 26.24050903 -6.50292969 26.22705078 C-7.60376892 26.22689972 -8.70460815 26.22674866 -9.83880615 26.22659302 C-11.02121887 26.21627045 -12.20363159 26.20594788 -13.421875 26.1953125 C-15.24455902 26.19106766 -15.24455902 26.19106766 -17.10406494 26.18673706 C-20.98614335 26.17553954 -24.86799129 26.15043534 -28.75 26.125 C-31.38150709 26.11496966 -34.01301779 26.10584391 -36.64453125 26.09765625 C-43.09643284 26.07560157 -49.54819995 26.04212804 -56 26 C-56 24.68 -56 23.36 -56 22 C-55.33236633 21.99191315 -54.66473267 21.98382629 -53.97686768 21.97549438 C-47.03386241 21.8894985 -40.09114429 21.78999678 -33.1484375 21.68261719 C-30.55668964 21.6443123 -27.96488834 21.60946213 -25.37304688 21.578125 C-21.64954517 21.53250783 -17.92641185 21.4745069 -14.203125 21.4140625 C-13.04258606 21.40251129 -11.88204712 21.39096008 -10.68634033 21.37905884 C-9.60552185 21.35918915 -8.52470337 21.33931946 -7.41113281 21.31884766 C-5.98550018 21.29886215 -5.98550018 21.29886215 -4.53106689 21.2784729 C-1.87038485 20.98573949 -0.24113063 20.44531001 2 19 C3.54137619 16.28424195 4.0272951 14.55954946 3.875 11.4375 C2.75092091 8.30613681 1.72235378 6.934304 -1 5 C-4.92282979 4.43959574 -7.02920675 4.31782096 -10.3125 6.625 C-12.22966311 9.32322956 -13.1324209 11.81887663 -14 15 C-14.99 15 -15.98 15 -17 15 C-18.29474635 11.11576096 -17.63372371 9.71300843 -16 6 C-10.93792244 0.30516275 -7.46605031 -0.91600281 0 0 Z " fill="#FFFFFF" transform="translate(56,8)"/>
<path d="M0 0 C6.70768928 -0.07628074 13.41526601 -0.12869663 20.12329102 -0.16479492 C22.40360698 -0.17984918 24.68389414 -0.20029708 26.96411133 -0.22631836 C30.24828209 -0.26284894 33.53206885 -0.27976039 36.81640625 -0.29296875 C37.83021866 -0.30845261 38.84403107 -0.32393646 39.88856506 -0.33988953 C45.71411701 -0.34126389 49.87543266 0.14807059 55 3 C57.25821013 5.69528306 57.91209844 7.48357833 58.5 10.9375 C57.79589925 15.25011712 56.03907145 16.88856971 53 20 C49.49433292 21.75283354 45.70580251 20.96271738 42 20 C38.6726215 17.00535935 37.50489859 14.41786263 37 10 C38.32 9.67 39.64 9.34 41 9 C41.474375 9.969375 41.94875 10.93875 42.4375 11.9375 C43.70193947 14.80477437 43.70193947 14.80477437 45 16 C47.33944736 15.71269945 49.6739143 15.38063221 52 15 C52.33 12.69 52.66 10.38 53 8 C49.93198102 5.31763688 48.01169736 4.61883456 43.95605469 4.56762695 C42.45495148 4.53793571 42.45495148 4.53793571 40.92352295 4.50764465 C39.85047913 4.50125473 38.7774353 4.49486481 37.671875 4.48828125 C36.56773254 4.47033005 35.46359009 4.45237885 34.32598877 4.43388367 C30.80069798 4.37971773 27.27554309 4.345864 23.75 4.3125 C21.35935607 4.27933257 18.96873008 4.24484345 16.578125 4.20898438 C10.71887185 4.1239876 4.85960125 4.05566421 -1 4 C-0.67 2.68 -0.34 1.36 0 0 Z " fill="#FFFFFF" transform="translate(1,38)"/>
<path d="M0 0 C5.57894737 3.15789474 5.57894737 3.15789474 7 6 C7.66739635 10.85292492 7.75085716 13.99885712 4.75 18 C0.55038228 21.05426743 -2.73603733 21.12379573 -7.859375 21.09765625 C-8.97441406 21.09443359 -10.08945312 21.09121094 -11.23828125 21.08789062 C-12.39714844 21.07951172 -13.55601563 21.07113281 -14.75 21.0625 C-15.92433594 21.05798828 -17.09867188 21.05347656 -18.30859375 21.04882812 C-21.20578072 21.03705094 -24.10286454 21.02060326 -27 21 C-27.33 19.68 -27.66 18.36 -28 17 C-27.22809326 16.97494385 -26.45618652 16.9498877 -25.66088867 16.92407227 C-22.16958819 16.80815993 -18.67856078 16.68541176 -15.1875 16.5625 C-13.97255859 16.52318359 -12.75761719 16.48386719 -11.50585938 16.44335938 C-10.34248047 16.40146484 -9.17910156 16.35957031 -7.98046875 16.31640625 C-6.90692139 16.27974854 -5.83337402 16.24309082 -4.72729492 16.20532227 C-1.90688447 16.10458153 -1.90688447 16.10458153 1 15 C2.38125018 12.23749964 2.19079306 10.05268901 2 7 C1.34 6.34 0.68 5.68 0 5 C-3.50260082 4.84516561 -3.50260082 4.84516561 -7 6 C-9.01041003 8.93449408 -9.01041003 8.93449408 -10 12 C-10.99 12 -11.98 12 -13 12 C-13.3125 9.3125 -13.3125 9.3125 -13 6 C-8.91278658 1.15987884 -6.34886627 -0.61046791 0 0 Z " fill="#FFFFFF" transform="translate(28,5)"/>
</svg>
