<?xml version="1.0" encoding="UTF-8"?>
<svg version="1.1" xmlns="http://www.w3.org/2000/svg" width="512" height="512">
<path d="M0 0 C8.36067555 7.70212919 13.28254473 17.58206145 17.59375 27.9765625 C18.2125 27.8115625 18.83125 27.6465625 19.46875 27.4765625 C30.1089532 25.77412999 41.01169166 27.37330019 49.96875 33.7265625 C57.78545282 40.30644525 63.51535531 47.80655355 65.59375 57.9765625 C65.63263349 60.30957183 65.6386135 62.64366051 65.59375 64.9765625 C66.8725 65.0590625 68.15125 65.1415625 69.46875 65.2265625 C75.45877928 65.899493 82.18415091 67.36267131 86.390625 71.92578125 C87.59375 73.9765625 87.59375 73.9765625 87.46875 76.9765625 C87.530625 78.4615625 87.530625 78.4615625 87.59375 79.9765625 C89.8236503 82.01146341 89.8236503 82.01146341 92.59375 83.9765625 C93.39373247 85.16579819 94.16327339 86.37590381 94.90625 87.6015625 C96.35946659 89.77908069 97.09759184 90.79720474 99.58203125 91.6953125 C100.28714844 91.829375 100.99226563 91.9634375 101.71875 92.1015625 C105.59375 92.9765625 105.59375 92.9765625 107.46875 95.1015625 C112.49640514 107.95001452 111.91945951 121.27424914 106.59375 133.9765625 C100.57631643 146.50991527 90.78318122 155.1970588 77.71875 160.04296875 C69.49656809 162.35545741 61.08209123 162.66417431 52.59375 162.9765625 C52.70716491 165.45676747 52.83389686 167.93501219 52.96875 170.4140625 C53.01515625 171.47463867 53.01515625 171.47463867 53.0625 172.55664062 C53.16655629 174.36895438 53.37294892 176.17474238 53.59375 177.9765625 C56.42274882 179.39106191 59.13572622 179.39787663 62.28125 179.7265625 C83.65378083 182.36489159 101.06592448 192.58507185 114.9375 208.69921875 C128.3793678 226.25119612 134.98500842 248.06720779 132.09765625 270.10546875 C130.77151363 278.97336152 128.60383573 286.8992673 124.59375 294.9765625 C123.93052734 296.35908203 123.93052734 296.35908203 123.25390625 297.76953125 C113.9662284 316.01042763 97.63467135 329.86489818 78.20385742 336.25878906 C70.40143312 338.68175641 63.04046343 340.11434369 54.84423828 340.18188477 C54.09233719 340.19178436 53.3404361 340.20168396 52.56575012 340.21188354 C50.09855214 340.24328645 47.63133496 340.2681714 45.1640625 340.29296875 C43.44627401 340.31355663 41.72849038 340.33455357 40.01071167 340.35594177 C35.50301055 340.4109731 30.99526515 340.46046542 26.48748779 340.50878906 C21.88224373 340.5591429 17.27706349 340.6147563 12.671875 340.66992188 C3.64588793 340.77727158 -5.3801547 340.87876746 -14.40625 340.9765625 C-14.46787827 341.87176605 -14.52950653 342.7669696 -14.59300232 343.68930054 C-14.67760208 344.86223663 -14.76220184 346.03517273 -14.84936523 347.24365234 C-14.9316185 348.4069809 -15.01387177 349.57030945 -15.09861755 350.76889038 C-16.18520979 362.09874733 -22.58383863 372.86797705 -31.05078125 380.296875 C-46.05725444 391.67241132 -60.50789638 392.30475266 -78.67578125 392.34765625 C-80.64491337 392.35663432 -82.61404484 392.36575636 -84.58317566 392.37501526 C-88.69243014 392.39143309 -92.80160377 392.39919351 -96.91088867 392.40209961 C-102.17466265 392.40750934 -107.43767872 392.44532652 -112.70123768 392.49084377 C-116.75987039 392.52056699 -120.81831829 392.52782196 -124.8770504 392.52882576 C-126.81834106 392.53302906 -128.75963223 392.54546776 -130.7008152 392.56634331 C-133.4102493 392.59319014 -136.11789357 392.58845542 -138.82739258 392.57592773 C-139.62592148 392.59076202 -140.42445038 392.60559631 -141.24717712 392.62088013 C-145.34914504 392.56685187 -147.18816779 392.14984436 -150.44242859 389.56410217 C-152.40625 386.9765625 -152.40625 386.9765625 -152.40625 384.9765625 C-159.00625 384.9765625 -165.60625 384.9765625 -172.40625 384.9765625 C-172.73625 386.2965625 -173.06625 387.6165625 -173.40625 388.9765625 C-176.30036297 391.83228129 -178.43043187 392.3594105 -182.43359375 392.375 C-183.39072266 392.37886719 -184.34785156 392.38273437 -185.33398438 392.38671875 C-186.32720703 392.37511719 -187.32042969 392.36351562 -188.34375 392.3515625 C-189.33310547 392.36316406 -190.32246094 392.37476563 -191.34179688 392.38671875 C-200.61389273 392.34930612 -200.61389273 392.34930612 -204.40625 388.9765625 C-204.73625 387.9865625 -205.06625 386.9965625 -205.40625 385.9765625 C-211.34625 385.6465625 -217.28625 385.3165625 -223.40625 384.9765625 C-223.73625 386.2965625 -224.06625 387.6165625 -224.40625 388.9765625 C-227.3452545 391.89570886 -229.57655786 392.40836461 -233.65625 392.4140625 C-248.76008479 391.97199904 -263.57431177 386.80850073 -274.40625 375.9765625 C-283.58997778 364.57793567 -289.58189993 353.63246955 -289.28125 338.7265625 C-289.32700829 335.1624663 -289.32700829 335.1624663 -290.40625 331.9765625 C-293.38220261 329.50416285 -296.3059127 328.1533114 -299.84765625 326.609375 C-305.49219678 324.0194541 -309.81981072 320.10219783 -314.40625 315.9765625 C-315.46779297 315.03876953 -315.46779297 315.03876953 -316.55078125 314.08203125 C-332.30608764 299.32114262 -342.88541804 276.33035483 -343.64453125 254.7734375 C-344.15798266 227.01482674 -337.32218893 203.49906696 -317.93530273 183.08984375 C-303.23945726 168.18516381 -282.10791044 156.45037568 -260.7578125 155.87890625 C-259.52804687 155.89050781 -258.29828125 155.90210938 -257.03125 155.9140625 C-255.78601563 155.92308594 -254.54078125 155.93210938 -253.2578125 155.94140625 C-251.84628906 155.95880859 -251.84628906 155.95880859 -250.40625 155.9765625 C-250.4376709 154.94438599 -250.4376709 154.94438599 -250.46972656 153.89135742 C-251.30956125 121.94840445 -244.53856519 93.11758616 -222.40625 68.9765625 C-221.56320313 68.05230469 -220.72015625 67.12804687 -219.8515625 66.17578125 C-200.77025386 46.18188828 -173.83809348 33.68633366 -146.17578125 32.69140625 C-133.92109909 32.44615208 -122.31658552 32.95400001 -110.40625 35.9765625 C-110.28378906 34.77644531 -110.16132813 33.57632813 -110.03515625 32.33984375 C-108.14990056 17.43156963 -97.63875315 4.34474977 -86.40625 -5.0234375 C-58.58848718 -24.12958776 -25.5194632 -21.4595486 0 0 Z " fill="#0A0F40" transform="translate(361.40625,69.0234375)"/>
<path d="M0 0 C2.7514897 2.19035608 5.37146194 4.46098754 7.96484375 6.8359375 C8.81691406 7.60679687 9.66898438 8.37765625 10.546875 9.171875 C23.25812202 21.23877309 35.11818745 39.2061167 37.3671875 57.0234375 C36.82834422 60.79010898 35.52686652 61.5714576 32.52734375 63.8359375 C24.45111088 70.61584322 17.54444255 80.51754232 14.96484375 90.8359375 C14.76140964 94.18775663 14.77939701 97.4841593 14.96484375 100.8359375 C16.22296875 101.0628125 17.48109375 101.2896875 18.77734375 101.5234375 C19.48503906 101.65105469 20.19273437 101.77867187 20.921875 101.91015625 C23.01395186 102.0190311 23.01395186 102.0190311 24.58203125 100.70703125 C26.33484696 98.33528344 27.23960995 95.97109543 28.27734375 93.2109375 C33.69116031 79.87720533 41.8643886 71.11915628 55 65.0234375 C59.32993985 63.28917964 63.3254833 62.28359509 67.96484375 61.8359375 C69.0115625 61.73023438 70.05828125 61.62453125 71.13671875 61.515625 C83.91876494 60.8504959 96.16384849 65.05824641 105.78515625 73.578125 C117.64252062 85.86048451 121.19522542 98.42422454 120.90234375 115.0859375 C120.88107422 116.09140625 120.85980469 117.096875 120.83789062 118.1328125 C120.82693359 119.091875 120.81597656 120.0509375 120.8046875 121.0390625 C120.78784912 121.91208008 120.77101074 122.78509766 120.75366211 123.68457031 C120.75613658 126.0503275 120.75613658 126.0503275 122.96484375 127.8359375 C124.91449338 128.12405785 124.91449338 128.12405785 127.15625 128.07421875 C128.43749756 128.09295044 128.43749756 128.09295044 129.74462891 128.11206055 C130.6629248 128.12406494 131.5812207 128.13606934 132.52734375 128.1484375 C152.21065455 128.76322515 168.70666405 135.18223441 182.61181641 149.38916016 C195.85577649 163.55078185 200.63574772 179.60364084 200.27734375 198.4921875 C199.5009574 216.73726682 190.82417969 232.37103526 177.96484375 244.9609375 C169.41143187 252.26913864 157.89602058 257.3910717 146.96484375 259.8359375 C146.25367905 260.00507156 145.54251434 260.17420563 144.80979919 260.34846497 C141.3139278 260.94746953 137.86884717 261.04711594 134.33227539 261.1081543 C133.20446907 261.13246773 133.20446907 261.13246773 132.05387878 261.15727234 C125.15510494 261.29692755 118.25512642 261.37547268 111.35524845 261.43619061 C106.72513001 261.4772482 102.097113 261.53785652 97.46801758 261.64526367 C92.98163269 261.74898417 88.49712457 261.80358181 84.00961113 261.82364845 C82.3033817 261.83957421 80.59722076 261.87278953 78.89167976 261.92380333 C65.52946001 262.30454345 65.52946001 262.30454345 61.63040161 258.64474487 C60.08745969 256.08495711 59.00994314 253.62819432 57.96484375 250.8359375 C48.3325007 237.92449895 36.96661661 233.76911693 21.96484375 229.8359375 C21.87847656 229.15789062 21.79210937 228.47984375 21.703125 227.78125 C20.1275726 217.34502219 16.20737024 207.78406001 7.96484375 200.8359375 C1.4152093 196.89068526 -4.84956884 193.68603488 -12.58203125 193.73828125 C-13.42636719 193.74150391 -14.27070313 193.74472656 -15.140625 193.74804688 C-16.01332031 193.75642578 -16.88601563 193.76480469 -17.78515625 193.7734375 C-18.67332031 193.77794922 -19.56148437 193.78246094 -20.4765625 193.78710938 C-22.66282954 193.7988635 -24.84895804 193.81529501 -27.03515625 193.8359375 C-27.25429687 193.23007812 -27.4734375 192.62421875 -27.69921875 192 C-34.52528587 173.96364379 -46.19053858 160.89162871 -63.84375 152.90625 C-66.42515428 152.04051588 -68.53295482 151.56308202 -71.1953125 151.203125 C-82.35134955 149.59343136 -82.35134955 149.59343136 -85.53027344 146.27539062 C-88.20420466 142.38195066 -90.08259352 138.10743782 -92.0390625 133.82324219 C-94.51021245 128.89305576 -98.34946668 124.88309575 -102.03515625 120.8359375 C-102.71964844 120.05863281 -103.40414062 119.28132812 -104.109375 118.48046875 C-117.31459875 104.29888835 -134.79368819 97.86142987 -153.03515625 92.8359375 C-157.522173 74.85139068 -153.04069285 54.13609952 -145.03515625 37.8359375 C-144.50921875 36.75699219 -143.98328125 35.67804688 -143.44140625 34.56640625 C-139.70596149 27.27379932 -135.51355155 20.92513159 -130.03515625 14.8359375 C-129.60605957 14.35769531 -129.17696289 13.87945312 -128.73486328 13.38671875 C-121.36833557 5.29471938 -113.51329254 -0.73252778 -104.03515625 -6.1640625 C-103.0709375 -6.72867188 -102.10671875 -7.29328125 -101.11328125 -7.875 C-69.54702526 -25.05332163 -28.88628815 -20.59588627 0 0 Z " fill="#BDDCFB" transform="translate(279.03515625,134.1640625)"/>
<path d="M0 0 C1.30988892 0.01244751 1.30988892 0.01244751 2.64624023 0.02514648 C16.72019796 0.38994513 28.17478856 5.59251113 38.5 15.125 C43.07160662 19.96939796 46.28663974 25.5027487 49.25 31.4375 C49.63285156 32.17355469 50.01570312 32.90960938 50.41015625 33.66796875 C51.1875 35.625 51.1875 35.625 51.25 39.4375 C49.49670467 41.95814087 47.52808174 44.03525666 45.3671875 46.21484375 C41.29892959 50.48576396 39.06723855 54.88514481 38.875 60.8125 C38.86901696 64.47691204 38.86901696 64.47691204 41.25 66.4375 C44.70769191 67.02092353 44.70769191 67.02092353 48.25 66.4375 C50.04288679 64.40105946 50.04288679 64.40105946 51.25 61.4375 C54.99361304 54.58359192 59.72948774 48.33808152 67.25 45.4375 C74.73990068 44.61775281 82.37707048 44.08887447 88.60546875 48.87890625 C96.71068148 56.56056867 98.50537925 62.5129105 98.81640625 73.46289062 C98.81284024 77.91973082 98.81284024 77.91973082 101.25 81.4375 C103.38978868 81.6412894 105.53890002 81.75131314 107.6875 81.8125 C119.97053473 82.59038371 127.90447476 86.29357613 136.25 95.4375 C142.67647077 103.74967229 144.20915299 112.0546689 143.25 122.4375 C140.94479147 132.52278732 135.77895329 139.8644212 127.66796875 146.11328125 C120.98561043 149.77292498 114.45621596 150.88183197 106.92236328 150.85400391 C105.59625786 150.86688194 105.59625786 150.86688194 104.24336243 150.88002014 C101.35226256 150.90489917 98.46150924 150.90944195 95.5703125 150.9140625 C93.55010952 150.92838607 91.52991626 150.94414551 89.50973511 150.96127319 C84.21409018 151.00297826 78.91850557 151.02807622 73.6227417 151.04876709 C65.12597578 151.08469523 56.62935831 151.14553687 48.13274765 151.20725632 C45.16630846 151.22634694 42.19990919 151.23807309 39.23342896 151.24868774 C37.42270825 151.25889617 35.61198838 151.26925378 33.80126953 151.27978516 C32.97527756 151.28082748 32.14928558 151.28186981 31.29826355 151.28294373 C28.02712837 151.30651465 25.37522551 151.39575816 22.25 152.4375 C21.26 155.4075 21.26 155.4075 20.25 158.4375 C13.65 158.4375 7.05 158.4375 0.25 158.4375 C-0.08 159.7575 -0.41 161.0775 -0.75 162.4375 C-3.64411297 165.29321879 -5.77418187 165.820348 -9.77734375 165.8359375 C-10.73447266 165.83980469 -11.69160156 165.84367188 -12.67773438 165.84765625 C-13.67095703 165.83605469 -14.66417969 165.82445312 -15.6875 165.8125 C-16.67685547 165.82410156 -17.66621094 165.83570313 -18.68554688 165.84765625 C-27.95764273 165.81024362 -27.95764273 165.81024362 -31.75 162.4375 C-32.08 161.4475 -32.41 160.4575 -32.75 159.4375 C-38.69 159.1075 -44.63 158.7775 -50.75 158.4375 C-51.74 156.4575 -52.73 154.4775 -53.75 152.4375 C-56.66414577 150.98042712 -59.37604225 151.2805172 -62.625 151.1875 C-75.14373933 150.51494991 -84.26886515 145.704765 -92.75 136.4375 C-101.61860753 125.3939274 -103.25308361 114.27005278 -101.75 100.4375 C-99.2848587 89.61231428 -92.18807788 81.39355787 -83.3125 75 C-73.52611284 69.0438023 -62.66417765 67.76986971 -51.46875 70.12890625 C-40.13674634 73.54853867 -30.82626404 80.94148559 -25.125 91.42578125 C-24.16735681 93.34854921 -23.24413917 95.28911427 -22.3671875 97.25 C-20.87125552 99.7309866 -20.87125552 99.7309866 -17.72265625 100.34375 C-14.69538418 100.71232557 -14.69538418 100.71232557 -12.3125 98.9375 C-10.57503874 96.15756199 -10.38688896 94.66095525 -11.09765625 91.47265625 C-15.32358877 78.28875898 -24.73914215 68.28848478 -36.80078125 61.83984375 C-41.04205453 59.82313235 -45.32596182 58.01331891 -49.75 56.4375 C-50.47605361 40.36347974 -47.34131463 28.99572468 -36.94140625 16.21484375 C-27.23008429 5.73630716 -14.20071055 -0.17559052 0 0 Z " fill="#5792D3" transform="translate(188.75,295.5625)"/>
<path d="M0 0 C9.4337473 7.12500201 18.73553911 17.25107167 20.84765625 29.3203125 C20.2071726 32.98021909 18.09648237 34.31307478 15.41015625 36.8203125 C10.86732942 42.42141148 7.76103389 47.35540538 8.41015625 54.8203125 C9.40015625 56.3053125 9.40015625 56.3053125 10.41015625 57.8203125 C12.38762747 58.18329186 12.38762747 58.18329186 14.53515625 58.0078125 C15.81390625 57.9459375 17.09265625 57.8840625 18.41015625 57.8203125 C18.83425781 56.95148438 19.25835937 56.08265625 19.6953125 55.1875 C24.02015264 46.68990201 27.93808587 39.92251896 37.41015625 36.8203125 C45.1428445 35.9688257 51.98959184 36.14247272 58.41015625 40.8203125 C63.30572999 44.93704497 66.38678033 49.75018475 68.41015625 55.8203125 C68.44034085 59.40796811 68.34339641 62.9838905 68.25 66.5703125 C68.13890605 69.96926858 68.13890605 69.96926858 70.41015625 72.8203125 C73.45488107 73.29635209 73.45488107 73.29635209 76.97265625 73.3203125 C82.28181726 73.57545623 86.51222581 74.30766787 91.44921875 76.1796875 C95.41667588 77.47582887 99.01646562 77.39208302 102.84765625 75.8203125 C103.62109375 75.3253125 103.62109375 75.3253125 104.41015625 74.8203125 C108.62782688 77.83293438 111.92540785 81.2631782 114.41015625 85.8203125 C114.41015625 86.8103125 114.41015625 87.8003125 114.41015625 88.8203125 C113.63671875 89.408125 113.63671875 89.408125 112.84765625 90.0078125 C110.99466344 91.90936404 110.99466344 91.90936404 111.79296875 95.41796875 C111.89633545 96.1344458 111.99970215 96.85092285 112.10620117 97.58911133 C113.67148516 109.07917588 113.30247615 119.05004317 106.41015625 128.8203125 C100.78617294 136.14741929 93.42050293 140.71149825 84.28833008 142.39624023 C65.53480654 144.16271977 65.53480654 144.16271977 59.5859375 139.703125 C57.97265625 136.9453125 57.97265625 136.9453125 56.70703125 133.90625 C52.72072576 124.42076404 42.44933695 117.93282658 33.41015625 113.8203125 C19.05060297 107.99610692 4.71533145 106.65608152 -10.26953125 111.1640625 C-12.58984375 111.8203125 -12.58984375 111.8203125 -15.58984375 111.8203125 C-15.93015625 110.69496094 -16.27046875 109.56960937 -16.62109375 108.41015625 C-26.11503282 77.94876594 -44.59615428 55.30166145 -72.90234375 40.2578125 C-75.12473927 39.09773981 -77.35433918 37.9550707 -79.58984375 36.8203125 C-80.05406894 25.15665472 -74.10708023 15.40954925 -66.58984375 6.8203125 C-48.61674784 -10.93735247 -21.24010247 -13.74562729 0 0 Z " fill="#5792D3" transform="translate(344.58984375,74.1796875)"/>
<path d="M0 0 C1.546875 0.49306641 1.546875 0.49306641 3.125 0.99609375 C21.82514192 7.49169593 35.67032838 19.73712926 46.1875 36.30859375 C47 38 47 38 47 41 C46.15179688 41.1959375 45.30359375 41.391875 44.4296875 41.59375 C27.70150845 45.85851653 13.28762548 54.57005216 3.59765625 69.25390625 C-2.29507533 79.38248889 -6.14290104 89.21646909 -6.625 100.9375 C-6.66367188 101.71673828 -6.70234375 102.49597656 -6.7421875 103.29882812 C-6.83544127 105.19887379 -6.91875962 107.09940278 -7 109 C-7.89460938 109.17015625 -8.78921875 109.3403125 -9.7109375 109.515625 C-24.8100966 112.54189569 -38.111305 117.61494169 -48 130 C-50.93808543 134.51110294 -53.48766752 139.24260446 -56 144 C-72.19210034 139.26546774 -83.62454911 124.56961933 -91.43359375 110.3984375 C-100.90612621 92.24040791 -102.64430342 72.25506196 -97 52.5 C-89.81237619 30.93712857 -75.98853038 14.74541656 -55.8125 4.5625 C-38.6120708 -3.79315873 -18.33009268 -6.28824013 0 0 Z " fill="#BDDBFA" transform="translate(132,242)"/>
<path d="M0 0 C7.75873409 5.59023128 14.47685711 13.19596707 16.828125 22.6328125 C17.31962888 25.7547723 17.49348824 28.77748771 17.5625 31.9375 C17.61857422 33.62746094 17.61857422 33.62746094 17.67578125 35.3515625 C17.25 38.3125 17.25 38.3125 15.38671875 40.18359375 C12.70042918 41.60285826 11.2476139 41.83708243 8.25 41.3125 C5.5528408 39.61714279 4.4691453 38.15255699 3.6640625 35.06640625 C3.34044427 33.32364251 3.02833145 31.57871087 2.7265625 29.83203125 C1.23440473 21.94316435 -3.1825904 15.44218374 -9.78515625 10.91796875 C-15.83024618 7.81314035 -22.08091597 7.16351923 -28.75 8.3125 C-31.98716595 9.67014778 -34.94551506 11.20569904 -37.9609375 13 C-41.16800284 14.50920722 -43.24520391 14.67472753 -46.75 14.3125 C-49.7083814 12.2883443 -50.56945813 10.93745263 -51.5625 7.5 C-50.21228676 2.20300959 -46.28114283 0.04043293 -41.75 -2.6875 C-28.11300134 -9.79792285 -12.8630651 -7.89374423 0 0 Z " fill="#0C1242" transform="translate(436.75,294.6875)"/>
<path d="M0 0 C2 1.6875 2 1.6875 3 4 C2.94140625 6.84375 2.94140625 6.84375 2 10 C-0.01393923 11.86015826 -1.82014957 13.29684298 -4.0625 14.8125 C-17.43325592 24.53867607 -26.08261582 37.50834069 -29 54 C-29.16823332 55.97738858 -29.31436074 57.95679185 -29.4375 59.9375 C-29.68955112 63.33049585 -29.84656989 64.75564835 -31.6875 67.6875 C-34.78469427 69.44536702 -36.49549702 69.65709431 -40 69 C-42.76453481 66.89022343 -43.79870322 65.18518613 -44.3828125 61.74609375 C-45.13568055 44.90694512 -36.90344642 26.79425268 -26.06640625 14.17578125 C-9.57272727 -3.19090909 -9.57272727 -3.19090909 0 0 Z " fill="#0D1243" transform="translate(194,151)"/>
<path d="M0 0 C11.79642283 1.85907344 11.79642283 1.85907344 16 7 C16.5625 10 16.5625 10 16 13 C13.9375 15.4375 13.9375 15.4375 11 17 C7.5 16.8125 7.5 16.8125 4 16 C-1.23959387 14.78463029 -6.46128915 14.69182982 -11.8203125 14.4765625 C-15 14 -15 14 -16.90234375 12.67578125 C-18.79887736 9.78036161 -18.41008391 7.33925466 -18 4 C-13.48065966 -2.12016692 -6.89354004 -0.59476489 0 0 Z " fill="#0E1444" transform="translate(230,141)"/>
<path d="M0 0 C0.98935547 -0.02835937 1.97871094 -0.05671875 2.99804688 -0.0859375 C7.8097765 -0.09888096 10.26387745 -0.09278179 14.21484375 2.83984375 C16.0625 5.5 16.0625 5.5 16.6875 8.5625 C16.0625 11.5 16.0625 11.5 14.2109375 13.65625 C9.55816731 16.38094917 5.35510486 16.04487615 0.0625 15.9375 C-1.41476563 15.94813477 -1.41476563 15.94813477 -2.921875 15.95898438 C-11.96004043 15.87959508 -11.96004043 15.87959508 -15.9375 12.5 C-17.23649889 9.90200222 -17.00379999 8.74711813 -16.25 5.9375 C-12.61552757 -0.81223451 -6.82650896 -0.01771969 0 0 Z " fill="#0A1142" transform="translate(172.9375,445.5)"/>
</svg>
