<?xml version="1.0" encoding="UTF-8"?>
<svg version="1.1" xmlns="http://www.w3.org/2000/svg" width="512" height="512">
<path d="M0 0 C1.49003238 1.40523379 2.97106647 2.82015694 4.4375 4.25 C5.30375 5.075 6.17 5.9 7.0625 6.75 C7.84625 7.575 8.63 8.4 9.4375 9.25 C10.29021484 10.11044922 10.29021484 10.11044922 11.16015625 10.98828125 C23.20187242 23.70031164 31.93258969 40.0759395 35.4375 57.25 C36.01757812 57.04503906 36.59765625 56.84007812 37.1953125 56.62890625 C37.97648437 56.35949219 38.75765625 56.09007812 39.5625 55.8125 C40.32820313 55.54566406 41.09390625 55.27882813 41.8828125 55.00390625 C57.34080165 50.44214493 74.06741526 53.27531557 88.25 60.375 C101.88912327 68.30157846 112.32630768 80.25342474 117.4375 95.25 C119.51013989 103.19478255 120.61102719 111.03942381 120.4375 119.25 C121.6234375 119.39695313 122.809375 119.54390625 124.03125 119.6953125 C144.87426098 122.49343908 161.20959742 129.29402425 176.4375 144.25 C177.2109375 144.99894531 177.984375 145.74789062 178.78125 146.51953125 C192.60711345 160.79520875 199.13326291 180.37167172 199.75 200 C199.25429472 223.45305611 190.10860525 243.90395808 173.4375 260.25 C159.06808899 273.90805403 140.31342706 280.18093568 120.8359375 281.3671875 C117.6017289 281.25566307 115.99033669 281.17960895 113.4375 279.25 C112.73825282 277.93346075 112.06752449 276.60103344 111.4375 275.25 C108.33382503 275.10484323 105.23101973 275.01599147 102.125 274.9375 C101.24392578 274.89560547 100.36285156 274.85371094 99.45507812 274.81054688 C97.0197403 274.76424768 94.82605398 274.76604462 92.4375 275.25 C90.43951013 277.592085 90.43951013 277.592085 89.4375 280.25 C84.87449872 281.77100043 80.34276326 281.51635846 75.5625 281.5625 C74.56863281 281.59150391 73.57476562 281.62050781 72.55078125 281.65039062 C68.02948669 281.68973255 65.22490106 281.70145611 61.2421875 279.41796875 C59.4375 277.25 59.4375 277.25 59.4375 274.25 C53.4975 274.25 47.5575 274.25 41.4375 274.25 C40.7775 275.9 40.1175 277.55 39.4375 279.25 C35.82634834 282.23770361 30.95500455 281.53037472 26.50450134 281.51069641 C25.59160656 281.51452196 24.67871178 281.51834751 23.73815352 281.52228898 C20.67165029 281.53262732 17.60533403 281.52862503 14.53881836 281.5246582 C12.34248175 281.52900463 10.14614667 281.53418754 7.94981384 281.54014587 C1.97374193 281.55356529 -4.00226683 281.55411049 -9.97835088 281.55158257 C-14.97476092 281.55051329 -19.97115817 281.55539598 -24.96756548 281.560188 C-37.44649864 281.57193233 -49.92540122 281.57105272 -62.40433454 281.56463119 C-73.20331295 281.55948022 -84.00220064 281.57066769 -94.80116112 281.58972941 C-105.9127977 281.60919078 -117.02439758 281.61705824 -128.13605207 281.61360615 C-134.36460398 281.61180099 -140.59307314 281.61435105 -146.8216114 281.62832069 C-152.69443524 281.64099752 -158.56707992 281.63886267 -164.43990135 281.62590981 C-166.5814635 281.62356449 -168.72303864 281.62620414 -170.86458588 281.63453293 C-201.32468528 281.74433346 -227.15184128 276.31347262 -250.01025391 254.79345703 C-267.44854357 237.45390572 -276.72328976 213.83360377 -276.875 189.4375 C-276.92542442 163.65941614 -267.56230183 140.82832429 -249.5625 122.25 C-231.47309416 104.92044725 -208.55338795 95.9380039 -183.5625 96.25 C-183.57821045 95.57646484 -183.5939209 94.90292969 -183.61010742 94.20898438 C-184.28247908 60.91382061 -184.28247908 60.91382061 -178.65625 52.34765625 C-176.5625 50.25 -176.5625 50.25 -173.3125 49.9375 C-172.405 50.040625 -171.4975 50.14375 -170.5625 50.25 C-170.459375 49.569375 -170.35625 48.88875 -170.25 48.1875 C-169.5625 45.25 -169.5625 45.25 -167.9375 41.6875 C-166.41089462 37.87498428 -166.41089462 37.87498428 -167.5625 34.25 C-168.53191283 31.27251772 -168.90603666 29.2020351 -167.828125 26.21484375 C-163.42800913 17.67078314 -156.38517151 10.89312752 -149.5625 4.25 C-148.90507812 3.5075 -148.90507812 3.5075 -148.234375 2.75 C-110.99402922 -37.87583176 -39.42637342 -35.05860679 0 0 Z " fill="#BDDCFB" transform="translate(294.5625,128.75)"/>
<path d="M0 0 C1.49003238 1.40523379 2.97106647 2.82015694 4.4375 4.25 C5.30375 5.075 6.17 5.9 7.0625 6.75 C7.84625 7.575 8.63 8.4 9.4375 9.25 C10.29021484 10.11044922 10.29021484 10.11044922 11.16015625 10.98828125 C23.20187242 23.70031164 31.93258969 40.0759395 35.4375 57.25 C36.01757812 57.04503906 36.59765625 56.84007812 37.1953125 56.62890625 C37.97648438 56.35949219 38.75765625 56.09007812 39.5625 55.8125 C40.32820312 55.54566406 41.09390625 55.27882813 41.8828125 55.00390625 C57.34080165 50.44214493 74.06741526 53.27531557 88.25 60.375 C101.88912327 68.30157846 112.32630768 80.25342474 117.4375 95.25 C119.51013989 103.19478255 120.61102719 111.03942381 120.4375 119.25 C121.6234375 119.39695313 122.809375 119.54390625 124.03125 119.6953125 C144.87426098 122.49343908 161.20959742 129.29402425 176.4375 144.25 C177.2109375 144.99894531 177.984375 145.74789062 178.78125 146.51953125 C192.60711345 160.79520875 199.13326291 180.37167172 199.75 200 C199.25429472 223.45305611 190.10860525 243.90395808 173.4375 260.25 C159.06808899 273.90805403 140.31342706 280.18093568 120.8359375 281.3671875 C117.62798029 281.25656829 116.02089461 281.08197455 113.4375 279.25 C112.0625 276.9375 112.0625 276.9375 111.4375 274.25 C112.34574046 270.78217278 113.58526579 268.42637871 116.4375 266.25 C119.16015625 265.94921875 119.16015625 265.94921875 122.5 265.9375 C140.10500267 265.00804334 156.29086946 256.94875011 168.4375 244.25 C180.01476521 230.2452437 185.97789836 212.45813593 184.66503906 194.35058594 C183.11000986 179.9949301 176.85561997 167.04944423 167.4375 156.25 C166.93992187 155.64671875 166.44234375 155.0434375 165.9296875 154.421875 C156.81405826 144.25268057 141.20440443 137.15791601 127.64648438 136.01464844 C123.6945999 135.81874084 119.75593053 135.6823529 115.79882812 135.70141602 C114.90099609 135.69553467 114.00316406 135.68965332 113.078125 135.68359375 C112.27922852 135.69447021 111.48033203 135.70534668 110.65722656 135.71655273 C107.50489804 135.05398126 106.34507721 133.80908985 104.4375 131.25 C104.046875 128.67553711 104.046875 128.67553711 104.1875 125.77734375 C104.2184375 124.71193359 104.249375 123.64652344 104.28125 122.54882812 C104.38414836 120.33522714 104.48828341 118.12168324 104.59375 115.90820312 C104.95105736 103.49921622 100.70356014 92.81350319 92.77734375 83.24609375 C84.00581852 73.99503183 73.05148837 69.1993838 60.32128906 68.82592773 C46.10802503 68.74985441 34.90746703 71.99784847 24.25 81.875 C18.60221717 87.84290007 14.4039101 95.13393494 11.6875 102.875 C10.4375 106.25 10.4375 106.25 7.4375 108.25 C4.5 108.6875 4.5 108.6875 1.4375 108.25 C-1 106.1875 -1 106.1875 -2.5625 103.25 C-2.23276878 97.73204895 -0.62964463 93.42057448 1.8125 88.5625 C2.15756592 87.8720459 2.50263184 87.1815918 2.8581543 86.47021484 C7.04053058 78.53423602 12.93001035 71.2549931 20.4375 66.25 C20.35179921 48.03858312 8.3822207 29.51217478 -3.8828125 16.76953125 C-25.36174669 -3.42567655 -50.68624005 -11.6329791 -79.96484375 -11.12109375 C-99.454207 -10.33412564 -118.60116487 -2.11551989 -133.5625 10.25 C-134.40039062 10.92546875 -135.23828125 11.6009375 -136.1015625 12.296875 C-141.53120526 16.90282582 -145.89625794 21.92080009 -150.07641602 27.64526367 C-152.65276388 31.16899728 -155.26018401 34.38233877 -158.5625 37.25 C-162.4052383 37.31625411 -164.55450716 37.06899419 -167.5625 34.625 C-169.01961958 31.16434101 -168.36418478 28.88812189 -167.5625 25.25 C-165.7421875 22.22265625 -165.7421875 22.22265625 -163.4375 19.3125 C-162.21353516 17.76175781 -162.21353516 17.76175781 -160.96484375 16.1796875 C-160.17207031 15.21289062 -159.37929687 14.24609375 -158.5625 13.25 C-157.94503906 12.48945313 -157.32757813 11.72890625 -156.69140625 10.9453125 C-138.5870866 -10.54572746 -110.12838013 -24.2028106 -82.30859375 -26.58984375 C-52.35160248 -28.3369798 -22.63867858 -20.13070089 0 0 Z " fill="#0A0F40" transform="translate(294.5625,128.75)"/>
<path d="M0 0 C4.22730807 0.86271593 5.652647 2.04673342 8.0625 5.625 C8.35363058 9.3878628 7.50691721 12.91861994 6.56176758 16.54760742 C5.06382546 22.57754428 4.79143428 28.24044241 4.875 34.4375 C4.87564453 35.36498047 4.87628906 36.29246094 4.87695312 37.24804688 C4.90274483 41.2228346 4.96170535 44.78347375 6.0625 48.625 C6.743125 48.76035156 7.42375 48.89570313 8.125 49.03515625 C31.62320482 54.25350759 52.34556349 67.75659502 65.7265625 87.85546875 C68.25420355 91.83697852 70.52842082 95.93341838 72.6875 100.125 C73.03071289 100.78330811 73.37392578 101.44161621 73.72753906 102.11987305 C75.68007781 106.10486414 76.57913048 109.19489363 76.0625 113.625 C74.4375 116 74.4375 116 72.0625 117.625 C69.0625 118.125 69.0625 118.125 66.0625 117.625 C62.86199754 114.93853618 61.30569726 112.40365796 59.75 108.5625 C50.29319355 86.94694241 34.22083142 74.40714204 12.97265625 65.30078125 C-5.47237226 58.80284166 -26.68619762 61.33858034 -44.08178711 69.36157227 C-51.4627712 72.91385806 -57.86399595 77.08406067 -63.9375 82.625 C-64.5459375 83.14191406 -65.154375 83.65882813 -65.78125 84.19140625 C-78.66726822 95.87668186 -85.91866383 113.66677615 -87.9375 130.625 C-89.0340464 153.52496894 -83.16390101 174.67385105 -67.625 191.9375 C-54.8602578 205.53614165 -36.47772576 214.93434662 -17.70339835 215.71828711 C-15.24023731 215.75471739 -12.7788108 215.76129071 -10.31538391 215.75630188 C-8.90772232 215.75947545 -8.90772232 215.75947545 -7.47162312 215.76271313 C-4.34345624 215.76867979 -1.21533007 215.76771539 1.9128418 215.7668457 C4.16203886 215.76987926 6.41123531 215.77340126 8.66043091 215.77737427 C13.49541479 215.78524602 18.33039134 215.79040156 23.16538048 215.79366493 C30.8083407 215.79958453 38.45125461 215.81613192 46.0941925 215.83500671 C48.71216485 215.8413434 51.33013723 215.84766903 53.94810963 215.85398388 C55.9141669 215.8587326 55.9141669 215.8587326 57.9199425 215.86357725 C64.69019644 215.87972321 71.46045355 215.89427543 78.23071289 215.90795898 C78.90972811 215.90933486 79.58874333 215.91071073 80.28833476 215.91212829 C91.30664051 215.93408713 102.32493475 215.94482306 113.34325852 215.95232973 C124.66518536 215.96039869 135.98699583 215.98394182 147.30887347 216.0202834 C153.66213081 216.0400725 160.01521533 216.05243888 166.36850548 216.04744911 C172.33826123 216.04281706 178.30768857 216.0565291 184.27737808 216.08446121 C186.46996419 216.09139567 188.66258409 216.09147548 190.8551693 216.08426094 C193.84428538 216.07541716 196.83230783 216.09099378 199.82133484 216.11274719 C201.12784383 216.10008339 201.12784383 216.10008339 202.46074694 216.08716375 C206.48503722 216.14146249 208.57166303 216.32472316 212.07757282 218.4695158 C214.61424913 221.22415878 215.0625 222.89810581 215.0625 226.625 C213.35034522 229.79248634 212.52514391 230.47078536 209.0625 231.625 C206.11715718 231.72566055 203.19534789 231.7684178 200.24975586 231.76544189 C199.3377155 231.76841302 198.42567514 231.77138414 197.4859972 231.7744453 C194.41643686 231.78314679 191.34691546 231.78464184 188.27734375 231.78613281 C186.08115556 231.79076036 183.88496818 231.79578494 181.68878174 231.80117798 C175.70853583 231.81431953 169.72830116 231.82075163 163.74804306 231.82518864 C160.00688272 231.82811961 156.26572545 231.83222471 152.52456665 231.83669281 C142.14981746 231.8488099 131.77507044 231.85918641 121.40031433 231.8625679 C120.73601923 231.86278747 120.07172413 231.86300703 119.38729888 231.86323325 C118.72145866 231.86345153 118.05561844 231.86366981 117.36960125 231.8638947 C116.02048937 231.86433816 114.6713775 231.86478472 113.32226562 231.86523438 C112.65306709 231.8654558 111.98386855 231.86567723 111.29439127 231.86590537 C100.48888759 231.86984008 89.68345189 231.88724982 78.87797439 231.9105939 C67.76185515 231.93441301 56.64576403 231.94651776 45.52961826 231.94793582 C39.29769031 231.94897954 33.06585797 231.95479323 26.83395386 231.97275543 C20.95704963 231.98936257 15.08031151 231.99133086 9.20339203 231.98261642 C7.06021425 231.98185247 4.91702709 231.98610266 2.77387238 231.99607468 C-27.69195374 232.12937228 -53.52379129 226.69134402 -76.38525391 205.16845703 C-93.82354357 187.82890572 -103.09828976 164.20860377 -103.25 139.8125 C-103.30042442 114.03441614 -93.93730183 91.20332429 -75.9375 72.625 C-57.84809416 55.29544725 -34.92838795 46.3130039 -9.9375 46.625 C-9.95321045 45.95146484 -9.9689209 45.27792969 -9.98510742 44.58398438 C-10.65934459 11.19644281 -10.65934459 11.19644281 -5.01171875 2.7421875 C-2.9375 0.625 -2.9375 0.625 0 0 Z " fill="#0A1040" transform="translate(120.9375,178.375)"/>
<path d="M0 0 C0.86625 0.66 1.7325 1.32 2.625 2 C3.429375 2.53625 4.23375 3.0725 5.0625 3.625 C11.95552889 10.01366092 17.15523773 18.06511613 17.90234375 27.50390625 C18.15185775 37.23495208 18.15185775 37.23495208 16.3203125 39.89453125 C13.45514125 41.76283416 10.92780695 41.35387217 7.625 41 C5.23406911 39.3145897 4.69030801 38.32261175 4.10546875 35.43359375 C3.96044922 33.95052734 3.96044922 33.95052734 3.8125 32.4375 C2.64906434 24.56046843 -0.42301251 17.90694392 -6.875 13 C-13.95040165 8.28306556 -22.16563795 8.04992776 -30.375 9 C-32.94190574 10.08020814 -35.08663143 11.35194462 -37.41015625 12.875 C-40.47685563 14.63088354 -42.95504234 14.54719323 -46.375 14 C-48.3125 12.9375 -48.3125 12.9375 -49.375 11 C-50 7.6875 -50 7.6875 -49.375 4 C-38.23180712 -11.07188268 -14.09749074 -8.35406859 0 0 Z " fill="#0C1142" transform="translate(436.375,295)"/>
<path d="M0 0 C2.375 1.0625 2.375 1.0625 4 3 C4.6875 6.3125 4.6875 6.3125 4 10 C1.97993957 12.41064613 -0.47994381 14.13859486 -3 16 C-15.33789513 26.1691245 -25.09649133 38.54197116 -27 55 C-27.22188941 57.87288396 -27.43146938 60.73843567 -27.55859375 63.6171875 C-28.07846703 66.4235831 -28.6993056 67.3467103 -31 69 C-34.79170715 69.48258091 -37.08032602 69.51879045 -40.4375 67.625 C-44.44716288 60.88876636 -41.71505531 51.83579166 -40.03125 44.6484375 C-35.01042104 26.88535321 -23.84844611 10.92694355 -8.0703125 1.03125 C-5.16655587 -0.41514953 -3.17081368 -0.66365868 0 0 Z " fill="#0D1243" transform="translate(192,151)"/>
<path d="M0 0 C0.7105957 0.0112793 1.42119141 0.02255859 2.15332031 0.03417969 C15.47452498 0.37884999 15.47452498 0.37884999 21 4.0625 C22.84966684 7.08922756 22.95628871 8.82476772 22.375 12.3125 C20.71484375 14.51171875 20.71484375 14.51171875 18.375 16.3125 C15.59765625 16.51953125 15.59765625 16.51953125 12.4375 16.125 C6.6657021 15.46052665 0.95826177 15.09484189 -4.84765625 14.88671875 C-8.29160563 14.17467858 -9.51258668 13.08597443 -11.625 10.3125 C-12.125 6.75 -12.125 6.75 -11.625 3.3125 C-8.30857625 -0.30390178 -4.60509621 -0.1183 0 0 Z " fill="#0D1243" transform="translate(223.625,141.6875)"/>
<path d="M0 0 C0.98484375 -0.01095703 1.9696875 -0.02191406 2.984375 -0.03320312 C7.45965885 0.01215448 10.23593558 0.10215118 14.125 2.4453125 C16.34372208 4.95061951 17 6.21245504 17 9.5625 C15.75 12.3125 15.75 12.3125 14 14.5625 C9.43699872 16.08350043 4.90526326 15.82885846 0.125 15.875 C-1.36580078 15.91850586 -1.36580078 15.91850586 -2.88671875 15.96289062 C-10.20223514 16.02654639 -10.20223514 16.02654639 -14.15625 13.7265625 C-16 11.5625 -16 11.5625 -16.625 8.625 C-14.77816505 -0.42449125 -7.64735368 -0.18517807 0 0 Z " fill="#0C1142" transform="translate(370,394.4375)"/>
</svg>
