<?xml version="1.0" encoding="UTF-8"?>
<svg version="1.1" xmlns="http://www.w3.org/2000/svg" width="512" height="512">
<path d="M0 0 C3.66116739 3.08997023 7.07345903 6.39440298 10.46484375 9.77636719 C11.67140625 10.948125 11.67140625 10.948125 12.90234375 12.14355469 C28.86140984 28.60134159 35.88114079 51.30289155 35.76538086 73.85717773 C35.28623448 94.39171552 28.42489634 112.84512351 15.46484375 128.77636719 C16.30015625 129.45119141 16.30015625 129.45119141 17.15234375 130.13964844 C28.7895071 139.94867633 38.98592073 154.22453563 40.68310547 169.77636719 C41.07538516 174.43794015 41.29665584 179.10190323 41.46484375 183.77636719 C42.60179687 183.93492187 43.73875 184.09347656 44.91015625 184.25683594 C63.83540236 187.0510432 79.88706369 193.00252647 94.46484375 205.77636719 C95.15320313 206.36933594 95.8415625 206.96230469 96.55078125 207.57324219 C111.52215863 221.42028688 119.59098857 242.21733969 120.58984375 262.28808594 C121.14911718 286.23197952 112.04325221 306.77203996 95.71484375 323.90136719 C90.75651077 328.74701078 85.49221831 332.38433821 79.46484375 335.77636719 C78.66433594 336.23785156 77.86382812 336.69933594 77.0390625 337.17480469 C66.5874461 342.81970389 54.64257068 345.82325346 42.77734375 346.02636719 C41.86597656 346.05214844 40.95460938 346.07792969 40.015625 346.10449219 C36.96986169 345.71269415 35.65851826 344.89576378 33.46484375 342.77636719 C33.13484375 341.78636719 32.80484375 340.79636719 32.46484375 339.77636719 C26.19484375 339.44636719 19.92484375 339.11636719 13.46484375 338.77636719 C12.80484375 340.42636719 12.14484375 342.07636719 11.46484375 343.77636719 C6.80422986 346.88344312 2.00925863 346.14495184 -3.47265625 346.15136719 C-4.57029297 346.17585938 -5.66792969 346.20035156 -6.79882812 346.22558594 C-8.3834082 346.23138672 -8.3834082 346.23138672 -10 346.23730469 C-10.96542725 346.24552246 -11.93085449 346.25374023 -12.92553711 346.26220703 C-16.28198986 345.63732716 -17.48134541 344.4567798 -19.53515625 341.77636719 C-19.53515625 340.78636719 -19.53515625 339.79636719 -19.53515625 338.77636719 C-25.47515625 338.77636719 -31.41515625 338.77636719 -37.53515625 338.77636719 C-38.19515625 340.42636719 -38.85515625 342.07636719 -39.53515625 343.77636719 C-43.51005825 346.42630185 -46.95035956 346.0568841 -51.56463623 346.0370636 C-52.49991661 346.04088915 -53.435197 346.04471469 -54.39881921 346.04865617 C-57.5468604 346.05901135 -60.69472004 346.05498908 -63.84277344 346.05102539 C-66.09471303 346.05537079 -68.34665114 346.06055336 -70.59858704 346.06651306 C-76.72940289 346.07994106 -82.86015722 346.08047691 -88.99098492 346.07794976 C-94.11198812 346.07688141 -99.23297882 346.08176057 -104.35397935 346.08655518 C-117.13857249 346.09830203 -129.92312114 346.09741812 -142.70771387 346.09099837 C-153.78428454 346.08584294 -164.86076688 346.09704635 -175.93732008 346.11609659 C-187.32463518 346.13552995 -198.71189236 346.14343007 -210.09922719 346.13997334 C-216.48639709 346.13816478 -222.87348634 346.14075289 -229.26064301 346.15468788 C-235.27871714 346.16732436 -241.29661608 346.1652672 -247.31468773 346.15227699 C-249.51436868 346.14992332 -251.71406216 346.15260212 -253.91372871 346.16090012 C-283.31049292 346.26372542 -308.59810792 338.94891754 -330.34765625 318.33886719 C-349.97022214 297.50801522 -356.36519372 272.63360798 -355.66699219 244.6796875 C-354.66283418 222.56589682 -342.99884851 200.25979062 -326.90625 185.33886719 C-307.51131808 169.00629294 -287.47013949 162.51626391 -262.53515625 160.77636719 C-262.5508667 160.10283203 -262.56657715 159.42929687 -262.58276367 158.73535156 C-263.25513533 125.4401878 -263.25513533 125.4401878 -257.62890625 116.87402344 C-255.53515625 114.77636719 -255.53515625 114.77636719 -252.28515625 114.46386719 C-250.92390625 114.61855469 -250.92390625 114.61855469 -249.53515625 114.77636719 C-249.43203125 114.09574219 -249.32890625 113.41511719 -249.22265625 112.71386719 C-248.53515625 109.77636719 -248.53515625 109.77636719 -246.91015625 106.21386719 C-245.38355087 102.40135147 -245.38355087 102.40135147 -246.53515625 98.77636719 C-247.43049146 95.33462162 -247.82217136 93.45476654 -246.41796875 90.13574219 C-241.94348471 83.49361921 -237.08352894 77.54929459 -231.53515625 71.77636719 C-230.80167969 70.99132812 -230.06820312 70.20628906 -229.3125 69.39746094 C-224.17884371 64.04650702 -218.78000157 59.76046732 -212.53515625 55.77636719 C-211.66632813 55.20144531 -210.7975 54.62652344 -209.90234375 54.03417969 C-187.22702405 39.82262834 -163.49588505 38.26651301 -137.53515625 38.77636719 C-137.03886719 37.79796875 -136.54257813 36.81957031 -136.03125 35.81152344 C-132.12368714 28.2222628 -128.159809 21.25251321 -122.53515625 14.77636719 C-121.85839844 13.95652344 -121.18164062 13.13667969 -120.484375 12.29199219 C-91.56405799 -21.61104374 -35.28210711 -28.12244288 0 0 Z " fill="#BDDCFB" transform="translate(373.53515625,120.2236328125)"/>
<path d="M0 0 C3.66116739 3.08997023 7.07345903 6.39440298 10.46484375 9.77636719 C11.67140625 10.948125 11.67140625 10.948125 12.90234375 12.14355469 C28.86140984 28.60134159 35.88114079 51.30289155 35.76538086 73.85717773 C35.28623448 94.39171552 28.42489634 112.84512351 15.46484375 128.77636719 C16.30015625 129.45119141 16.30015625 129.45119141 17.15234375 130.13964844 C28.7895071 139.94867633 38.98592073 154.22453563 40.68310547 169.77636719 C41.07538516 174.43794015 41.29665584 179.10190323 41.46484375 183.77636719 C42.60179687 183.93492187 43.73875 184.09347656 44.91015625 184.25683594 C63.83540236 187.0510432 79.88706369 193.00252647 94.46484375 205.77636719 C95.15320313 206.36933594 95.8415625 206.96230469 96.55078125 207.57324219 C111.52215863 221.42028688 119.59098857 242.21733969 120.58984375 262.28808594 C121.14911718 286.23197952 112.04325221 306.77203996 95.71484375 323.90136719 C90.75651077 328.74701078 85.49221831 332.38433821 79.46484375 335.77636719 C78.66433594 336.23785156 77.86382812 336.69933594 77.0390625 337.17480469 C66.5874461 342.81970389 54.64257068 345.82325346 42.77734375 346.02636719 C41.86597656 346.05214844 40.95460938 346.07792969 40.015625 346.10449219 C36.99405164 345.71580588 35.67553204 344.83165562 33.46484375 342.77636719 C32.24875263 340.17045765 32.4034425 339.00522641 33.15234375 336.21386719 C34.65478846 333.42361272 35.76176993 332.40377527 38.46484375 330.77636719 C41.13671875 330.44042969 41.13671875 330.44042969 44.21484375 330.40136719 C62.27813322 329.36627981 78.34679263 321.07571034 90.46484375 307.77636719 C102.26450139 293.33936885 106.92493808 275.17355579 105.46484375 256.77636719 C102.35262072 239.23474647 93.95729012 223.46297112 79.46484375 212.77636719 C69.07897013 205.72293935 57.17700139 200.83248327 44.48828125 200.56542969 C43.57046875 200.53707031 42.65265625 200.50871094 41.70703125 200.47949219 C39.78796217 200.42720148 37.86865662 200.38299338 35.94921875 200.34667969 C35.03398437 200.31574219 34.11875 200.28480469 33.17578125 200.25292969 C32.34353027 200.23311035 31.5112793 200.21329102 30.65380859 200.19287109 C28.46484375 199.77636719 28.46484375 199.77636719 26.67993164 198.59619141 C24.96716758 196.03100288 25.18683427 194.2458116 25.3125 191.18261719 C25.35407227 189.51199219 25.35407227 189.51199219 25.39648438 187.80761719 C25.48257306 185.4845076 25.57358232 183.16157425 25.66992188 180.83886719 C25.98420476 167.47034624 21.32728025 156.5385752 12.46875 146.51855469 C1.99548537 136.41041304 -10.22868203 133.48888639 -24.40283203 133.45947266 C-35.97841472 133.67496845 -46.80924589 139.1942827 -55.28515625 146.96386719 C-61.09051769 153.1516995 -64.47597739 161.23809565 -67.67578125 168.99902344 C-68.53515625 170.77636719 -68.53515625 170.77636719 -70.53515625 172.77636719 C-76.78818918 173.34482473 -76.78818918 173.34482473 -79.21875 171.49511719 C-81.12518771 169.0059997 -81.1829718 166.62986393 -81.078125 163.56933594 C-78.88506954 152.28851106 -71.06895196 141.12599718 -62.03515625 134.33886719 C-59.76608328 132.41786561 -58.67818937 131.47564021 -58.078125 128.54199219 C-58.97768397 113.27380202 -69.62276424 96.8271081 -79.53515625 85.77636719 C-80.75332031 84.41705078 -80.75332031 84.41705078 -81.99609375 83.03027344 C-99.31919943 64.71655028 -123.85360313 54.20681905 -148.94482422 53.44238281 C-174.11059087 53.06224895 -196.32401705 61.5011496 -215.53515625 77.77636719 C-216.51484375 78.54722656 -217.49453125 79.31808594 -218.50390625 80.11230469 C-221.73908649 82.80880223 -224.17399951 85.89613515 -226.66015625 89.27636719 C-227.49567981 90.39126086 -228.33161182 91.50584855 -229.16796875 92.62011719 C-230.6615743 94.61159126 -232.14823022 96.60831429 -233.625 98.61230469 C-235.53515625 100.77636719 -235.53515625 100.77636719 -238.97265625 101.90136719 C-242.53515625 101.77636719 -242.53515625 101.77636719 -245.53515625 99.71386719 C-247.53515625 96.77636719 -247.53515625 96.77636719 -247.38671875 93.96386719 C-243.29534537 78.64936865 -225.52699812 63.65529064 -212.53515625 55.77636719 C-211.24351562 54.92558594 -211.24351562 54.92558594 -209.92578125 54.05761719 C-187.28219287 39.79590959 -163.48395352 38.26674734 -137.53515625 38.77636719 C-136.79072266 37.30876953 -136.79072266 37.30876953 -136.03125 35.81152344 C-132.12368714 28.2222628 -128.159809 21.25251321 -122.53515625 14.77636719 C-121.85839844 13.95652344 -121.18164062 13.13667969 -120.484375 12.29199219 C-91.56405799 -21.61104374 -35.28210711 -28.12244288 0 0 Z " fill="#0A0F40" transform="translate(373.53515625,120.2236328125)"/>
<path d="M0 0 C1.1034375 -0.01611328 2.206875 -0.03222656 3.34375 -0.04882812 C23.3053625 -0.06054269 40.42949597 8.23227045 55 21.5 C63.76092989 30.9724775 69.75314051 41.94235956 73.25 54.3125 C73.61351562 55.54097656 73.97703125 56.76945312 74.3515625 58.03515625 C78.87116228 76.61301997 74.76518317 96.68335945 65.35546875 112.9375 C62.61682174 117.32746479 59.63898917 121.40457186 56.25 125.3125 C55.59257812 125.0959375 54.93515625 124.879375 54.2578125 124.65625 C41.49502682 120.92080053 28.54226585 121.12842666 15.75390625 124.65625 C13.25 125.3125 13.25 125.3125 10.25 125.3125 C9.99347656 124.35472656 9.73695313 123.39695312 9.47265625 122.41015625 C5.01040471 106.57921338 -2.3587522 93.04823583 -12.75 80.3125 C-13.24886719 79.66152344 -13.74773437 79.01054687 -14.26171875 78.33984375 C-27.59927836 61.56279885 -48.22077142 52.54394384 -67.75 45.3125 C-64.00262092 37.05123248 -59.76909709 30.1032762 -53.75 23.3125 C-53.23050781 22.69890625 -52.71101563 22.0853125 -52.17578125 21.453125 C-38.86908503 6.83922185 -19.27045356 -0.05550246 0 0 Z " fill="#5791D2" transform="translate(318.75,117.6875)"/>
<path d="M0 0 C4.11884831 0.84058129 5.58127621 2.26805016 8.0625 5.625 C8.39521766 9.80177564 7.77282671 13.15573331 6.57421875 17.140625 C4.78345126 23.9499631 4.72050832 30.37137738 4.875 37.375 C4.88853516 38.5609375 4.90207031 39.746875 4.91601562 40.96875 C4.95092591 43.85466693 4.99995461 46.73957264 5.0625 49.625 C5.90542603 49.69086304 5.90542603 49.69086304 6.76538086 49.75805664 C28.54725151 51.76900762 47.30361605 65.32967467 61.0625 81.625 C67.95475012 90.39755029 76.95492123 102.0394601 76.0625 113.625 C74.4375 116 74.4375 116 72.0625 117.625 C69.0625 118.125 69.0625 118.125 66.0625 117.625 C62.0420447 114.42801145 60.30083306 110.41787948 58.1875 105.875 C55.32271431 99.94099134 52.35789896 94.66016212 48.0625 89.625 C47.6396875 89.06039062 47.216875 88.49578125 46.78125 87.9140625 C36.67908215 74.93395148 19.02926164 65.85553229 2.984375 63.02734375 C-20.79876599 60.58743984 -41.33340608 64.65707744 -60.4543457 79.80029297 C-74.40984982 91.2879898 -84.62575996 108.76892437 -87.65625 126.71875 C-89.92087622 150.11988758 -84.60166465 171.01279103 -69.9375 189.625 C-61.22352342 200.05239895 -48.71098337 208.0499223 -35.9375 212.625 C-34.99611459 212.99516283 -34.99611459 212.99516283 -34.03571129 213.37280369 C-23.78276563 216.81748993 -12.96237435 216.03356144 -2.28759766 215.99389648 C0.0113035 215.9963669 2.31020352 216.00020776 4.60910034 216.00531006 C9.54228862 216.01362242 14.47536135 216.0128625 19.40855026 216.00512505 C27.20720487 215.99351533 35.00571161 216.00572539 42.80435181 216.02174377 C53.7339909 216.04214621 64.66360392 216.05504581 75.59326172 216.05883789 C76.6316694 216.05920519 76.6316694 216.05920519 77.69105501 216.05957992 C85.42298393 216.06212852 93.15491159 216.06269094 100.88684082 216.06164551 C103.69588216 216.06131242 106.5049235 216.06102705 109.31396484 216.06079102 C110.35382483 216.06069683 110.35382483 216.06069683 111.41469209 216.06060075 C122.97174033 216.05999608 134.52870119 216.07506436 146.0857197 216.10162407 C153.84101452 216.11844087 161.59601388 216.11660474 169.35130763 216.10080135 C174.16767758 216.09501746 178.98390636 216.10572015 183.80025101 216.12104797 C186.03638897 216.12478355 188.27255038 216.12163933 190.50866699 216.11117744 C193.5567046 216.09786434 196.60370753 216.10896697 199.65170288 216.12620544 C200.98432445 216.11149528 200.98432445 216.11149528 202.34386766 216.09648794 C206.40927754 216.14417021 208.54176005 216.30619513 212.08036232 218.47258091 C214.65856636 221.2722732 215.21786614 222.81852949 215.0625 226.625 C213.08415023 229.34621834 211.47876502 231.29431975 208.09811616 232.08365917 C205.65006453 232.26584638 203.24721049 232.28161682 200.79251099 232.24645996 C199.38702714 232.25604319 199.38702714 232.25604319 197.95314968 232.26582003 C194.81094356 232.28108944 191.66999441 232.26059456 188.52783203 232.24023438 C186.27559491 232.24373521 184.02336025 232.24939335 181.77113342 232.25704956 C175.64855319 232.27132058 169.52642091 232.2542078 163.40388346 232.23076439 C156.99003163 232.21066341 150.57619858 232.21653499 144.162323 232.21887207 C133.37993358 232.21881845 122.59775932 232.19916812 111.81542969 232.16699219 C100.74800212 232.13397812 89.6807571 232.11972074 78.61328125 232.12597656 C65.2571496 232.13348897 51.90113429 232.12603043 38.54500961 232.10432434 C33.45528923 232.09617967 28.36560907 232.09343544 23.27588272 232.09501648 C17.26595818 232.0959008 11.25624934 232.08153274 5.24638176 232.05578995 C3.0499355 232.04867542 0.85346621 232.04652155 -1.34298897 232.04990768 C-30.72467998 232.0865367 -56.00853699 224.78988864 -77.75 204.1875 C-97.37256589 183.35664803 -103.76753747 158.48224079 -103.06933594 130.52832031 C-102.06517793 108.41452963 -90.40119226 86.10842343 -74.30859375 71.1875 C-54.91366183 54.85492575 -34.87248324 48.36489672 -9.9375 46.625 C-9.95321045 45.95146484 -9.9689209 45.27792969 -9.98510742 44.58398438 C-10.65934459 11.19644281 -10.65934459 11.19644281 -5.01171875 2.7421875 C-2.9375 0.625 -2.9375 0.625 0 0 Z " fill="#0B1142" transform="translate(120.9375,234.375)"/>
<path d="M0 0 C4.69151396 3.55033489 4.67780261 8.48350801 5.453125 13.9375 C7.03036751 22.77005807 11.92458884 31.10018821 19.25 36.3125 C20.1575 36.869375 21.065 37.42625 22 38 C24.34549674 41.51824511 24.57991403 42.85775694 24 47 C21.74179394 49.70984727 19.45736961 51.6833595 16.5625 53.6875 C8.55932539 60.90987709 5.76713578 71.15175861 4.125 81.4375 C3.47938226 84.80317935 3.2789136 85.728834 0.75 88.1875 C-2.64115349 89.18943171 -4.6252175 89.02710772 -8 88 C-10.61296852 86.16644996 -10.9977091 85.00978177 -11.73828125 81.84765625 C-11.92777344 80.59855469 -12.11726563 79.34945312 -12.3125 78.0625 C-14.2024701 67.54192046 -17.54436271 59.78499833 -25.875 52.75 C-31.79558824 47.70294118 -31.79558824 47.70294118 -32.125 43.75 C-30.67545194 38.91817315 -28.29414508 36.56482873 -24 34 C-23.34 34 -22.68 34 -22 34 C-21.71898437 33.40445313 -21.43796875 32.80890625 -21.1484375 32.1953125 C-20 30 -20 30 -17.625 26.875 C-14.36080018 21.83989999 -13.53200736 16.17172016 -12.52001953 10.34716797 C-11.10269874 2.76828232 -8.49545703 -1.36534131 0 0 Z " fill="#090E3E" transform="translate(445,202)"/>
<path d="M0 0 C4.17546003 3.14908997 4.68637326 6.07950038 5.4375 11.125 C6.90346578 19.75337532 9.79896161 27.62178909 16 34 C17.41472655 34.94042516 18.83156436 35.87767862 20.25 36.8125 C23.78185899 39.37392297 23.78185899 39.37392297 24.69140625 41.984375 C24.92143793 45.93201545 24.31118426 47.60879694 21.8125 50.75 C20.10434948 52.11652042 18.36104542 53.44235317 16.5625 54.6875 C9.25031285 61.28630304 7.06371527 69.34354963 5.55639648 78.75439453 C4.85625106 82.68620816 4.41921076 84.55617001 1.60546875 87.53515625 C-1 89 -1 89 -4.625 89.0625 C-8 88 -8 88 -9.66015625 85.78125 C-11.07096071 82.85269963 -11.48415933 80.65523854 -11.8125 77.4375 C-12.81479332 70.50711286 -15.63722684 65.06761244 -19 59 C-19.35449219 58.2471875 -19.70898438 57.494375 -20.07421875 56.71875 C-21.31376817 54.41747681 -22.64447348 54.07681212 -25 53 C-28.57250385 50.75679991 -29.80028647 49.64613202 -31.0625 45.5625 C-30.98362847 41.06682252 -30.19427815 40.11636893 -27 37 C-26.071875 36.23429687 -26.071875 36.23429687 -25.125 35.453125 C-17.17144553 28.88541715 -13.13215866 21.51245465 -11.58203125 11.2265625 C-11.43121094 10.24429688 -11.28039062 9.26203125 -11.125 8.25 C-11.00382812 7.32703125 -10.88265625 6.4040625 -10.7578125 5.453125 C-9.12225189 0.15862983 -5.1028423 -0.7441645 0 0 Z " fill="#090E3E" transform="translate(418,46)"/>
<path d="M0 0 C3.72810483 0.71389241 4.62344692 1.5645365 6.9375 4.5625 C7.82400448 7.36808731 8.26573099 10.22685459 8.75 13.125 C10.76947173 23.38268312 14.09047831 31.06216082 22.875 37.25 C26.7296299 39.99765926 26.7296299 39.99765926 27.68359375 42.58984375 C27.9130737 46.32410839 27.10379688 48.35218336 24.8125 51.25 C22.92290459 52.76989196 20.98465451 54.23151917 19 55.625 C11.13269155 62.17433152 9.16282731 72.69959911 7.87109375 82.3125 C6.73211409 86.2774836 5.4473617 87.47738216 1.9375 89.5625 C-1.6875 89.625 -1.6875 89.625 -5.0625 88.5625 C-7.66357894 85.0862345 -8.43937509 82.26912414 -8.875 78 C-9.87729332 71.06961286 -12.69972684 65.63011244 -16.0625 59.5625 C-16.41699219 58.8096875 -16.77148438 58.056875 -17.13671875 57.28125 C-18.37626817 54.97997681 -19.70697348 54.63931212 -22.0625 53.5625 C-25.63500385 51.31929991 -26.86278647 50.20863202 -28.125 46.125 C-28.04612847 41.62932252 -27.25677815 40.67886893 -24.0625 37.5625 C-23.134375 36.79679687 -23.134375 36.79679687 -22.1875 36.015625 C-13.6373492 28.9552732 -10.61487929 22.08507606 -9.31323242 11.23461914 C-8.47863647 5.31440731 -6.15219478 1.12999496 0 0 Z " fill="#090E3E" transform="translate(225.0625,45.4375)"/>
<path d="M0 0 C16.75536539 4.59106351 27.6922336 15.05612133 36.5625 29.4375 C41.48729381 38.39923747 44.30952856 49.20701918 42.5625 59.4375 C40.25651617 62.35187105 39.25023309 63.30855005 35.5625 64 C32.5625 63.4375 32.5625 63.4375 30.25 61.625 C28.55168143 58.41706492 28.32031105 56.9582387 28.125 53.4375 C27.3521643 40.95452334 21.51880764 30.63147256 12.28125 22.40625 C4.55087885 16.4829786 -4.32391032 13.59302301 -14 12.9375 C-17.19105416 12.70400823 -18.29100108 12.53167788 -21.0625 10.75 C-22.88547485 7.68408776 -23.02264474 5.94836845 -22.4375 2.4375 C-18.21825897 -5.1973171 -6.85455055 -1.62566856 0 0 Z " fill="#0A1041" transform="translate(335.4375,135.5625)"/>
<path d="M0 0 C8.54699547 5.4964169 15.52199771 14.10711853 18.125 24.04296875 C18.53466291 26.9551377 18.69015139 29.78178642 18.734375 32.72265625 C18.76015625 33.75648438 18.7859375 34.7903125 18.8125 35.85546875 C18.484375 38.59765625 18.484375 38.59765625 17.1875 40.44140625 C14.33205665 42.37996412 11.8132468 41.95432109 8.484375 41.59765625 C6.09344411 39.91224595 5.54968301 38.920268 4.96484375 36.03125 C4.81982422 34.54818359 4.81982422 34.54818359 4.671875 33.03515625 C3.5353292 25.51576926 1.15792887 19.40281169 -5.02734375 14.6796875 C-12.83757276 9.87953215 -19.35236996 8.63255691 -28.515625 9.59765625 C-32.38143971 10.97227843 -36.56315224 12.64518349 -39.515625 15.59765625 C-42.72520277 16.03138298 -44.11561699 15.86793193 -46.828125 14.03515625 C-48.515625 11.59765625 -48.515625 11.59765625 -49.265625 8.22265625 C-48.45568526 4.30794748 -48.10564587 3.78097254 -45.140625 1.41015625 C-31.0502557 -7.77814401 -14.79888423 -7.88201443 0 0 Z " fill="#0C1142" transform="translate(435.515625,350.40234375)"/>
<path d="M0 0 C2.4375 2.125 2.4375 2.125 4 5 C3.94921875 7.90234375 3.94921875 7.90234375 3 11 C0.5234375 13.30859375 0.5234375 13.30859375 -2.625 15.4375 C-3.7291165 16.2203687 -4.83069391 17.00683086 -5.9296875 17.796875 C-6.94289062 18.52390625 -7.95609375 19.2509375 -9 20 C-19.66104093 28.44837206 -25.42325135 41.96378642 -28 55 C-28.20259098 57.03841543 -28.37238973 59.08052056 -28.5 61.125 C-28.72555364 64.44946453 -28.89507215 65.8224298 -30.625 68.75 C-34.12921872 70.59432564 -36.25991287 70.08802535 -40 69 C-42.71234374 66.16208479 -43.43145822 64.14090797 -43.4375 60.25 C-42.88093428 42.83413102 -35.57232236 26.842737 -24 14 C-23.44699219 13.36578125 -22.89398438 12.7315625 -22.32421875 12.078125 C-16.56624263 5.86665672 -8.89266451 -1.0251266 0 0 Z " fill="#0D1343" transform="translate(193,207)"/>
<path d="M0 0 C13.09163629 2.04384195 13.09163629 2.04384195 16 6 C16.41616519 9.25996064 16.2766188 11.34303035 15 14.375 C10.34299154 18.15881937 0.43036509 15.72576116 -5.3125 15.1875 C-6.65151367 15.08211914 -6.65151367 15.08211914 -8.01757812 14.97460938 C-8.87416016 14.89404297 -9.73074219 14.81347656 -10.61328125 14.73046875 C-11.38454346 14.66239014 -12.15580566 14.59431152 -12.95043945 14.52416992 C-15.47521979 13.87846374 -16.44335833 13.07339939 -18 11 C-18.48724607 7.17163803 -18.71440425 4.96513267 -16.375 1.8046875 C-11.69069219 -1.75477008 -5.60317117 -0.48027181 0 0 Z " fill="#0D1343" transform="translate(230,198)"/>
<path d="M0 0 C0.98484375 -0.01095703 1.9696875 -0.02191406 2.984375 -0.03320312 C7.43663942 0.01192118 10.23583198 0.10859569 14.1171875 2.4140625 C16.58527838 5.23034877 17.15301275 6.81368774 17 10.5625 C15.33821654 13.07923219 14.55693911 14.1282421 12 15.5625 C7.96713906 16.28454888 4.02348107 16.21482846 -0.0625 16.125 C-1.15111328 16.13595703 -2.23972656 16.14691406 -3.36132812 16.15820312 C-11.34990388 16.08446243 -11.34990388 16.08446243 -14.30639648 13.71069336 C-16 11.5625 -16 11.5625 -16.5625 8.625 C-14.89452365 -0.45620455 -7.5725483 -0.18336668 0 0 Z " fill="#0E1445" transform="translate(370,450.4375)"/>
<path d="M0 0 C0.66 0 1.32 0 2 0 C3.5078125 1.609375 3.5078125 1.609375 5.125 3.75 C5.66382813 4.44609375 6.20265625 5.1421875 6.7578125 5.859375 C8 8 8 8 8 12 C6.7578125 14.359375 6.7578125 14.359375 5.125 16.75 C4.59132813 17.54921875 4.05765625 18.3484375 3.5078125 19.171875 C3.01023437 19.77515625 2.51265625 20.3784375 2 21 C1.34 21 0.68 21 0 21 C-1.7265625 19.13671875 -1.7265625 19.13671875 -3.625 16.6875 C-4.25664062 15.88699219 -4.88828125 15.08648437 -5.5390625 14.26171875 C-7 12 -7 12 -7 9 C-5.5390625 6.73828125 -5.5390625 6.73828125 -3.625 4.3125 C-2.99851562 3.50425781 -2.37203125 2.69601563 -1.7265625 1.86328125 C-1.15679687 1.24839844 -0.58703125 0.63351563 0 0 Z " fill="#ECAE34" transform="translate(414,80)"/>
<path d="M0 0 C0.66 0 1.32 0 2 0 C3.5078125 1.609375 3.5078125 1.609375 5.125 3.75 C5.66382813 4.44609375 6.20265625 5.1421875 6.7578125 5.859375 C8 8 8 8 8 12 C6.46875 14.359375 6.46875 14.359375 4.5 16.75 C3.8503125 17.54921875 3.200625 18.3484375 2.53125 19.171875 C2.0259375 19.77515625 1.520625 20.3784375 1 21 C-2.53848316 17.58249062 -5.20715149 14.03411452 -8 10 C-7.59007812 9.52949219 -7.18015625 9.05898437 -6.7578125 8.57421875 C-6.21898437 7.95160156 -5.68015625 7.32898438 -5.125 6.6875 C-4.59132812 6.07261719 -4.05765625 5.45773438 -3.5078125 4.82421875 C-1.8359553 2.86501788 -1.8359553 2.86501788 0 0 Z " fill="#ECAE34" transform="translate(224,80)"/>
<path d="M0 0 C3.18005028 3.88672813 6.10554447 7.89952133 9 12 C7.8758824 13.29243468 6.75067408 14.58392075 5.625 15.875 C4.99851562 16.59429687 4.37203125 17.31359375 3.7265625 18.0546875 C2.52573166 19.4076598 1.2791655 20.7208345 0 22 C-2.64 18.7 -5.28 15.4 -8 12 C-6.43108518 8.86217036 -4.97689907 6.49160748 -2.875 3.75 C-2.06675781 2.69039062 -2.06675781 2.69039062 -1.2421875 1.609375 C-0.83226562 1.07828125 -0.42234375 0.5471875 0 0 Z " fill="#EEAF34" transform="translate(441,235)"/>
</svg>
