<?xml version="1.0" encoding="UTF-8"?>
<svg version="1.1" xmlns="http://www.w3.org/2000/svg" width="512" height="512">
<path d="M0 0 C1.41522066 -0.01693143 2.83038584 -0.03950985 4.24542236 -0.06793213 C6.24612183 -0.10369318 8.2473053 -0.10812893 10.24832153 -0.11148071 C12.00269531 -0.12380737 12.00269531 -0.12380737 13.79251099 -0.13638306 C17.46165111 0.45193286 18.6337922 1.39133258 20.82254028 4.34945679 C21.32254028 7.84945679 21.32254028 7.84945679 20.82254028 11.34945679 C17.79716917 15.27123415 14.18762745 16.54023851 9.63504028 18.03695679 C-30.39764736 32.22593213 -63.03901798 64.33994605 -81.17745972 102.34945679 C-91.27056863 124.91773589 -96.62480709 148.51213453 -96.55245972 173.22445679 C-96.55125122 173.9915799 -96.55004272 174.758703 -96.54879761 175.54907227 C-96.43335979 202.6780163 -90.3813911 228.69487398 -77.16427612 252.56430054 C-76.17972275 254.34536295 -75.23010813 256.14204484 -74.28292847 257.94320679 C-55.13059329 293.65003476 -19.57521107 321.22613808 18.82254028 333.34945679 C33.62008283 337.66602761 48.42482837 340.55004331 63.82254028 341.34945679 C64.95175903 341.40875366 66.08097778 341.46805054 67.24441528 341.52914429 C109.95715478 342.504816 153.53033037 326.01377203 184.49710083 296.5664978 C185.94422467 295.16628533 187.38364469 293.75812348 188.82254028 292.34945679 C189.55730591 291.6649646 190.29207153 290.98047241 191.04910278 290.27523804 C207.73793713 274.41752094 219.30843397 252.90809542 227.8586731 231.79037476 C228.18963989 230.98358276 228.52060669 230.17679077 228.86160278 229.34555054 C229.14471313 228.6242395 229.42782349 227.90292847 229.71951294 227.15975952 C231.11795794 224.8646135 232.3151156 224.24927723 234.82254028 223.34945679 C238.17842043 223.48643149 240.08447886 223.59998876 242.48123169 226.03378296 C244.17572093 228.95919805 244.21008535 230.90299393 244.22097778 234.27523804 C244.2271814 235.45271606 244.23338501 236.63019409 244.23977661 237.84335327 C244.22583862 239.10349243 244.21190063 240.36363159 244.19754028 241.66195679 C244.18811401 242.96270142 244.17868774 244.26344604 244.16897583 245.60360718 C243.49425162 289.51444385 229.63862004 334.07903357 204.82254028 370.34945679 C204.21611694 371.24664429 204.21611694 371.24664429 203.59744263 372.16195679 C198.26683716 380.00468667 192.47958599 387.34775462 186.26785278 394.50961304 C184.69698221 396.33393078 183.16644221 398.19421309 181.68972778 400.09555054 C179.82254028 402.34945679 179.82254028 402.34945679 176.82254028 404.34945679 C174.87722778 404.26351929 174.87722778 404.26351929 172.69754028 403.97445679 C168.32355223 403.87390534 166.13829996 405.10628858 162.76004028 407.84945679 C159.76570804 410.71101283 159.76570804 410.71101283 158.40066528 414.48617554 C158.50502255 416.44287433 158.66246404 418.39652663 158.82254028 420.34945679 C155.87953344 425.00351412 151.77536127 427.83494988 147.32254028 430.91195679 C146.57987915 431.42862915 145.83721802 431.94530151 145.072052 432.47763062 C115.30392332 452.91346641 83.34905269 466.56203203 47.82254028 473.34945679 C46.91487915 473.52734741 46.00721802 473.70523804 45.072052 473.88851929 C-11.91555684 484.55980105 -75.71882541 471.19494083 -123.86495972 439.03695679 C-125.63639697 437.80866063 -127.40728802 436.57957611 -129.17745972 435.34945679 C-131.82606123 433.65121151 -134.49779394 431.99848188 -137.17745972 430.34945679 C-137.45718628 431.22473022 -137.73691284 432.10000366 -138.02511597 433.00180054 C-139.07952312 436.06494267 -140.29530403 438.95609249 -141.61495972 441.91195679 C-144.99844831 449.96645619 -147.03270107 458.1285161 -147.61495972 466.84945679 C-147.89451237 470.02807402 -148.26876438 471.5320661 -149.73995972 474.47445679 C-153.41201901 477.29911778 -155.60912747 476.92956247 -160.17745972 476.34945679 C-163.11541102 474.12381292 -163.19291529 473.27108609 -163.95089722 469.42758179 C-164.15884359 467.81914938 -164.35891053 466.2096851 -164.55245972 464.59945679 C-167.42618204 444.08789842 -175.28982094 425.54887396 -192.11495972 412.78695679 C-194.12719981 411.29559095 -196.1514333 409.82211916 -198.17745972 408.34945679 C-199.17745972 407.34945679 -199.17745972 407.34945679 -199.92745972 403.84945679 C-199.92131869 400.43504515 -199.2998586 399.47794413 -196.90011597 396.95883179 C-194.05540243 394.6525137 -191.15194909 392.48498762 -188.17745972 390.34945679 C-186.50368804 389.02505355 -184.83462633 387.69457923 -183.17745972 386.34945679 C-184.5320563 382.52391268 -186.26758302 379.68105445 -188.73995972 376.47445679 C-193.74291188 369.7195683 -198.02327163 362.64673262 -202.17745972 355.34945679 C-202.55547729 354.68671753 -202.93349487 354.02397827 -203.32296753 353.34115601 C-223.05599349 318.3660105 -232.67451003 278.7653024 -232.48995972 238.72445679 C-232.4881369 237.89695923 -232.48631409 237.06946167 -232.48443604 236.21688843 C-232.43466029 222.73625536 -231.71767846 209.61812668 -229.17745972 196.34945679 C-229.01648804 195.47611694 -228.85551636 194.6027771 -228.68966675 193.70297241 C-221.59072151 156.25109224 -205.90833905 121.18627405 -182.17745972 91.34945679 C-181.45042847 90.43035522 -180.72339722 89.51125366 -179.97433472 88.56430054 C-165.41672442 70.46908914 -165.41672442 70.46908914 -161.17745972 68.34945679 C-159.80106044 68.45796959 -158.42613494 68.58565337 -157.05245972 68.72445679 C-152.92013478 68.78415329 -151.06346043 67.90382737 -147.98995972 65.16195679 C-146.70766092 63.9026933 -145.43631113 62.63216012 -144.17745972 61.34945679 C-138.59577655 56.34945679 -138.59577655 56.34945679 -136.17745972 56.34945679 C-136.50745972 55.68945679 -136.83745972 55.02945679 -137.17745972 54.34945679 C-137.55245972 51.53695679 -137.55245972 51.53695679 -137.17745972 48.34945679 C-133.68081881 44.34397635 -129.71971569 41.41631779 -125.30245972 38.53695679 C-124.71593628 38.13025757 -124.12941284 37.72355835 -123.52511597 37.30453491 C-119.26868472 34.52148371 -116.21909753 33.74810481 -111.17745972 34.34945679 C-109.69245972 35.33945679 -109.69245972 35.33945679 -108.17745972 36.34945679 C-105.34670599 35.00991567 -102.54233186 33.6222827 -99.73995972 32.22445679 C-98.93751831 31.84547241 -98.1350769 31.46648804 -97.30831909 31.07601929 C-95.09984549 29.9578048 -93.11268771 28.8951296 -91.17745972 27.34945679 C-90.39033954 24.33581959 -90.39033954 24.33581959 -90.17745972 21.34945679 C-86.74889752 18.07459418 -83.42680888 16.46099666 -78.97042847 14.94711304 C-77.75572876 14.53396851 -76.54102905 14.12082397 -75.28952026 13.69515991 C-73.98182162 13.26593527 -72.67362209 12.83823406 -71.36495972 12.41195679 C-70.36778427 12.0828833 -70.36778427 12.0828833 -69.35046387 11.74716187 C-56.80368123 7.62536454 -44.21220385 4.52608873 -31.17745972 2.34945679 C-30.46009644 2.22103394 -29.74273315 2.09261108 -29.00363159 1.96029663 C-19.40509477 0.28313294 -9.71821597 0.11115312 0 0 Z " fill="#5792D3" transform="translate(250.17745971679688,17.650543212890625)"/>
<path d="M0 0 C1.41522066 -0.01693143 2.83038584 -0.03950985 4.24542236 -0.06793213 C6.24612183 -0.10369318 8.2473053 -0.10812893 10.24832153 -0.11148071 C12.00269531 -0.12380737 12.00269531 -0.12380737 13.79251099 -0.13638306 C17.46165111 0.45193286 18.6337922 1.39133258 20.82254028 4.34945679 C21.32254028 7.84945679 21.32254028 7.84945679 20.82254028 11.34945679 C17.79716917 15.27123415 14.18762745 16.54023851 9.63504028 18.03695679 C-30.39764736 32.22593213 -63.03901798 64.33994605 -81.17745972 102.34945679 C-91.27056863 124.91773589 -96.62480709 148.51213453 -96.55245972 173.22445679 C-96.55064697 174.37514145 -96.55064697 174.37514145 -96.54879761 175.54907227 C-96.43335979 202.6780163 -90.3813911 228.69487398 -77.16427612 252.56430054 C-76.17972275 254.34536295 -75.23010813 256.14204484 -74.28292847 257.94320679 C-55.13059329 293.65003476 -19.57521107 321.22613808 18.82254028 333.34945679 C33.62008283 337.66602761 48.42482837 340.55004331 63.82254028 341.34945679 C64.95175903 341.40875366 66.08097778 341.46805054 67.24441528 341.52914429 C109.95715478 342.504816 153.53033037 326.01377203 184.49710083 296.5664978 C185.94422467 295.16628533 187.38364469 293.75812348 188.82254028 292.34945679 C189.55730591 291.6649646 190.29207153 290.98047241 191.04910278 290.27523804 C207.73793713 274.41752094 219.30843397 252.90809542 227.8586731 231.79037476 C228.18963989 230.98358276 228.52060669 230.17679077 228.86160278 229.34555054 C229.14471313 228.6242395 229.42782349 227.90292847 229.71951294 227.15975952 C231.11795794 224.8646135 232.3151156 224.24927723 234.82254028 223.34945679 C238.17842043 223.48643149 240.08447886 223.59998876 242.48123169 226.03378296 C244.17572093 228.95919805 244.21008535 230.90299393 244.22097778 234.27523804 C244.2271814 235.45271606 244.23338501 236.63019409 244.23977661 237.84335327 C244.22583862 239.10349243 244.21190063 240.36363159 244.19754028 241.66195679 C244.18811401 242.96270142 244.17868774 244.26344604 244.16897583 245.60360718 C243.49425162 289.51444385 229.63862004 334.07903357 204.82254028 370.34945679 C204.21611694 371.24664429 204.21611694 371.24664429 203.59744263 372.16195679 C198.26683716 380.00468667 192.47958599 387.34775462 186.26785278 394.50961304 C184.69698221 396.33393078 183.16644221 398.19421309 181.68972778 400.09555054 C179.04844511 403.28387711 177.46808177 404.28029163 173.32254028 404.72445679 C169.82254028 404.34945679 169.82254028 404.34945679 167.88504028 402.78695679 C166.41336282 399.41075556 166.46846542 397.01082432 166.82254028 393.34945679 C168.73660278 390.70883179 168.73660278 390.70883179 171.44754028 388.09945679 C199.4323199 359.63934202 226.82254028 309.50831303 226.82254028 268.34945679 C226.26566528 269.24406616 225.70879028 270.13867554 225.13504028 271.06039429 C203.21676723 305.93785839 172.12528353 330.53218183 133.82254028 345.34945679 C132.6224231 345.83156616 131.42230591 346.31367554 130.18582153 346.81039429 C89.73664832 362.31356172 40.4703989 360.00672618 0.86160278 343.23226929 C-13.6590774 336.58975081 -27.61860091 329.25320018 -40.17745972 319.34945679 C-41.1816394 318.56570679 -42.18581909 317.78195679 -43.22042847 316.97445679 C-48.53172974 312.73114996 -53.51483881 308.29851856 -58.17745972 303.34945679 C-61.66219215 304.69214043 -64.97941926 306.20978775 -68.30245972 307.91195679 C-76.50320831 312.11203623 -86.18709508 313.2243892 -95.21456909 310.80307007 C-106.04448684 306.84810775 -113.58209718 299.56304273 -118.48605347 289.27133179 C-121.71312069 280.30117882 -121.7033588 268.35395342 -117.64230347 259.69711304 C-113.52098989 253.09202115 -108.08236159 247.05452609 -101.17745972 243.34945679 C-100.51745972 243.34945679 -99.85745972 243.34945679 -99.17745972 243.34945679 C-99.42914917 242.61235474 -99.68083862 241.87525269 -99.94015503 241.11581421 C-117.04658854 190.36489885 -116.52307874 140.09601122 -93.17745972 91.34945679 C-86.02221756 77.33389194 -76.98773751 64.06235804 -66.23995972 52.56820679 C-64.40300223 50.59208585 -62.69934807 48.55991058 -60.98995972 46.47445679 C-50.86248165 34.90019614 -37.4128474 25.06393788 -24.17745972 17.34945679 C-30.93780269 17.87795849 -37.4022218 18.87517666 -43.98995972 20.47445679 C-44.8807019 20.68819946 -45.77144409 20.90194214 -46.68917847 21.12216187 C-57.63409773 23.83827234 -68.64989254 27.1599835 -79.04464722 31.56430054 C-82.36167849 32.78540546 -84.81197219 32.22199059 -88.17745972 31.34945679 C-90.17745972 29.66195679 -90.17745972 29.66195679 -91.17745972 27.34945679 C-91.17745972 24.34945679 -91.17745972 24.34945679 -90.17745972 21.34945679 C-86.71337292 18.10394154 -83.43877706 16.46506239 -78.97042847 14.94711304 C-77.75572876 14.53396851 -76.54102905 14.12082397 -75.28952026 13.69515991 C-73.98182162 13.26593527 -72.67362209 12.83823406 -71.36495972 12.41195679 C-70.70017609 12.19257446 -70.03539246 11.97319214 -69.35046387 11.74716187 C-56.80368123 7.62536454 -44.21220385 4.52608873 -31.17745972 2.34945679 C-30.10141479 2.15682251 -30.10141479 2.15682251 -29.00363159 1.96029663 C-19.40509477 0.28313294 -9.71821597 0.11115312 0 0 Z " fill="#090F3F" transform="translate(250.17745971679688,17.650543212890625)"/>
<path d="M0 0 C2.74979736 1.61195018 3.0551001 3.15611695 4.125 6.1875 C3.93734063 11.91111075 0.87107117 14.03581028 -3 18 C-16.40954593 33.06977543 -27.68370662 49.1052535 -37 67 C-37.6417736 68.20320688 -38.28369147 69.40633682 -38.92578125 70.609375 C-62.56041218 116.09686867 -68.28899163 170.10894775 -56.50585938 219.82568359 C-56.03932365 221.83097665 -55.61904557 223.84688201 -55.203125 225.86328125 C-49.58180525 251.39786106 -37.1699558 276.79653905 -22 298 C-20.6612324 299.99636647 -19.3266122 301.99553552 -18 304 C-12.87715276 293.90127245 -9.13010728 283.25782715 -8.5625 271.875 C-8.31633364 268.03365977 -8.08120023 267.11503367 -5.75 263.8125 C-3 262 -3 262 -0.4375 261.4375 C2.93073872 262.21478586 3.89736886 263.23472148 6 266 C6.79088014 269.0454046 7.05939191 272.12445236 7.375 275.25 C10.41315123 299.37559311 22.01752829 316.11909807 41 331 C41.33 331.33 41.66 331.66 42 332 C41.87993183 336.36421685 41.60410759 338.38552551 38.49609375 341.546875 C37.48675781 342.27390625 36.47742188 343.0009375 35.4375 343.75 C32.43369454 345.88026073 32.43369454 345.88026073 30 348 C30 348.99 30 349.98 30 351 C32.05063453 352.6653638 34.03494947 354.0810269 36.25 355.5 C36.92111816 355.93505859 37.59223633 356.37011719 38.28369141 356.81835938 C86.15200694 387.35823577 142.80623476 399.97657292 199 390 C199.92941406 389.83902832 200.85882813 389.67805664 201.81640625 389.51220703 C234.66581093 383.63252507 266.51170327 369.92624159 293.1953125 349.8671875 C294.21794189 349.10063843 294.21794189 349.10063843 295.26123047 348.31860352 C296.54932505 347.34312408 297.82777969 346.35472776 299.09423828 345.35131836 C301.64876615 343.38920212 303.52382654 342.06976652 306.74609375 341.59765625 C310.11554546 342.1991355 311.6993365 343.50213677 314 346 C314.69318474 349.61996476 314.48665025 351.27184502 312.43359375 354.34375 C309.42345593 357.62929369 306.15432233 360.03727496 302.5 362.5625 C301.75733887 363.07917236 301.01467773 363.59584473 300.24951172 364.12817383 C270.48138304 384.56400962 238.5265124 398.21257525 203 405 C202.09233887 405.17789062 201.18467773 405.35578125 200.24951172 405.5390625 C143.26190287 416.21034426 79.4586343 402.84548404 31.3125 370.6875 C29.54106275 369.45920385 27.7701717 368.23011932 26 367 C23.35139849 365.30175472 20.67966578 363.6490251 18 362 C17.72027344 362.87527344 17.44054687 363.75054687 17.15234375 364.65234375 C16.0979366 367.71548588 14.88215569 370.60663571 13.5625 373.5625 C10.1790114 381.6169994 8.14475865 389.77905932 7.5625 398.5 C7.28294734 401.67861723 6.90869534 403.18260932 5.4375 406.125 C1.7654407 408.949661 -0.43166775 408.58010568 -5 408 C-7.9379513 405.77435613 -8.01545558 404.9216293 -8.7734375 401.078125 C-8.98138387 399.46969259 -9.18145081 397.86022831 -9.375 396.25 C-12.24872232 375.73844163 -20.11236122 357.19941718 -36.9375 344.4375 C-38.94974009 342.94613416 -40.97397358 341.47266238 -43 340 C-44 339 -44 339 -44.75 335.5 C-44.74385897 332.08558836 -44.12239889 331.12848734 -41.72265625 328.609375 C-38.87794271 326.30305691 -35.97448938 324.13553083 -33 322 C-31.32622832 320.67559676 -29.65716661 319.34512244 -28 318 C-29.35459658 314.17445589 -31.0901233 311.33159766 -33.5625 308.125 C-38.56545217 301.37011151 -42.84581192 294.29727583 -47 287 C-47.37801758 286.33726074 -47.75603516 285.67452148 -48.14550781 284.99169922 C-67.87853378 250.01655371 -77.49705032 210.41584561 -77.3125 170.375 C-77.31067719 169.54750244 -77.30885437 168.72000488 -77.30697632 167.86743164 C-77.25720058 154.38679857 -76.54021874 141.26866989 -74 128 C-73.83902832 127.12666016 -73.67805664 126.25332031 -73.51220703 125.35351562 C-66.41326179 87.90163545 -50.73087933 52.83681727 -27 23 C-26.27296875 22.08089844 -25.5459375 21.16179687 -24.796875 20.21484375 C-8.00809889 -0.65372236 -8.00809889 -0.65372236 0 0 Z " fill="#090E3F" transform="translate(95,86)"/>
<path d="M0 0 C2.10358381 1.54262813 2.84054159 2.68108317 4 5 C4.31037025 7.07193115 4.61692966 9.14454209 4.89941406 11.22045898 C7.49164137 29.92384834 13.84874885 46.85001662 28 60 C29.9781405 61.42664321 31.97837958 62.82316808 34 64.1875 C38.83788071 67.53680203 38.83788071 67.53680203 40.3125 71.75 C40.00605798 74.93699704 39.68031894 76.35285139 38 79 C35.8984375 80.640625 35.8984375 80.640625 33.375 82.25 C17.24645139 93.25727096 9.41340537 109.8878567 5.578125 128.65625 C5.09055471 131.47625111 4.77150769 134.21239518 4.5625 137.0625 C3.94376328 141.39365705 3.39181424 143.23299365 0 146 C-3.79347532 146.60966568 -5.93012615 146.74596709 -9.12890625 144.515625 C-11.80030813 140.92401161 -11.95126767 137.55883247 -12.4375 133.1875 C-15.12150572 113.48787537 -22.61587148 95.27841914 -38.828125 82.828125 C-40.55364711 81.63504972 -42.29791956 80.46825413 -44.06640625 79.33984375 C-46 78 -46 78 -47 76 C-47.375 73.1875 -47.375 73.1875 -47 70 C-44.82523606 67.24529901 -42.50643522 65.38655861 -39.72265625 63.26171875 C-23.68419211 50.93014155 -15.2189853 34.01181481 -12.45703125 14.08203125 C-12.1682623 11.70030441 -11.90794014 9.31480122 -11.6875 6.92578125 C-10.15104118 0.38710137 -6.27436244 -0.79855522 0 0 Z " fill="#0A0E3E" transform="translate(308,137)"/>
<path d="M0 0 C7.22829485 5.22380973 12.08835422 11.86758778 14.44921875 20.4921875 C15.65880875 31.72227576 14.02285481 41.6659779 7.19921875 50.8671875 C-1.28510326 58.96585851 -9.57018359 61.97310942 -21.34155273 61.99633789 C-30.02796452 61.73965078 -37.04248733 58.03120828 -43.48828125 52.3046875 C-50.51335939 44.60973638 -52.96388748 34.77548167 -52.81640625 24.6484375 C-51.993282 14.8677846 -46.68682864 7.93064052 -39.55078125 1.4921875 C-36.67078302 -0.53044283 -33.77153453 -2.10026956 -30.55078125 -3.5078125 C-29.58140625 -3.9409375 -28.61203125 -4.3740625 -27.61328125 -4.8203125 C-17.84859181 -7.01238564 -8.59712996 -5.08191755 0 0 Z " fill="#0B1040" transform="translate(324.55078125,393.5078125)"/>
<path d="M0 0 C7.58274015 4.04053649 13.2961711 10.30414476 15.94921875 18.484375 C16.89945136 28.69937558 16.21200401 35.81637228 9.57421875 43.921875 C5.61048734 48.17921614 1.63074308 50.27872959 -3.80078125 52.171875 C-4.79078125 52.666875 -4.79078125 52.666875 -5.80078125 53.171875 C-15.57287986 54.19084597 -22.51386656 52.04907836 -30.11328125 45.921875 C-35.38992958 41.03414298 -38.28652026 35.05313911 -39.0390625 27.91015625 C-39.32435003 18.58575854 -36.21200795 11.74764808 -29.83984375 4.96875 C-21.20847909 -2.63743341 -10.69198961 -4.06948258 0 0 Z " fill="#0B1041" transform="translate(104.80078125,176.828125)"/>
<path d="M0 0 C5.95885762 2.69072447 10.00030408 7.3170144 12.890625 13.09765625 C14.43568938 21.13199104 14.24524584 27.84707611 10.21875 35.11328125 C6.89255946 39.47699912 2.34824351 41.931347 -2.484375 44.34765625 C-9.84122745 45.086508 -16.21252805 45.06861532 -22.54296875 40.9765625 C-28.06695963 36.3417452 -31.09550408 31.54746214 -31.7578125 24.39453125 C-31.98637559 16.97502173 -31.57184822 11.95317505 -26.484375 6.34765625 C-18.96692215 -1.15057038 -10.34279717 -2.71579737 0 0 Z " fill="#0B1040" transform="translate(202.484375,389.65234375)"/>
<path d="M0 0 C0.66 0 1.32 0 2 0 C2.40089844 0.88300781 2.80179688 1.76601563 3.21484375 2.67578125 C8.38411842 13.7159302 15.1339882 22.58865547 24 31 C22.61027754 34.19845671 21.02540776 36.06418136 18.4375 38.375 C11.34663254 45.25883483 6.26274287 54.15178294 2 63 C1.34 63 0.68 63 0 63 C-0.44988281 62.05640625 -0.89976563 61.1128125 -1.36328125 60.140625 C-6.06118674 50.64292874 -11.45820798 43.4565052 -19 36 C-19.60199219 35.39671875 -20.20398438 34.7934375 -20.82421875 34.171875 C-21.21222656 33.78515625 -21.60023437 33.3984375 -22 33 C-20.53629169 29.54102614 -18.63998898 27.57218512 -15.875 25.0625 C-8.59798537 17.96154218 -3.83179935 9.33266468 0 0 Z " fill="#F3B334" transform="translate(93,389)"/>
<path d="M0 0 C2.28552297 2.88029357 3.97320422 5.7830575 5.625 9.0625 C10.28776302 17.726888 16.32111568 24.89627144 24 31 C24 31.66 24 32.32 24 33 C22.89524769 34.00541491 21.73826757 34.95363828 20.5625 35.875 C11.60107223 43.53583118 5.80885618 53.36394164 1 64 C-1.39560394 60.96604651 -3.26037552 57.81994682 -5.125 54.4375 C-9.88090255 46.20535513 -15.38461094 38.77166329 -23 33 C-21.4281491 29.14182051 -18.95541898 26.889743 -16 24 C-8.93219223 17.07319587 -4.62368387 8.63926419 0 0 Z " fill="#F3B334" transform="translate(304,178)"/>
<path d="M0 0 C5.10092935 2.76207528 8.49730535 7.00692244 10.7265625 12.28125 C11.66977519 19.34437755 10.98222617 25.45553565 6.7265625 31.28125 C0.74518907 36.96355476 -4.04685236 37.73860499 -12.140625 37.59375 C-17.69361561 37.03983572 -20.49802789 34.27266203 -24.0234375 30.28125 C-27.72480801 25.34608931 -28.78815218 22.02650136 -28.65234375 15.87890625 C-27.81416875 10.13265497 -24.38827606 6.04354975 -20.0859375 2.34375 C-14.34847974 -1.86371903 -6.80225739 -2.15054185 0 0 Z " fill="#F4B434" transform="translate(314.2734375,403.71875)"/>
<path d="M0 0 C0.46148437 0.92039062 0.92296875 1.84078125 1.3984375 2.7890625 C6.80881486 13.36625872 12.92695036 23.32034942 20.86328125 32.21484375 C21.56839844 33.13394531 22.27351563 34.05304688 23 35 C21.85235318 38.44294045 20.58758763 39.50780453 17.421875 41.1953125 C11.46699647 43.17386892 4.39615403 43.24314049 -1.5078125 41.08203125 C-7.48625947 37.5699778 -11.79164458 32.60577931 -14 26 C-14.89401778 19.17723274 -14.71150157 13.41349357 -10.5703125 7.7578125 C-3.64 0 -3.64 0 0 0 Z " fill="#F3B334" transform="translate(158,273)"/>
<path d="M0 0 C4.6314797 2.53420588 8.31032562 4.93097685 10 10 C10.7808157 16.69270597 10.7808157 16.69270597 8.80078125 20.0078125 C5.22918255 24.3081253 2.30929445 26.74341173 -3.375 27.375 C-8.44549667 26.85046586 -11.15575392 24.71705669 -14.8125 21.3125 C-16.68887123 17.65851392 -17.23498603 14.09445362 -17 10 C-13.43605124 2.73502753 -8.35351497 -1.65432355 0 0 Z " fill="#F1B234" transform="translate(97,189)"/>
<path d="M0 0 C2.58859984 2.17108374 2.93540857 3.62052533 3.5 6.9375 C2.67164468 12.01117634 -1.30735412 14.586345 -5.3046875 17.4921875 C-6.4903384 18.29309076 -7.68052382 19.08731939 -8.875 19.875 C-9.46152344 20.29007813 -10.04804688 20.70515625 -10.65234375 21.1328125 C-13.97820721 23.32568951 -15.80452157 24.00858588 -19.82421875 23.83203125 C-24.46662658 22.61575466 -24.46662658 22.61575466 -26 20 C-26.5 17.125 -26.5 17.125 -26 14 C-22.49110217 10.00194355 -18.54470523 7.06845753 -14.125 4.1875 C-13.24521484 3.57745117 -13.24521484 3.57745117 -12.34765625 2.95507812 C-8.09718917 0.17592657 -5.03627903 -0.57610572 0 0 Z " fill="#090F40" transform="translate(139,52)"/>
<path d="M0 0 C2.5625 1.5 2.5625 1.5 4 4 C4.7099846 8.9698922 4.79117716 10.84919686 1.9375 15 C-1.77807226 17.52975133 -3.5882483 17.7878128 -8 17 C-10.93052231 15.00475077 -12.64521503 13.57163515 -13.4453125 10.02734375 C-13.63099028 6.71609006 -13.21285614 4.37018459 -11.5625 1.5 C-7.74317604 -0.73570183 -4.31481639 -0.76004105 0 0 Z " fill="#F2B334" transform="translate(198,403)"/>
<path d="M0 0 C0.33 0 0.66 0 1 0 C0.67 2.64 0.34 5.28 0 8 C-0.99 8 -1.98 8 -3 8 C-3 4.41465407 -1.97637955 2.92504174 0 0 Z " fill="#4573B0" transform="translate(477,285)"/>
</svg>
