<?xml version="1.0" encoding="UTF-8"?>
<svg version="1.1" xmlns="http://www.w3.org/2000/svg" width="64" height="64">
<path d="M0 0 C1.32 0 2.64 0 4 0 C4 1.32 4 2.64 4 4 C5.19625 4.0825 6.3925 4.165 7.625 4.25 C14.43931238 5.13778013 18.56486674 9.11271457 22.7421875 14.28515625 C26.43141368 19.31487766 26.23566831 23.990458 26 30 C25.29875 29.855625 24.5975 29.71125 23.875 29.5625 C22.92625 29.376875 21.9775 29.19125 21 29 C19.96875 28.773125 18.9375 28.54625 17.875 28.3125 C14.80363259 27.66770514 14.80363259 27.66770514 12 30 C8.24301443 30.37569856 7.24633524 30.1642235 4 28 C4.02094727 28.58491211 4.04189453 29.16982422 4.06347656 29.77246094 C4.14680115 32.43146465 4.19870897 35.09019355 4.25 37.75 C4.30027344 39.13058594 4.30027344 39.13058594 4.3515625 40.5390625 C4.45005258 47.33487804 4.45005258 47.33487804 2.234375 50.609375 C-1.236221 52.76939629 -4.04448263 52.7943457 -8 52 C-10.5 50.375 -10.5 50.375 -12 48 C-12.25 44.75 -12.25 44.75 -12 42 C-10.68 42 -9.36 42 -8 42 C-7.67 43.65 -7.34 45.3 -7 47 C-3.70924004 46.62095792 -3.70924004 46.62095792 -1 45 C-0.76298761 42.14122091 -0.57780818 39.30116703 -0.4375 36.4375 C-0.39431641 35.63119141 -0.35113281 34.82488281 -0.30664062 33.99414062 C-0.20024738 31.99631195 -0.09959112 29.9981793 0 28 C-0.99 28.66 -1.98 29.32 -3 30 C-6.75698557 30.37569856 -7.75366476 30.1642235 -11 28 C-13.93443402 28.26656572 -13.93443402 28.26656572 -17 29 C-17.94875 29.185625 -18.8975 29.37125 -19.875 29.5625 C-20.926875 29.7790625 -20.926875 29.7790625 -22 30 C-22.54924351 23.40907788 -21.9620638 18.42990359 -18 13 C-13.4779757 8.20419969 -9.00356398 4.17793618 -2.1875 3.875 C-1.465625 3.91625 -0.74375 3.9575 0 4 C0 2.68 0 1.36 0 0 Z M-11.3125 13.25 C-14.43525498 16.44537719 -15.52913302 18.83254357 -17 23 C-16.38511719 23.06058594 -15.77023438 23.12117188 -15.13671875 23.18359375 C-14.32847656 23.26738281 -13.52023438 23.35117187 -12.6875 23.4375 C-11.88699219 23.51871094 -11.08648437 23.59992187 -10.26171875 23.68359375 C-8 24 -8 24 -5 25 C-4.34 24.67 -3.68 24.34 -3 24 C-1.35643193 23.90414869 0.29114642 23.87016489 1.9375 23.875 C2.81277344 23.87242188 3.68804687 23.86984375 4.58984375 23.8671875 C7 24 7 24 10 25 C10.66 24.67 11.32 24.34 12 24 C13.53668865 23.77532169 15.07968054 23.59203195 16.625 23.4375 C17.44226562 23.35371094 18.25953125 23.26992188 19.1015625 23.18359375 C19.72804687 23.12300781 20.35453125 23.06242187 21 23 C18.97079438 17.03174817 16.34630644 13.43612714 11 10 C2.69915331 6.90476903 -4.28463963 7.93967159 -11.3125 13.25 Z " fill="#FFFFFF" transform="translate(30,12)"/>
<path d="M0 0 C1.32 0 2.64 0 4 0 C4 2.64 4 5.28 4 8 C2.68 8 1.36 8 0 8 C0 5.36 0 2.72 0 0 Z " fill="#FFFFFF" transform="translate(50,12)"/>
<path d="M0 0 C1.32 0 2.64 0 4 0 C4 2.64 4 5.28 4 8 C2.68 8 1.36 8 0 8 C0 5.36 0 2.72 0 0 Z " fill="#FFFFFF" transform="translate(10,12)"/>
<path d="M0 0 C1.32 0 2.64 0 4 0 C4 2.64 4 5.28 4 8 C2.68 8 1.36 8 0 8 C0 5.36 0 2.72 0 0 Z " fill="#FFFFFF" transform="translate(40,6)"/>
<path d="M0 0 C1.32 0 2.64 0 4 0 C4 2.64 4 5.28 4 8 C2.68 8 1.36 8 0 8 C0 5.36 0 2.72 0 0 Z " fill="#FFFFFF" transform="translate(20,6)"/>
<path d="M0 0 C1.32 0 2.64 0 4 0 C4 2.64 4 5.28 4 8 C2.68 8 1.36 8 0 8 C0 5.36 0 2.72 0 0 Z " fill="#FFFFFF" transform="translate(50,0)"/>
<path d="M0 0 C1.32 0 2.64 0 4 0 C4 2.64 4 5.28 4 8 C2.68 8 1.36 8 0 8 C0 5.36 0 2.72 0 0 Z " fill="#FFFFFF" transform="translate(30,0)"/>
<path d="M0 0 C1.32 0 2.64 0 4 0 C4 2.64 4 5.28 4 8 C2.68 8 1.36 8 0 8 C0 5.36 0 2.72 0 0 Z " fill="#FFFFFF" transform="translate(10,0)"/>
</svg>
