<?xml version="1.0" encoding="UTF-8"?>
<svg version="1.1" xmlns="http://www.w3.org/2000/svg" width="512" height="512">
<path d="M0 0 C1.0209375 -0.01160156 1.0209375 -0.01160156 2.0625 -0.0234375 C4.70265828 0.51949827 5.41061913 1.18148016 7 3.375 C7.28040202 5.89795405 7.37942981 8.17100558 7.34057617 10.69213867 C7.34101425 11.43384811 7.34145233 12.17555756 7.34190369 12.93974304 C7.33981383 15.39108616 7.31647419 17.84174513 7.29296875 20.29296875 C7.28737348 21.99261603 7.28310306 23.69226815 7.28010559 25.391922 C7.26865134 29.86531941 7.23917927 34.33842459 7.20599365 38.81170654 C7.17530521 43.37638394 7.16160288 47.94110855 7.14648438 52.50585938 C7.11431005 61.46236797 7.06310675 70.41865969 7 79.375 C8.08706741 79.43662827 9.17413483 79.49825653 10.29414368 79.56175232 C11.74078217 79.64706004 13.18741154 79.73252255 14.6340332 79.81811523 C15.34809578 79.85818443 16.06215836 79.89825363 16.79785919 79.93953705 C22.71279875 80.2944652 28.40433429 81.12838332 34.1875 82.4375 C35.15381348 82.65374023 36.12012695 82.86998047 37.11572266 83.09277344 C63.3118351 89.2801595 87.08384102 101.78532131 106.671875 120.19921875 C108.48568315 121.89433811 110.3022971 123.46746535 112.25 125 C115.90971238 128.16066069 118.93506024 131.6424496 122 135.375 C122.76441406 136.30183594 123.52882813 137.22867188 124.31640625 138.18359375 C145.22938533 164.12381097 159.11270007 197.78396448 159 231.375 C160.41820793 231.36500725 160.41820793 231.36500725 161.86506653 231.35481262 C170.76736229 231.29404538 179.66961607 231.24904852 188.57207203 231.21956348 C193.14912866 231.20389541 197.72601811 231.18263641 202.30297852 231.14868164 C206.71851435 231.11612874 211.1338892 231.09815559 215.54953575 231.09036827 C217.23568952 231.08481742 218.9218343 231.07397815 220.60791969 231.05780983 C222.96642854 231.03608925 225.32426885 231.03303076 227.68286133 231.03442383 C228.38273163 231.023638 229.08260193 231.01285217 229.80368042 231.0017395 C232.69179074 231.02024564 234.55314087 231.05121476 236.93241882 232.77519226 C238.26198687 234.76759649 238.40209119 235.99097568 238.375 238.375 C238.38273437 239.055625 238.39046875 239.73625 238.3984375 240.4375 C237.85550173 243.07765828 237.19351984 243.78561913 235 245.375 C232.47704595 245.65540202 230.20399442 245.75442981 227.68286133 245.71557617 C226.94115189 245.71601425 226.19944244 245.71645233 225.43525696 245.71690369 C222.98391384 245.71481383 220.53325487 245.69147419 218.08203125 245.66796875 C216.38238397 245.66237348 214.68273185 245.65810306 212.983078 245.65510559 C208.50968059 245.64365134 204.03657541 245.61417927 199.56329346 245.58099365 C194.99861606 245.55030521 190.43389145 245.53660288 185.86914062 245.52148438 C176.91263203 245.48931005 167.95634031 245.43810675 159 245.375 C158.9081694 247.00437752 158.9081694 247.00437752 158.81448364 248.66667175 C158.72950472 250.11266984 158.64436217 251.55865832 158.55908203 253.00463867 C158.5193074 253.71811211 158.47953278 254.43158554 158.43855286 255.16667938 C158.0814882 261.13132588 157.20842752 266.85949756 155.875 272.6875 C155.65545654 273.66041992 155.43591309 274.63333984 155.2097168 275.63574219 C150.47398192 295.71879634 141.91901287 319.45598713 127 334.375 C125.62509858 334.40155389 124.25006104 334.42118572 122.875 334.4375 C118.79837803 334.86146868 116.79012532 335.92903725 113.9375 338.875 C110.80761859 342.84617072 110.67494514 345.4573412 111.05078125 350.3515625 C111 352.375 111 352.375 109.0625 354.9375 C107.5465625 356.1440625 107.5465625 356.1440625 106 357.375 C105.40316406 357.94476563 104.80632812 358.51453125 104.19140625 359.1015625 C85.13394775 377.18633408 59.67194787 388.53792002 34.3125 394.25 C33.42353027 394.45334961 32.53456055 394.65669922 31.61865234 394.86621094 C25.9583745 396.05060997 20.39063213 396.61291889 14.62963867 396.93408203 C13.89324913 396.97751236 13.15685959 397.02094269 12.39815521 397.06568909 C10.59892302 397.17142699 8.79948089 397.27358249 7 397.375 C7.00999275 398.79320793 7.00999275 398.79320793 7.02018738 400.24006653 C7.08095462 409.14236229 7.12595148 418.04461607 7.15543652 426.94707203 C7.17110459 431.52412866 7.19236359 436.10101811 7.22631836 440.67797852 C7.25887126 445.09351435 7.27684441 449.5088892 7.28463173 453.92453575 C7.29018258 455.61068952 7.30102185 457.2968343 7.31719017 458.98291969 C7.33891075 461.34142854 7.34196924 463.69926885 7.34057617 466.05786133 C7.351362 466.75773163 7.36214783 467.45760193 7.3732605 468.17868042 C7.35475436 471.06679074 7.32378524 472.92814087 5.59980774 475.30741882 C3.60740351 476.63698687 2.38402432 476.77709119 0 476.75 C-0.680625 476.75773437 -1.36125 476.76546875 -2.0625 476.7734375 C-4.70265828 476.23050173 -5.41061913 475.56851984 -7 473.375 C-7.28040202 470.85204595 -7.37942981 468.57899442 -7.34057617 466.05786133 C-7.34101425 465.31615189 -7.34145233 464.57444244 -7.34190369 463.81025696 C-7.33981383 461.35891384 -7.31647419 458.90825487 -7.29296875 456.45703125 C-7.28737348 454.75738397 -7.28310306 453.05773185 -7.28010559 451.358078 C-7.26865134 446.88468059 -7.23917927 442.41157541 -7.20599365 437.93829346 C-7.17530521 433.37361606 -7.16160288 428.80889145 -7.14648438 424.24414062 C-7.11431005 415.28763203 -7.06310675 406.33134031 -7 397.375 C-8.08706741 397.31337173 -9.17413483 397.25174347 -10.29414368 397.18824768 C-11.74078217 397.10293996 -13.18741154 397.01747745 -14.6340332 396.93188477 C-15.34809578 396.89181557 -16.06215836 396.85174637 -16.79785919 396.81046295 C-22.71279875 396.4555348 -28.40433429 395.62161668 -34.1875 394.3125 C-35.15381348 394.09625977 -36.12012695 393.88001953 -37.11572266 393.65722656 C-63.3118351 387.4698405 -87.08384102 374.96467869 -106.671875 356.55078125 C-108.48568315 354.85566189 -110.3022971 353.28253465 -112.25 351.75 C-115.90971238 348.58933931 -118.93506024 345.1075504 -122 341.375 C-122.76441406 340.44816406 -123.52882813 339.52132813 -124.31640625 338.56640625 C-145.22938533 312.62618903 -159.11270007 278.96603552 -159 245.375 C-160.41820793 245.38499275 -160.41820793 245.38499275 -161.86506653 245.39518738 C-170.76736229 245.45595462 -179.66961607 245.50095148 -188.57207203 245.53043652 C-193.14912866 245.54610459 -197.72601811 245.56736359 -202.30297852 245.60131836 C-206.71851435 245.63387126 -211.1338892 245.65184441 -215.54953575 245.65963173 C-217.23568952 245.66518258 -218.9218343 245.67602185 -220.60791969 245.69219017 C-222.96642854 245.71391075 -225.32426885 245.71696924 -227.68286133 245.71557617 C-228.38273163 245.726362 -229.08260193 245.73714783 -229.80368042 245.7482605 C-232.69179074 245.72975436 -234.55314087 245.69878524 -236.93241882 243.97480774 C-238.26198687 241.98240351 -238.40209119 240.75902432 -238.375 238.375 C-238.38273437 237.694375 -238.39046875 237.01375 -238.3984375 236.3125 C-237.85550173 233.67234172 -237.19351984 232.96438087 -235 231.375 C-232.47704595 231.09459798 -230.20399442 230.99557019 -227.68286133 231.03442383 C-226.94115189 231.03398575 -226.19944244 231.03354767 -225.43525696 231.03309631 C-222.98391384 231.03518617 -220.53325487 231.05852581 -218.08203125 231.08203125 C-216.38238397 231.08762652 -214.68273185 231.09189694 -212.983078 231.09489441 C-208.50968059 231.10634866 -204.03657541 231.13582073 -199.56329346 231.16900635 C-194.99861606 231.19969479 -190.43389145 231.21339712 -185.86914062 231.22851562 C-176.91263203 231.26068995 -167.95634031 231.31189325 -159 231.375 C-159.03609375 230.44429687 -159.0721875 229.51359375 -159.109375 228.5546875 C-158.97069007 224.52291847 -157.89890677 223.11285639 -155 220.375 C-153.68 220.375 -152.36 220.375 -151 220.375 C-150.72288474 218.14904152 -150.47933071 215.91888779 -150.25 213.6875 C-150.11078125 212.44613281 -149.9715625 211.20476562 -149.828125 209.92578125 C-150.03426633 205.66708878 -151.24991501 204.49743693 -154 201.375 C-155.25179076 194.17368688 -150.92637169 185.72914663 -148 179.375 C-146 177.375 -146 177.375 -142.375 177.25 C-141.26125 177.29125 -140.1475 177.3325 -139 177.375 C-138.731875 176.50875 -138.46375 175.6425 -138.1875 174.75 C-137 171.375 -137 171.375 -135.25 168.3125 C-133.65122568 165.47860959 -133.65122568 165.47860959 -134.875 162.9375 C-135.24625 162.091875 -135.6175 161.24625 -136 160.375 C-135.09787744 144.9100418 -116.96112442 128.6221736 -105.99487305 118.64135742 C-79.33289213 95.10910659 -42.84774957 79.23374279 -7 79.375 C-7.00999275 77.95679207 -7.00999275 77.95679207 -7.02018738 76.50993347 C-7.08095462 67.60763771 -7.12595148 58.70538393 -7.15543652 49.80292797 C-7.17110459 45.22587134 -7.19236359 40.64898189 -7.22631836 36.07202148 C-7.25887126 31.65648565 -7.27684441 27.2411108 -7.28463173 22.82546425 C-7.29018258 21.13931048 -7.30102185 19.4531657 -7.31719017 17.76708031 C-7.33891075 15.40857146 -7.34196924 13.05073115 -7.34057617 10.69213867 C-7.351362 9.99226837 -7.36214783 9.29239807 -7.3732605 8.57131958 C-7.35475436 5.68320926 -7.32378524 3.82185913 -5.59980774 1.44258118 C-3.60740351 0.11301313 -2.38402432 -0.02709119 0 0 Z " fill="#F6B534" transform="translate(256,17.625)"/>
<path d="M0 0 C1.0209375 -0.01160156 1.0209375 -0.01160156 2.0625 -0.0234375 C4.70265828 0.51949827 5.41061913 1.18148016 7 3.375 C7.28040202 5.89795405 7.37942981 8.17100558 7.34057617 10.69213867 C7.34101425 11.43384811 7.34145233 12.17555756 7.34190369 12.93974304 C7.33981383 15.39108616 7.31647419 17.84174513 7.29296875 20.29296875 C7.28737348 21.99261603 7.28310306 23.69226815 7.28010559 25.391922 C7.26865134 29.86531941 7.23917927 34.33842459 7.20599365 38.81170654 C7.17530521 43.37638394 7.16160288 47.94110855 7.14648438 52.50585938 C7.11431005 61.46236797 7.06310675 70.41865969 7 79.375 C8.08706741 79.43662827 9.17413483 79.49825653 10.29414368 79.56175232 C11.74078217 79.64706004 13.18741154 79.73252255 14.6340332 79.81811523 C15.34809578 79.85818443 16.06215836 79.89825363 16.79785919 79.93953705 C22.71279875 80.2944652 28.40433429 81.12838332 34.1875 82.4375 C35.15381348 82.65374023 36.12012695 82.86998047 37.11572266 83.09277344 C63.3118351 89.2801595 87.08384102 101.78532131 106.671875 120.19921875 C108.48568315 121.89433811 110.3022971 123.46746535 112.25 125 C115.90971238 128.16066069 118.93506024 131.6424496 122 135.375 C122.76441406 136.30183594 123.52882813 137.22867188 124.31640625 138.18359375 C145.22938533 164.12381097 159.11270007 197.78396448 159 231.375 C160.41820793 231.36500725 160.41820793 231.36500725 161.86506653 231.35481262 C170.76736229 231.29404538 179.66961607 231.24904852 188.57207203 231.21956348 C193.14912866 231.20389541 197.72601811 231.18263641 202.30297852 231.14868164 C206.71851435 231.11612874 211.1338892 231.09815559 215.54953575 231.09036827 C217.23568952 231.08481742 218.9218343 231.07397815 220.60791969 231.05780983 C222.96642854 231.03608925 225.32426885 231.03303076 227.68286133 231.03442383 C228.38273163 231.023638 229.08260193 231.01285217 229.80368042 231.0017395 C232.69179074 231.02024564 234.55314087 231.05121476 236.93241882 232.77519226 C238.26198687 234.76759649 238.40209119 235.99097568 238.375 238.375 C238.38273437 239.055625 238.39046875 239.73625 238.3984375 240.4375 C237.85550173 243.07765828 237.19351984 243.78561913 235 245.375 C232.47704595 245.65540202 230.20399442 245.75442981 227.68286133 245.71557617 C226.94115189 245.71601425 226.19944244 245.71645233 225.43525696 245.71690369 C222.98391384 245.71481383 220.53325487 245.69147419 218.08203125 245.66796875 C216.38238397 245.66237348 214.68273185 245.65810306 212.983078 245.65510559 C208.50968059 245.64365134 204.03657541 245.61417927 199.56329346 245.58099365 C194.99861606 245.55030521 190.43389145 245.53660288 185.86914062 245.52148438 C176.91263203 245.48931005 167.95634031 245.43810675 159 245.375 C158.9081694 247.00437752 158.9081694 247.00437752 158.81448364 248.66667175 C158.72950472 250.11266984 158.64436217 251.55865832 158.55908203 253.00463867 C158.5193074 253.71811211 158.47953278 254.43158554 158.43855286 255.16667938 C158.0814882 261.13132588 157.20842752 266.85949756 155.875 272.6875 C155.65545654 273.66041992 155.43591309 274.63333984 155.2097168 275.63574219 C150.47398192 295.71879634 141.91901287 319.45598713 127 334.375 C119.72234763 334.96190745 119.72234763 334.96190745 117 332.75 C115.6905813 329.6401306 115.64924916 327.75097684 116 324.375 C117.41340684 321.78858134 118.83765148 319.47469428 120.5 317.0625 C125.51322237 309.44465755 129.51513482 301.58191681 133.17578125 293.23828125 C133.92753452 291.53882006 134.72513183 289.85982684 135.52734375 288.18359375 C137.79376554 282.85354291 138.85902613 277.13008479 140.125 271.5 C140.38925781 270.36691406 140.65351563 269.23382813 140.92578125 268.06640625 C149.25889509 231.56144564 142.04186956 193.55661947 122.55419922 161.77685547 C104.74677268 133.77233415 79.20537385 113.48968664 48 102.375 C47.06534912 102.0349292 47.06534912 102.0349292 46.11181641 101.68798828 C10.76699008 88.99429393 -27.91623056 92.36845334 -61.74511719 107.79101562 C-76.90977964 114.96836464 -89.74381851 125.00159205 -102 136.375 C-102.59425781 136.90351563 -103.18851563 137.43203125 -103.80078125 137.9765625 C-109.11725661 142.92507178 -113.14836634 148.8695841 -117.3515625 154.75390625 C-118.23232258 155.96243594 -119.11509201 157.16950417 -120 158.375 C-120.4235376 158.96837158 -120.8470752 159.56174316 -121.28344727 160.1730957 C-124.37198 164.25062943 -124.37198 164.25062943 -127.38671875 164.84765625 C-128.52560547 164.64462891 -128.52560547 164.64462891 -129.6875 164.4375 C-130.83798828 164.26927734 -130.83798828 164.26927734 -132.01171875 164.09765625 C-134 163.375 -134 163.375 -136 160.375 C-135.3898557 145.60950796 -117.94388125 129.78147313 -107.625 120.125 C-80.80008041 95.71058689 -43.56653676 79.23091043 -7 79.375 C-7.00999275 77.95679207 -7.00999275 77.95679207 -7.02018738 76.50993347 C-7.08095462 67.60763771 -7.12595148 58.70538393 -7.15543652 49.80292797 C-7.17110459 45.22587134 -7.19236359 40.64898189 -7.22631836 36.07202148 C-7.25887126 31.65648565 -7.27684441 27.2411108 -7.28463173 22.82546425 C-7.29018258 21.13931048 -7.30102185 19.4531657 -7.31719017 17.76708031 C-7.33891075 15.40857146 -7.34196924 13.05073115 -7.34057617 10.69213867 C-7.351362 9.99226837 -7.36214783 9.29239807 -7.3732605 8.57131958 C-7.35475436 5.68320926 -7.32378524 3.82185913 -5.59980774 1.44258118 C-3.60740351 0.11301313 -2.38402432 -0.02709119 0 0 Z " fill="#0A0E3E" transform="translate(256,17.625)"/>
<path d="M0 0 C2.6503197 0.36117601 3.66804198 0.78012021 5.53100586 2.73242188 C7.32313985 5.7013729 7.32091156 7.67225591 7.34375 11.12890625 C7.3631665 12.32692871 7.38258301 13.52495117 7.40258789 14.75927734 C7.41410889 16.03496582 7.42562988 17.3106543 7.4375 18.625 C8.40000742 58.70567999 22.62348016 93.49375195 50.9375 122.0625 C51.71351563 122.85140625 52.48953125 123.6403125 53.2890625 124.453125 C79.41849471 149.41526299 114.85868803 161.53141335 150.4375 161.4375 C151.281987 161.4362915 152.126474 161.43508301 152.99655151 161.43383789 C187.20738317 161.30087482 221.80735684 149.6318962 246.8125 125.4375 C249.64191476 122.82451435 251.4175245 121.53729065 255.3125 121.375 C258.9375 122.0625 258.9375 122.0625 260.9375 123.125 C262.57263623 126.29307644 262.42009887 128.56365821 261.9375 132.0625 C260 134.5 260 134.5 256.9375 137.0625 C256.34066406 137.63484375 255.74382812 138.2071875 255.12890625 138.796875 C236.02235072 156.85600121 210.63717215 168.21917527 185.25 173.9375 C184.36103027 174.14084961 183.47206055 174.34419922 182.55615234 174.55371094 C176.8958745 175.73810997 171.32813213 176.30041889 165.56713867 176.62158203 C164.83074913 176.66501236 164.09435959 176.70844269 163.33565521 176.75318909 C161.53642302 176.85892699 159.73698089 176.96108249 157.9375 177.0625 C157.94749275 178.48070793 157.94749275 178.48070793 157.95768738 179.92756653 C158.01845462 188.82986229 158.06345148 197.73211607 158.09293652 206.63457203 C158.10860459 211.21162866 158.12986359 215.78851811 158.16381836 220.36547852 C158.19637126 224.78101435 158.21434441 229.1963892 158.22213173 233.61203575 C158.22768258 235.29818952 158.23852185 236.9843343 158.25469017 238.67041969 C158.27641075 241.02892854 158.27946924 243.38676885 158.27807617 245.74536133 C158.288862 246.44523163 158.29964783 247.14510193 158.3107605 247.86618042 C158.29225436 250.75429074 158.26128524 252.61564087 156.53730774 254.99491882 C154.54490351 256.32448687 153.32152432 256.46459119 150.9375 256.4375 C150.256875 256.44523437 149.57625 256.45296875 148.875 256.4609375 C146.23484172 255.91800173 145.52688087 255.25601984 143.9375 253.0625 C143.65709798 250.53954595 143.55807019 248.26649442 143.59692383 245.74536133 C143.59648575 245.00365189 143.59604767 244.26194244 143.59559631 243.49775696 C143.59768617 241.04641384 143.62102581 238.59575487 143.64453125 236.14453125 C143.65012652 234.44488397 143.65439694 232.74523185 143.65739441 231.045578 C143.66884866 226.57218059 143.69832073 222.09907541 143.73150635 217.62579346 C143.76219479 213.06111606 143.77589712 208.49639145 143.79101562 203.93164062 C143.82318995 194.97513203 143.87439325 186.01884031 143.9375 177.0625 C142.85043259 177.00087173 141.76336517 176.93924347 140.64335632 176.87574768 C139.19671783 176.79043996 137.75008846 176.70497745 136.3034668 176.61938477 C135.58940422 176.57931557 134.87534164 176.53924637 134.13964081 176.49796295 C128.22470125 176.1430348 122.53316571 175.30911668 116.75 174 C115.78368652 173.78375977 114.81737305 173.56751953 113.82177734 173.34472656 C87.6256649 167.1573405 63.85365898 154.65217869 44.265625 136.23828125 C42.45181685 134.54316189 40.6352029 132.97003465 38.6875 131.4375 C35.02778762 128.27683931 32.00243976 124.7950504 28.9375 121.0625 C28.17308594 120.13566406 27.40867187 119.20882812 26.62109375 118.25390625 C5.70811467 92.31368903 -8.17520007 58.65353552 -8.0625 25.0625 C-9.48070793 25.07249275 -9.48070793 25.07249275 -10.92756653 25.08268738 C-19.82986229 25.14345462 -28.73211607 25.18845148 -37.63457203 25.21793652 C-42.21162866 25.23360459 -46.78851811 25.25486359 -51.36547852 25.28881836 C-55.78101435 25.32137126 -60.1963892 25.33934441 -64.61203575 25.34713173 C-66.29818952 25.35268258 -67.9843343 25.36352185 -69.67041969 25.37969017 C-72.02892854 25.40141075 -74.38676885 25.40446924 -76.74536133 25.40307617 C-77.44523163 25.413862 -78.14510193 25.42464783 -78.86618042 25.4357605 C-81.75429074 25.41725436 -83.61564087 25.38628524 -85.99491882 23.66230774 C-87.32448687 21.66990351 -87.46459119 20.44652432 -87.4375 18.0625 C-87.44523437 17.381875 -87.45296875 16.70125 -87.4609375 16 C-86.91800173 13.35984172 -86.25601984 12.65188087 -84.0625 11.0625 C-81.53954595 10.78209798 -79.26649442 10.68307019 -76.74536133 10.72192383 C-76.00365189 10.72148575 -75.26194244 10.72104767 -74.49775696 10.72059631 C-72.04641384 10.72268617 -69.59575487 10.74602581 -67.14453125 10.76953125 C-65.44488397 10.77512652 -63.74523185 10.77939694 -62.045578 10.78239441 C-57.57218059 10.79384866 -53.09907541 10.82332073 -48.62579346 10.85650635 C-44.06111606 10.88719479 -39.49639145 10.90089712 -34.93164062 10.91601562 C-25.97513203 10.94818995 -17.01884031 10.99939325 -8.0625 11.0625 C-8.0934375 10.13308594 -8.124375 9.20367187 -8.15625 8.24609375 C-8.0625 5.0625 -8.0625 5.0625 -6.5625 2.125 C-3.81657038 -0.14039194 -3.36445472 -0.26023407 0 0 Z " fill="#0A0F3E" transform="translate(105.0625,237.9375)"/>
<path d="M0 0 C8.243276 4.87376172 14.29140096 12.47310644 20 20 C20.65484375 20.7940625 21.3096875 21.588125 21.984375 22.40625 C26.68834265 28.35206511 30.02647741 34.68840515 33.3125 41.5 C33.94369751 42.7991333 33.94369751 42.7991333 34.58764648 44.12451172 C37.86778988 51.13896206 41.07759993 58.65440378 40.9375 66.5 C39.79482953 69.54712124 38.90499371 70.54750315 36 72 C33.5 72.5 33.5 72.5 31 72 C27.49111205 68.3415083 26.14055548 64.95043507 24.75 60.125 C19.40534791 42.89078879 8.33162328 23.88849878 -6.5625 13.375 C-9.20328762 10.80192488 -9.41116902 10.35561243 -9.5625 6.875 C-9 3 -9 3 -7.875 1 C-5.10185389 -0.47901126 -3.11282761 -0.2912366 0 0 Z " fill="#0D113E" transform="translate(331,163)"/>
<path d="M0 0 C3.21505241 2.75794899 5.15432231 5.70297076 7.171875 9.40234375 C7.75042236 10.45188232 8.32896973 11.5014209 8.92504883 12.58276367 C9.52728271 13.68982666 10.1295166 14.79688965 10.75 15.9375 C15.15330933 23.94658779 19.59014794 31.8299245 24.64453125 39.44921875 C26.19390202 42.36489343 26.7473363 44.71537187 27 48 C24.86956522 52.56521739 24.86956522 52.56521739 22 54 C19.1875 54.375 19.1875 54.375 16 54 C10.70546353 49.77153771 7.9465969 43.99532155 4.75 38.125 C0.12475808 29.67775351 0.12475808 29.67775351 -4.84765625 21.43359375 C-5.26821289 20.7689209 -5.68876953 20.10424805 -6.12207031 19.41943359 C-7.23124161 17.68925376 -8.35905309 15.9710629 -9.48828125 14.25390625 C-11.42670836 10.08152956 -11.38881737 7.56020374 -11 3 C-7.93907656 -1.31311939 -4.90010554 -1.27402744 0 0 Z " fill="#080D3E" transform="translate(353,409)"/>
<path d="M0 0 C2.77577672 1.61174132 2.95299519 2.83005953 3.8125 5.9375 C4.01810714 9.29574994 3.82987198 10.25701692 2 13 C-0.37573242 14.68823242 -0.37573242 14.68823242 -3.35546875 16.35546875 C-4.99177246 17.28335205 -4.99177246 17.28335205 -6.66113281 18.22998047 C-7.83643376 18.88276573 -9.01189238 19.53526718 -10.1875 20.1875 C-11.97227945 21.19144607 -13.75513518 22.19874566 -15.53781128 23.2064209 C-16.71592282 23.8721326 -17.89473393 24.53660783 -19.07424927 25.1998291 C-24.84080157 28.4498057 -30.45431817 31.92251884 -36.046875 35.4609375 C-39.14806845 37.07716795 -41.52035006 37.76086557 -45 38 C-49.56521739 35.86956522 -49.56521739 35.86956522 -51 33 C-51.375 30.1875 -51.375 30.1875 -51 27 C-46.77153771 21.70546353 -40.99532155 18.9465969 -35.125 15.75 C-26.67775351 11.12475808 -26.67775351 11.12475808 -18.43359375 6.15234375 C-17.7689209 5.73178711 -17.10424805 5.31123047 -16.41943359 4.87792969 C-14.68925376 3.76875839 -12.9710629 2.64094691 -11.25390625 1.51171875 C-7.08676751 -0.42427488 -4.55458952 -0.36916147 0 0 Z " fill="#080D3E" transform="translate(100,342)"/>
<path d="M0 0 C2.3125 1.125 2.3125 1.125 4 3 C4.9151811 6.34971496 5.26406573 8.30774254 4.01367188 11.58569336 C3.50384766 12.43268799 2.99402344 13.27968262 2.46875 14.15234375 C1.91058594 15.1047998 1.35242188 16.05725586 0.77734375 17.03857422 C-0.10244141 18.50447998 -0.10244141 18.50447998 -1 20 C-2.07815709 21.91502783 -3.15110686 23.83299698 -4.21875 25.75390625 C-5.31163954 27.69058998 -6.4053925 29.62678673 -7.5 31.5625 C-8.04269531 32.52607422 -8.58539063 33.48964844 -9.14453125 34.48242188 C-10.75238071 37.32781656 -12.37572597 40.16395812 -14 43 C-14.52851563 43.9472998 -15.05703125 44.89459961 -15.6015625 45.87060547 C-16.11460937 46.7679541 -16.62765625 47.66530273 -17.15625 48.58984375 C-17.60806641 49.39156006 -18.05988281 50.19327637 -18.52539062 51.01928711 C-20.19208963 53.25801708 -21.38455133 54.07438231 -24 55 C-27.03536365 54.81416141 -29.22262247 54.44051393 -31.875 52.9375 C-33.76084195 49.68966109 -33.64113461 46.58767941 -33 43 C-31.22778239 38.96927186 -28.94743326 35.29709897 -26.625 31.5625 C-25.33974771 29.43625597 -24.05459213 27.30995347 -22.76953125 25.18359375 C-22.13096191 24.14058105 -21.49239258 23.09756836 -20.83447266 22.02294922 C-19.16761174 19.27620023 -17.54604443 16.51053485 -15.94921875 13.72265625 C-15.4991748 12.93882568 -15.04913086 12.15499512 -14.58544922 11.34741211 C-13.75692398 9.90090938 -12.93155834 8.45259081 -12.10986328 7.00219727 C-8.86562888 1.41412003 -6.5974212 -0.67320624 0 0 Z " fill="#080D3E" transform="translate(375,49)"/>
<path d="M0 0 C1.875 1.0625 1.875 1.0625 3 3 C4.09501762 10.95712802 0.74218767 15.81683834 -3.375 22.4375 C-4.66025229 24.56374403 -5.94540787 26.69004653 -7.23046875 28.81640625 C-7.86903809 29.85941895 -8.50760742 30.90243164 -9.16552734 31.97705078 C-10.83238826 34.72379977 -12.45395557 37.48946515 -14.05078125 40.27734375 C-14.5008252 41.06117432 -14.95086914 41.84500488 -15.41455078 42.65258789 C-16.24307602 44.09909062 -17.06844166 45.54740919 -17.89013672 46.99780273 C-19.71840175 50.14692359 -20.91842154 51.94561436 -24 54 C-27.27793445 54.34871643 -29.33245569 54.32475128 -32.3125 52.875 C-34.62792527 50.30230526 -34.73963888 48.42315994 -35 45 C-34.07299805 42.51318359 -34.07299805 42.51318359 -32.57421875 40.0234375 C-32.01653809 39.07178711 -31.45885742 38.12013672 -30.88427734 37.13964844 C-30.26246582 36.10356445 -29.6406543 35.06748047 -29 34 C-28.01224272 32.26382188 -27.02463522 30.52754928 -26.04299927 28.78790283 C-24.66380013 26.34698727 -23.26987205 23.91461763 -21.8762207 21.48193359 C-20.80228385 19.60716569 -19.73012346 17.73139022 -18.65820312 15.85546875 C-14.87251789 9.23723431 -14.87251789 9.23723431 -13 6 C-12.46850342 5.07493652 -11.93700684 4.14987305 -11.3894043 3.19677734 C-8.41096468 -1.51241254 -5.11630138 -1.41514719 0 0 Z " fill="#080D3E" transform="translate(167,409)"/>
<path d="M0 0 C0.86584717 0.51763916 1.73169434 1.03527832 2.6237793 1.56860352 C3.60137207 2.14626465 4.57896484 2.72392578 5.58618164 3.3190918 C6.61308105 3.93896973 7.63998047 4.55884766 8.69799805 5.19750977 C10.84242884 6.47502216 12.98696079 7.75236476 15.1315918 9.02954102 C16.18717285 9.6619873 17.24275391 10.29443359 18.33032227 10.94604492 C21.09366717 12.58673956 23.87357089 14.18945841 26.6706543 15.77172852 C27.45335693 16.21782471 28.23605957 16.6639209 29.04248047 17.12353516 C30.48504352 17.94397801 31.9316461 18.75737225 33.3828125 19.5625 C39.31374977 22.97419392 39.31374977 22.97419392 40.38549805 26.76000977 C40.19965946 29.79537342 39.82601198 31.98263224 38.32299805 34.63500977 C35.07515914 36.52085171 31.97317746 36.40114438 28.38549805 35.76000977 C24.35476991 33.98779216 20.68259702 31.70744302 16.94799805 29.38500977 C14.82175401 28.09975748 12.69545152 26.81460189 10.5690918 25.52954102 C9.5260791 24.89097168 8.48306641 24.25240234 7.40844727 23.59448242 C4.66169828 21.92762151 1.89603289 20.30605419 -0.8918457 18.70922852 C-1.67567627 18.25918457 -2.45950684 17.80914062 -3.26708984 17.34545898 C-4.71359257 16.51693375 -6.16191115 15.69156811 -7.61230469 14.86987305 C-10.76142554 13.04160801 -12.56011631 11.84158822 -14.61450195 8.76000977 C-14.97468153 5.37432171 -14.99636033 3.43280786 -13.30200195 0.44750977 C-9.30967312 -3.54481907 -4.66401388 -2.2120204 0 0 Z " fill="#080D3E" transform="translate(63.614501953125,134.239990234375)"/>
<path d="M0 0 C4.03072814 1.77221761 7.70290103 4.05256674 11.4375 6.375 C13.56374403 7.66025229 15.69004653 8.94540787 17.81640625 10.23046875 C18.85941895 10.86903809 19.90243164 11.50760742 20.97705078 12.16552734 C23.72379977 13.83238826 26.48946515 15.45395557 29.27734375 17.05078125 C30.4530896 17.72584717 30.4530896 17.72584717 31.65258789 18.41455078 C33.09909062 19.24307602 34.54740919 20.06844166 35.99780273 20.89013672 C39.14692359 22.71840175 40.94561436 23.91842154 43 27 C43.34871643 30.27793445 43.32475128 32.33245569 41.875 35.3125 C39.30230526 37.62792527 37.42315994 37.73963888 34 38 C31.51318359 37.07299805 31.51318359 37.07299805 29.0234375 35.57421875 C28.07178711 35.01653809 27.12013672 34.45885742 26.13964844 33.88427734 C25.10356445 33.26246582 24.06748047 32.6406543 23 32 C21.26382188 31.01224272 19.52754928 30.02463522 17.78790283 29.04299927 C15.34698727 27.66380013 12.91461763 26.26987205 10.48193359 24.8762207 C8.60716569 23.80228385 6.73139022 22.73012346 4.85546875 21.65820312 C-1.76276569 17.87251789 -1.76276569 17.87251789 -5 16 C-5.92506348 15.46850342 -6.85012695 14.93700684 -7.80322266 14.3894043 C-10.36103494 12.77165483 -11.17046421 11.90337525 -12 9 C-11.81416141 5.96463635 -11.44051393 3.77737753 -9.9375 1.125 C-6.68966109 -0.76084195 -3.58767941 -0.64113461 0 0 Z " fill="#080D3E" transform="translate(420,342)"/>
<path d="M0 0 C2.48405436 2.23564893 2.93906627 3.64201436 3.5 6.9375 C2.84823295 10.92957319 1.06648509 12.58512185 -2 15 C-5.53835742 17.24360987 -9.19639958 19.24687247 -12.875 21.25 C-21.32224649 25.87524192 -21.32224649 25.87524192 -29.56640625 30.84765625 C-30.2310791 31.26821289 -30.89575195 31.68876953 -31.58056641 32.12207031 C-33.31074624 33.23124161 -35.0289371 34.35905309 -36.74609375 35.48828125 C-40.91323249 37.42427488 -43.44541048 37.36916147 -48 37 C-50.77577672 35.38825868 -50.95299519 34.16994047 -51.8125 31.0625 C-52.01810714 27.70425006 -51.82987198 26.74298308 -50 24 C-47.62426758 22.31176758 -47.62426758 22.31176758 -44.64453125 20.64453125 C-43.55342041 20.02594238 -42.46230957 19.40735352 -41.33813477 18.77001953 C-40.1630059 18.11736406 -38.98779281 17.4648602 -37.8125 16.8125 C-36.03084481 15.80861035 -34.25124699 14.80113721 -32.47166443 13.7935791 C-31.29495565 13.12781674 -30.11751774 12.46334143 -28.93934631 11.8001709 C-23.09855084 8.50913884 -17.3748385 5.04266792 -11.66015625 1.5390625 C-7.34422335 -0.9579677 -4.80393017 -1.30106442 0 0 Z " fill="#080D3E" transform="translate(460,133)"/>
<path d="M0 0 C5.29453647 4.22846229 8.0534031 10.00467845 11.25 15.875 C15.87524192 24.32224649 15.87524192 24.32224649 20.84765625 32.56640625 C21.26821289 33.2310791 21.68876953 33.89575195 22.12207031 34.58056641 C23.23124161 36.31074624 24.35905309 38.0289371 25.48828125 39.74609375 C27.42427488 43.91323249 27.36916147 46.44541048 27 51 C25.38825868 53.77577672 24.16994047 53.95299519 21.0625 54.8125 C17.70425006 55.01810714 16.74298308 54.82987198 14 53 C12.31176758 50.62426758 12.31176758 50.62426758 10.64453125 47.64453125 C9.71664795 46.00822754 9.71664795 46.00822754 8.77001953 44.33886719 C8.11723427 43.16356624 7.46473282 41.98810762 6.8125 40.8125 C5.80855393 39.02772055 4.80125434 37.24486482 3.7935791 35.46218872 C3.1278674 34.28407718 2.46339217 33.10526607 1.8001709 31.92575073 C-1.4498057 26.15919843 -4.92251884 20.54568183 -8.4609375 14.953125 C-10.07716795 11.85193155 -10.76086557 9.47964994 -11 6 C-8.42301117 0.47788108 -6.05790435 -0.71269463 0 0 Z " fill="#080D3E" transform="translate(143,49)"/>
<path d="M0 0 C1.03447266 0.3722168 1.03447266 0.3722168 2.08984375 0.75195312 C6.27165521 2.32313085 9.62014258 4.01977069 12.875 7.1875 C13.4375 10.1875 13.4375 10.1875 12.875 13.1875 C11.25 15.5625 11.25 15.5625 8.875 17.1875 C4.16098294 17.60995103 0.78718496 16.64515991 -3.5625 14.875 C-4.69300781 14.41738281 -5.82351563 13.95976562 -6.98828125 13.48828125 C-8.02339844 13.05902344 -9.05851562 12.62976563 -10.125 12.1875 C-10.88167969 11.89230469 -11.63835937 11.59710938 -12.41796875 11.29296875 C-18.62085799 8.81974852 -18.62085799 8.81974852 -20.125 6.1875 C-20.05862862 2.47070264 -19.87697167 0.11300359 -17.5 -2.8125 C-11.90375085 -5.16881543 -5.38580202 -2.05149169 0 0 Z " fill="#0F123E" transform="translate(298.125,143.8125)"/>
<path d="M0 0 C3.625 0.375 3.625 0.375 6.125 1.8125 C8.43099547 5.75190892 7.61410227 9.13062442 6.625 13.375 C3.25979679 25.59280987 3.25979679 25.59280987 -0.375 28.375 C-3.8125 29.375 -3.8125 29.375 -7.375 29.375 C-9.875 27.5 -9.875 27.5 -11.375 24.375 C-12.14226762 16.82759196 -8.45589727 9.06467414 -5.375 2.375 C-3.375 0.375 -3.375 0.375 0 0 Z " fill="#0A0E3E" transform="translate(113.375,194.625)"/>
</svg>
