<?xml version="1.0" encoding="UTF-8"?>
<svg version="1.1" xmlns="http://www.w3.org/2000/svg" width="64" height="64">
<path d="M0 0 C2.1875 0.5 2.1875 0.5 4.1875 2.5 C4.3125 5.125 4.3125 5.125 4.1875 7.5 C3.1975 7.5 2.2075 7.5 1.1875 7.5 C0.5275 6.51 -0.1325 5.52 -0.8125 4.5 C-4.1125 7.14 -7.4125 9.78 -10.8125 12.5 C0.58590778 13.88162519 11.78909222 13.88162519 23.1875 12.5 C19.8875 9.86 16.5875 7.22 13.1875 4.5 C12.5275 5.49 11.8675 6.48 11.1875 7.5 C10.1975 7.5 9.2075 7.5 8.1875 7.5 C8.0625 5.125 8.0625 5.125 8.1875 2.5 C10.1875 0.5 10.1875 0.5 12.51953125 0.125 C16.07462293 0.62469078 17.32532526 2.00511166 19.875 4.5 C24.15504277 8.56796858 28.58199398 12.26329879 33.25390625 15.87109375 C35.1875 17.5 35.1875 17.5 36.1875 19.5 C36.36221848 21.59948601 36.45467852 23.70624408 36.5 25.8125 C36.55607422 27.50826172 36.55607422 27.50826172 36.61328125 29.23828125 C36.10116489 33.16137449 34.97412687 34.74349882 32.1875 37.5 C27.20893044 39.15952319 22.93643769 39.09233019 18.125 37 C12.74811586 34.08141892 9.10684357 29.25803071 7.1875 23.5 C6.5275 23.5 5.8675 23.5 5.1875 23.5 C4.795625 24.36625 4.40375 25.2325 4 26.125 C0.54797865 32.55290183 -2.73185573 36.30255867 -9.8125 38.5 C-14.83441718 39.01950867 -17.78761246 38.60491324 -21.8125 35.5 C-24.15943138 31.97960293 -24.13973764 30.29942991 -24.1875 26.125 C-24.21585938 25.00351562 -24.24421875 23.88203125 -24.2734375 22.7265625 C-23.44103828 16.89976798 -19.46884555 14.00386295 -15 10.5625 C-11.87805004 8.14298878 -8.89483978 5.6853448 -6 3 C-3.76069933 1.05645602 -3.01157356 0.53539086 0 0 Z M-19.20703125 18.296875 C-21.42192596 21.33629256 -21.6772206 23.77981651 -21.8125 27.5 C-20.8225 28.985 -20.8225 28.985 -19.8125 30.5 C-16.8425 27.53 -13.8725 24.56 -10.8125 21.5 C-10.8125 23.15 -10.8125 24.8 -10.8125 26.5 C-9.68355124 25.56725891 -8.55949124 24.62859878 -7.4375 23.6875 C-6.81101562 23.16542969 -6.18453125 22.64335938 -5.5390625 22.10546875 C-3.5903952 20.41774261 -3.5903952 20.41774261 -1.8125 17.5 C-3.74214064 15.57035936 -7.05975758 16.23769527 -9.625 16.1875 C-10.86894531 16.15011719 -12.11289063 16.11273438 -13.39453125 16.07421875 C-16.84846974 16.21712072 -16.84846974 16.21712072 -19.20703125 18.296875 Z M11.1875 19.5 C10.65770122 23.0572204 10.75545768 24.81593299 12.6875 27.875 C13.1825 28.41125 13.6775 28.9475 14.1875 29.5 C18.47988623 27.84908222 21.0668915 24.76245434 24.1875 21.5 C24.1875 23.15 24.1875 24.8 24.1875 26.5 C26.4975 24.52 28.8075 22.54 31.1875 20.5 C30.8575 19.51 30.5275 18.52 30.1875 17.5 C27.37183745 16.09216873 24.9511293 16.2923186 21.8125 16.25 C20.67039062 16.22421875 19.52828125 16.1984375 18.3515625 16.171875 C14.92816577 16.52689392 13.56031962 17.04674582 11.1875 19.5 Z M3.1875 17.5 C3.8475 18.16 4.5075 18.82 5.1875 19.5 C7.29570797 19.1814823 7.29570797 19.1814823 9.1875 18.5 C9.1875 18.17 9.1875 17.84 9.1875 17.5 C7.2075 17.5 5.2275 17.5 3.1875 17.5 Z " fill="#FFFFFF" transform="translate(25.8125,12.5)"/>
</svg>
