<?xml version="1.0" encoding="UTF-8"?>
<svg version="1.1" xmlns="http://www.w3.org/2000/svg" width="512" height="512">
<path d="M0 0 C17.79166444 14.99583146 32.93898362 34.76533388 38 58 C38.93392578 57.7834375 38.93392578 57.7834375 39.88671875 57.5625 C59.90828008 53.54143329 78.40344332 55.437988 96 66 C99.61834874 68.75637333 102.83099072 71.74263545 106 75 C106.82371094 75.77537109 106.82371094 75.77537109 107.6640625 76.56640625 C117.94782382 87.09763776 122.93940816 103.4476272 123.25 117.8125 C123 121 123 121 122 123 C122.76441406 122.95359375 123.52882813 122.9071875 124.31640625 122.859375 C142.74588071 122.23840594 161.35502135 129.56504776 175 142 C175.80695313 142.71542969 176.61390625 143.43085938 177.4453125 144.16796875 C192.25680386 158.05091096 201.29370941 176.85463695 202.3203125 197.18359375 C203.00875278 219.78506817 197.55966852 240.04204387 182 257 C181.33613281 257.75539063 180.67226563 258.51078125 179.98828125 259.2890625 C166.89494043 273.37468978 148.07018387 282.21019569 128.8828125 283.28515625 C118.81554125 283.58472769 118.81554125 283.58472769 116.13671875 281.6640625 C115 280 115 280 114 277 C105.03453414 276.45553851 98.41918603 276.40633287 90.3671875 280.80859375 C85.31106896 283.35333988 79.98491508 283.24107405 74.4375 283.3125 C73.68275391 283.34150391 72.92800781 283.37050781 72.15039062 283.40039062 C68.54121264 283.44172923 66.43433487 283.31484243 63.47265625 281.16796875 C62 279 62 279 62 276 C56.06 276 50.12 276 44 276 C43.34 277.65 42.68 279.3 42 281 C39.58351246 283.41648754 39.0267221 283.25138531 35.72477722 283.25828552 C34.82681931 283.26511353 33.92886139 283.27194153 33.00369263 283.27897644 C32.01529388 283.27642349 31.02689514 283.27387054 30.00854492 283.27124023 C28.44936592 283.27908035 28.44936592 283.27908035 26.85868835 283.28707886 C24.59209395 283.2973465 22.32547578 283.30310405 20.05885887 283.30496025 C16.45289043 283.30862175 12.84719761 283.32535102 9.24128723 283.34571838 C-1.01527728 283.4010948 -11.27188538 283.43155609 -21.52856445 283.45629883 C-27.80095004 283.47234203 -34.07314728 283.50275282 -40.34543419 283.54106331 C-42.72001807 283.55258937 -45.09463596 283.55864256 -47.46924782 283.55874443 C-81.77158895 283.56074636 -113.01231944 289.37009676 -140.10546875 311.73828125 C-143.43630345 313.95654848 -146.07780483 313.3735424 -150 313 C-152 312 -152 312 -153 310 C-153.68563883 306.62894241 -153.93073488 305.18288346 -153 302 C-144.45282326 290.16916214 -125.85304383 282.73378322 -113 277 C-134.61538348 274.73095087 -134.61538348 274.73095087 -153.66918945 282.59692383 C-154.65129126 283.53872094 -155.61190351 284.5034587 -156.54931641 285.48974609 C-158.0913314 287.0950818 -159.71191482 288.5537822 -161.38671875 290.01953125 C-165.6256126 293.76181578 -169.70913724 297.59160498 -173.53125 301.76171875 C-179.75353944 308.54870226 -179.75353944 308.54870226 -184.375 308.75 C-188 308 -188 308 -190 307 C-191.69491056 303.61017888 -191.86846262 300.61097617 -191 297 C-186.3897629 289.21921387 -177.67419865 283.02183337 -171 277 C-172.32 276.67 -173.64 276.34 -175 276 C-175.185625 277.175625 -175.185625 277.175625 -175.375 278.375 C-176 281 -176 281 -178 283 C-199.47638907 285.35582839 -221.01156644 277.87718538 -238 265 C-241.49754244 262.15148606 -244.78449668 259.16244221 -248 256 C-248.76054687 255.25234375 -249.52109375 254.5046875 -250.3046875 253.734375 C-268.47857847 234.74297337 -274.74238151 210.81561336 -274.3125 185.09765625 C-273.4395045 161.79231398 -263.25247907 141.52517167 -247 125 C-246.25234375 124.23945313 -245.5046875 123.47890625 -244.734375 122.6953125 C-227.22310168 105.93783572 -204.94761848 98.61250542 -181 99 C-181.0314209 97.95996826 -181.0314209 97.95996826 -181.06347656 96.89892578 C-181.67506226 73.48448345 -181.67506226 73.48448345 -179.25 62.5625 C-179.09305664 61.83111816 -178.93611328 61.09973633 -178.77441406 60.34619141 C-178.00676441 57.28369659 -177.28788608 55.28674367 -175.03125 53.0390625 C-172.54363734 51.76655295 -170.75711421 51.77024048 -168 52 C-167.80664062 51.40832031 -167.61328125 50.81664062 -167.4140625 50.20703125 C-167.15367187 49.41683594 -166.89328125 48.62664062 -166.625 47.8125 C-166.2228125 46.57693359 -166.2228125 46.57693359 -165.8125 45.31640625 C-165 43 -165 43 -163.625 40.25 C-163.41875 39.5075 -163.2125 38.765 -163 38 C-163.495 37.21625 -163.99 36.4325 -164.5 35.625 C-166 33 -166 33 -165.40625 29.76171875 C-164.07078255 25.5943643 -161.75642832 22.53476048 -159 19.1875 C-158.50798096 18.5800293 -158.01596191 17.97255859 -157.5090332 17.34667969 C-139.12146562 -5.02894437 -113.36703225 -20.08216771 -84.37744141 -23.76855469 C-53.70269779 -26.75475893 -24.23194986 -19.36542254 0 0 Z " fill="#BDDBFA" transform="translate(292,80)"/>
<path d="M0 0 C17.79166444 14.99583146 32.93898362 34.76533388 38 58 C38.93392578 57.7834375 38.93392578 57.7834375 39.88671875 57.5625 C59.90828008 53.54143329 78.40344332 55.437988 96 66 C99.61834874 68.75637333 102.83099072 71.74263545 106 75 C106.82371094 75.77537109 106.82371094 75.77537109 107.6640625 76.56640625 C117.94782382 87.09763776 122.93940816 103.4476272 123.25 117.8125 C123 121 123 121 122 123 C122.76441406 122.95359375 123.52882813 122.9071875 124.31640625 122.859375 C142.74588071 122.23840594 161.35502135 129.56504776 175 142 C175.80695313 142.71542969 176.61390625 143.43085938 177.4453125 144.16796875 C192.25680386 158.05091096 201.29370941 176.85463695 202.3203125 197.18359375 C203.00875278 219.78506817 197.55966852 240.04204387 182 257 C181.33613281 257.75539063 180.67226563 258.51078125 179.98828125 259.2890625 C166.89494043 273.37468978 148.07018387 282.21019569 128.8828125 283.28515625 C118.77736486 283.5858637 118.77736486 283.5858637 116.12890625 281.58984375 C114.70233788 279.5808011 114.14200814 278.48514245 114 276 C116.33333333 270.33333333 116.33333333 270.33333333 119 269 C120.69948513 268.80721007 122.39960257 268.61858134 124.10229492 268.45654297 C143.32732803 266.55227204 160.44161194 259.11737467 173 244 C182.65236085 231.10186288 186.40219777 218.55713374 186.5 202.6875 C186.50644531 201.6977417 186.51289063 200.7079834 186.51953125 199.68823242 C186.26262631 184.88285033 180.78907203 170.07246843 170.28515625 159.453125 C169 158 169 158 169 156 C168.13568359 155.60748047 168.13568359 155.60748047 167.25390625 155.20703125 C164.8599875 153.9250193 163.01170197 152.43603288 160.9375 150.6875 C156.00490143 146.79163807 150.84935113 144.24738228 145 142 C144.38044434 141.74541016 143.76088867 141.49082031 143.12255859 141.22851562 C135.30754035 138.26944844 127.33302005 138.22739065 119.06640625 137.828125 C117.94363281 137.76109375 116.82085937 137.6940625 115.6640625 137.625 C114.64779785 137.57601562 113.6315332 137.52703125 112.58447266 137.4765625 C110 137 110 137 108.15551758 135.77880859 C106.58203294 133.35657975 106.71728767 131.78625328 106.84765625 128.9140625 C106.87851318 127.90690186 106.90937012 126.89974121 106.94116211 125.86206055 C107.00122437 124.25971558 107.00122437 124.25971558 107.0625 122.625 C107.30635252 108.48887996 105.23393853 97.29178769 96 86 C90.67502842 80.84007648 84.84952916 76.82440744 78 74 C77.37351562 73.70222656 76.74703125 73.40445313 76.1015625 73.09765625 C65.96519332 68.88387826 52.85230597 69.73701001 42.77734375 73.67578125 C29.57008659 79.9729123 22.73251305 87.68834266 16.578125 100.73046875 C14.73257853 104.55403905 13.01305107 107.98694893 10 111 C6.5 110.8125 6.5 110.8125 3 110 C0.49467626 106.24201438 0.39193428 103.34766991 1 99 C4.3157691 88.52518398 11.18505061 76.8415541 20.4375 70.6875 C23.10825806 68.36430509 23.10825806 68.36430509 23.3984375 66.03125 C22.67652419 46.34270524 6.31336642 26.58286759 -7.359375 13.79296875 C-18.20605831 4.56600828 -31.3594931 -2.07342634 -45 -6 C-45.93223389 -6.27602051 -45.93223389 -6.27602051 -46.88330078 -6.55761719 C-54.16078216 -8.46585138 -61.52030897 -8.39912443 -69 -8.375 C-69.68974915 -8.3737915 -70.37949829 -8.37258301 -71.09014893 -8.37133789 C-97.48265901 -8.24575772 -119.73122703 0.98181732 -138.8125 19.375 C-143.40721812 24.13964112 -147.36602006 29.20338051 -151.22265625 34.56640625 C-153 37 -153 37 -155 39 C-158.29521559 39.35817561 -160.34331109 39.33721863 -163.3125 37.8125 C-165.55950996 35.39904486 -166 34.32294578 -166 31 C-163.04656148 22.73037215 -156.78586559 16.43462883 -151 10 C-150.00806641 8.88044922 -150.00806641 8.88044922 -148.99609375 7.73828125 C-110.60552919 -33.13979289 -42.59063836 -34.03711681 0 0 Z " fill="#0A0F40" transform="translate(292,80)"/>
<path d="M0 0 C2.875 2 2.875 2 5 5 C4.93835532 8.63703601 4.33831229 11.62675753 3.4753418 15.12963867 C1.8211104 22.3245857 1.76838814 29.26878164 1.875 36.625 C1.88402344 37.81996094 1.89304687 39.01492187 1.90234375 40.24609375 C1.92568923 43.16427834 1.95843344 46.08202776 2 49 C3.93746094 49.13535156 3.93746094 49.13535156 5.9140625 49.2734375 C11.15931163 49.86216902 15.56827592 51.51145732 20.375 53.625 C21.20717041 53.9861792 22.03934082 54.3473584 22.89672852 54.71948242 C45.86285092 64.91695098 61.06453951 82.5902384 72.03125 104.859375 C73.20275979 108.65733414 72.90486373 111.15780938 72 115 C70.3125 117 70.3125 117 68 118 C65 118.0625 65 118.0625 62 117 C58.98092598 112.97456798 56.82310872 108.72885411 54.6875 104.1875 C51.7542111 98.17007185 48.46579041 92.99228359 44 88 C43.03513672 86.89591797 43.03513672 86.89591797 42.05078125 85.76953125 C27.66907233 70.32447972 7.78734235 62.47973949 -13.07666016 61.66748047 C-32.0970431 61.29570484 -50.86731356 68.1182293 -65 81 C-65.81855469 81.72703125 -66.63710937 82.4540625 -67.48046875 83.203125 C-81.69772827 96.53852727 -90.7266853 115.64793044 -91.35351562 135.20727539 C-91.55508322 155.54498748 -85.45030932 175.48105855 -71.3203125 190.40625 C-70 192 -70 192 -70 194 C-69.40703125 194.26554688 -68.8140625 194.53109375 -68.203125 194.8046875 C-65.94277953 196.03104515 -64.5557971 197.31076459 -62.75 199.125 C-58.87101852 202.5971969 -54.74605305 204.93082387 -50.125 207.25 C-49.47756836 207.57887207 -48.83013672 207.90774414 -48.16308594 208.24658203 C-38.54111917 212.92386067 -28.8883476 214.62972151 -18.328125 215.72851562 C-11.62637198 216.54923755 -11.62637198 216.54923755 -8.39453125 218.875 C-6.32942467 222.02182907 -6.53294988 224.33032049 -7 228 C-8.0859375 229.6875 -8.0859375 229.6875 -10 231 C-31.13505839 233.89986586 -53.40370738 225.57994364 -70 213 C-73.49754244 210.15148606 -76.78449668 207.16244221 -80 204 C-81.14082031 202.87851562 -81.14082031 202.87851562 -82.3046875 201.734375 C-100.47857847 182.74297337 -106.74238151 158.81561336 -106.3125 133.09765625 C-105.4395045 109.79231398 -95.25247907 89.52517167 -79 73 C-78.25234375 72.23945313 -77.5046875 71.47890625 -76.734375 70.6953125 C-59.22310168 53.93783572 -36.94761848 46.61250542 -13 47 C-13.0314209 45.95996826 -13.0314209 45.95996826 -13.06347656 44.89892578 C-13.67506226 21.48448345 -13.67506226 21.48448345 -11.25 10.5625 C-11.09305664 9.83111816 -10.93611328 9.09973633 -10.77441406 8.34619141 C-10.00419556 5.27344831 -9.29951872 3.29245738 -7.01171875 1.05859375 C-4.34349067 -0.34546413 -2.97616543 -0.58071521 0 0 Z " fill="#0A0F40" transform="translate(124,132)"/>
<path d="M0 0 C1.29010986 -0.00233643 2.58021973 -0.00467285 3.90942383 -0.00708008 C5.3276397 -0.00305557 6.7458531 0.00193497 8.1640625 0.0078125 C9.24136124 0.01163437 9.24136124 0.01163437 10.34042358 0.01553345 C15.0037251 0.03472716 19.66674969 0.0711888 24.32989502 0.11322021 C26.81221794 0.13299698 29.29447584 0.14466931 31.77685547 0.15478516 C35.91704719 0.17414928 40.05615741 0.22159671 44.19586182 0.28741455 C45.78101659 0.30909154 47.36630423 0.32275551 48.95159912 0.32781982 C62.07159217 0.38253147 73.01140304 2.47320387 82.81640625 11.88671875 C91.93187997 22.26572348 93.64733605 32.67574989 92.97558594 45.98583984 C92.17099162 55.24709956 87.31212031 62.73325492 80.7890625 69.1328125 C77.61857182 71.55280056 74.38579831 73.41927327 70.7890625 75.1328125 C70.09296875 75.47183594 69.396875 75.81085938 68.6796875 76.16015625 C60.05332777 79.67880298 49.59995188 79.41583067 40.8515625 76.5078125 C30.12140325 71.96140428 21.97137083 63.98221872 17.515625 53.2109375 C15.53979562 47.55964056 15.15574227 42.09507005 15.7890625 36.1328125 C17.3515625 33.4453125 17.3515625 33.4453125 19.7890625 32.1328125 C23.2890625 31.5703125 23.2890625 31.5703125 26.7890625 32.1328125 C30.49151576 35.03473533 31.02235062 37.94067106 31.6640625 42.3828125 C32.77140484 49.34593129 35.29061687 54.51663687 41.01953125 58.80078125 C47.09771712 62.25056242 52.89253476 63.35100258 59.7890625 62.1328125 C66.34496991 59.92883223 70.95679754 56.88120994 74.7890625 51.1328125 C77.80895467 44.8467249 77.94903837 37.42541781 76.13671875 30.71875 C73.4837946 24.82083279 68.92780638 20.74046181 63.2265625 17.8203125 C58.2497591 16.41659872 53.43713131 16.00514989 48.28051758 15.97509766 C47.00932571 15.96483551 45.73813385 15.95457336 44.42842102 15.94400024 C43.75700891 15.94056232 43.08559681 15.9371244 42.39383888 15.93358231 C40.27953134 15.92171183 38.16542067 15.90224383 36.05119324 15.88046265 C30.04404202 15.81908438 24.03691958 15.7646796 18.02954102 15.73144531 C14.34606859 15.71052545 10.66297038 15.67526022 6.97971153 15.63068771 C5.57831908 15.61652323 4.17686061 15.60780424 2.77540016 15.60463333 C0.81999391 15.59973604 -1.13533232 15.57498857 -3.09057617 15.54931641 C-4.20277023 15.54122955 -5.31496429 15.5331427 -6.46086121 15.52481079 C-9.2109375 15.1328125 -9.2109375 15.1328125 -11.06855774 13.72787476 C-13.15943798 10.80845666 -12.7478703 7.56202335 -12.2109375 4.1328125 C-9.23883442 -0.25457776 -4.89478015 0.00488014 0 0 Z " fill="#080D3E" transform="translate(261.2109375,377.8671875)"/>
<path d="M0 0 C2.04388668 1.44135361 3.83905628 2.9584654 5.65234375 4.6796875 C6.26722656 5.25460937 6.88210938 5.82953125 7.515625 6.421875 C14.57239246 13.70530523 17.90452097 22.07350893 18.21484375 32.1796875 C17.77716928 43.44404617 14.57210841 52.54980664 6.65234375 60.6796875 C-1.76292323 68.35647186 -10.99320012 71.69319439 -22.27758789 71.94848633 C-22.95464279 71.9648111 -23.63169769 71.98113586 -24.32926941 71.99795532 C-26.55536994 72.04970567 -28.78151939 72.09409523 -31.0078125 72.13671875 C-31.7705139 72.15182684 -32.53321529 72.16693493 -33.31902885 72.18250084 C-37.35005089 72.26140623 -41.38113452 72.33404195 -45.41235352 72.40209961 C-49.57458807 72.47378678 -53.73595713 72.56879244 -57.89759159 72.66887379 C-61.10157568 72.74147064 -64.30568777 72.7961313 -67.51009941 72.84595299 C-69.04482005 72.8730345 -70.57943539 72.90699426 -72.11384773 72.94797707 C-74.25843933 73.00367678 -76.40197106 73.03383636 -78.54711914 73.05786133 C-79.76669815 73.08149246 -80.98627716 73.1051236 -82.24281311 73.12947083 C-85.34765625 72.6796875 -85.34765625 72.6796875 -87.74143982 70.87870789 C-90.07046706 67.69010996 -89.90645622 65.52143732 -89.34765625 61.6796875 C-86.53152589 58.43030631 -83.46792334 58.23624588 -79.34765625 57.6796875 C-77.24189507 57.58911475 -75.13382022 57.54464028 -73.02612305 57.5378418 C-71.1784156 57.52729012 -71.1784156 57.52729012 -69.29338074 57.51652527 C-67.97453384 57.51236099 -66.65568695 57.50819672 -65.296875 57.50390625 C-63.91452787 57.49346625 -62.53218786 57.48204107 -61.14985657 57.46968079 C-55.30444482 57.41752731 -49.45916486 57.36928088 -43.61352539 57.35375977 C-40.02720471 57.34361773 -36.44147338 57.31414406 -32.85538673 57.27243996 C-30.84325867 57.25432386 -28.83097885 57.25676413 -26.81877136 57.25968933 C-16.56553661 57.12346868 -8.63402991 55.13551171 -1.34765625 47.6796875 C3.46539925 41.38223171 3.58155658 34.33371893 2.65234375 26.6796875 C0.54626425 19.01555204 -4.94302285 14.64389908 -11.59765625 10.8046875 C-18.59932335 8.70418737 -24.89566613 8.6730043 -31.66015625 11.6171875 C-37.53545043 14.87292377 -40.41646835 19.8173117 -43.34765625 25.6796875 C-43.47458184 27.11535697 -43.57552201 28.55340538 -43.66015625 29.9921875 C-44.12539654 34.29739612 -44.86507216 36.83863206 -48.34765625 39.6796875 C-54.15422721 40.49464483 -54.15422721 40.49464483 -57.03515625 38.52734375 C-59.97206531 34.39294498 -58.83158269 28.49145612 -58.34765625 23.6796875 C-56.02904441 13.92219599 -50.19969759 6.28129584 -41.91015625 0.8046875 C-40.07430269 -0.26892564 -38.22123514 -1.31397974 -36.34765625 -2.3203125 C-35.34412109 -2.86365234 -35.34412109 -2.86365234 -34.3203125 -3.41796875 C-23.62315623 -8.28031251 -9.89406463 -5.56438244 0 0 Z " fill="#0C1242" transform="translate(290.34765625,261.3203125)"/>
<path d="M0 0 C2.54730804 -0.00389292 5.09461543 -0.00822881 7.641922 -0.01298523 C12.94953803 -0.0204058 18.25708461 -0.02032419 23.56469727 -0.01489258 C29.69357313 -0.00881745 35.82222147 -0.02127241 41.95105857 -0.04246265 C47.87510748 -0.06218682 53.79908559 -0.06525597 59.72316933 -0.06172752 C62.23463797 -0.0622412 64.74611024 -0.06748749 67.25755882 -0.07753944 C70.75416302 -0.08983392 74.250231 -0.0831572 77.74682617 -0.0715332 C78.78421432 -0.07917694 79.82160248 -0.08682068 80.89042664 -0.09469604 C81.84187561 -0.08768173 82.79332458 -0.08066742 83.77360535 -0.07344055 C85.01092549 -0.07369216 85.01092549 -0.07369216 86.273242 -0.07394886 C89.08768977 0.3955625 90.4513438 1.36093439 92.51953125 3.30078125 C93.51953125 6.17578125 93.51953125 6.17578125 93.51953125 9.30078125 C92.15818787 11.95785522 92.15818787 11.95785522 89.51953125 14.30078125 C86.12113983 15.05140508 82.76904545 14.95974274 79.30102539 14.91259766 C77.74140831 14.92109489 77.74140831 14.92109489 76.15028381 14.92976379 C72.70138836 14.94329902 69.25353785 14.92227632 65.8046875 14.90234375 C63.39447819 14.90784699 60.98427357 14.91597435 58.57408142 14.92660522 C52.20831711 14.94954576 45.84289514 14.94526248 39.47711182 14.93280029 C29.35006283 14.91455107 19.22322167 14.92483004 9.09622002 14.95866013 C5.5864495 14.96468202 2.07713292 14.95159546 -1.43260193 14.93667603 C-34.42982154 14.91795462 -64.64167609 21.61940327 -90.5859375 43.0390625 C-93.9167722 45.25732973 -96.55827358 44.67432365 -100.48046875 44.30078125 C-102.48046875 43.30078125 -102.48046875 43.30078125 -103.48046875 41.30078125 C-104.16610758 37.92972366 -104.41120363 36.48366471 -103.48046875 33.30078125 C-92.71520075 18.39970408 -68.1005931 9.14237936 -50.91796875 4.48828125 C-50.19939697 4.29314941 -49.4808252 4.09801758 -48.74047852 3.89697266 C-32.62880301 -0.15194125 -16.50391866 -0.01053735 0 0 Z " fill="#090E3F" transform="translate(242.48046875,348.69921875)"/>
<path d="M0 0 C11.68848656 6.1331931 19.51904666 16.47275323 23.64453125 28.94921875 C26.04558234 42.80143656 22.92520027 55.61538691 15 67 C12.38153735 70.64997824 9.66993683 73.39241331 6 76 C5.34 76 4.68 76 4 76 C4 76.66 4 77.32 4 78 C2.27398621 78.81917642 0.5440353 79.63006016 -1.1875 80.4375 C-2.15042969 80.88996094 -3.11335938 81.34242188 -4.10546875 81.80859375 C-9.55368466 84.05111177 -14.74569062 84.23760546 -20.5625 84.3125 C-21.69461914 84.35600586 -21.69461914 84.35600586 -22.84960938 84.40039062 C-26.43618712 84.44147037 -28.56890297 84.30602567 -31.53125 82.203125 C-33 80 -33 80 -32.9375 76.4375 C-31.70551708 71.92022928 -31.70551708 71.92022928 -29 70 C-26.06640625 69.6640625 -26.06640625 69.6640625 -22.5625 69.625 C-13.17874748 69.14901255 -5.03187907 66.36937146 2 60 C3.80451791 57.63192845 3.80451791 57.63192845 5.25 55.0625 C6.00023437 53.81146484 6.00023437 53.81146484 6.765625 52.53515625 C10.11042339 45.66561779 10.31603803 36.98210769 7.94140625 29.796875 C4.17327837 21.66833897 -0.66945629 15.4823674 -9.125 12.0625 C-17.02014527 9.89440311 -25.81303622 9.57015404 -33.375 12.9375 C-40.38973133 17.02846358 -46.06037399 23.15875694 -48.56640625 30.95703125 C-49.04438713 33.20913935 -49.21941038 35.39160432 -49.375 37.6875 C-49.68504073 41.19521566 -50.04298204 42.06140291 -52.1875 45.125 C-55 47 -55 47 -58.125 47.0625 C-61.44346113 45.83611219 -62.2035343 44.98026391 -64 42 C-65.87723758 32.62945572 -62.30657192 23.2969356 -57.390625 15.421875 C-43.86785425 -2.8152562 -20.99627825 -10.10465565 0 0 Z " fill="#0B1141" transform="translate(387,279)"/>
<path d="M0 0 C1.04305298 -0.02670776 1.04305298 -0.02670776 2.10717773 -0.05395508 C4.96977232 -0.04938168 7.01193171 -0.00601846 9.4453125 1.58203125 C10.70598418 3.65046664 10.90242431 4.89916085 10.875 7.3125 C10.88660156 8.3334375 10.88660156 8.3334375 10.8984375 9.375 C10.37222743 11.93382543 9.52871383 12.68163812 7.5 14.3125 C5.14672852 14.95678711 5.14672852 14.95678711 2.37890625 15.33984375 C1.36683105 15.48977783 0.35475586 15.63971191 -0.68798828 15.79418945 C-2.29649658 16.01981567 -2.29649658 16.01981567 -3.9375 16.25 C-27.61947355 19.91419449 -45.39915571 29.40604312 -62.7734375 45.796875 C-69.83540373 52.3125 -69.83540373 52.3125 -74.125 52.3125 C-77.5 51.3125 -77.5 51.3125 -79.5 49.6875 C-81.01357105 46.09276875 -80.4968778 44.08529907 -79.5 40.3125 C-77.38924842 37.36418423 -74.87404032 34.92949804 -72.25 32.4375 C-71.52490234 31.73496094 -70.79980469 31.03242188 -70.05273438 30.30859375 C-51.28594029 12.4809632 -26.10509998 0.43493905 0 0 Z " fill="#080D3E" transform="translate(223.5,378.6875)"/>
<path d="M0 0 C2.46943529 3.70415293 2.46913089 5.62144505 2 10 C-1.271648 13.23834879 -5.59563409 14.55951441 -9.8125 16.1875 C-16.58802407 18.87347198 -22.9952156 21.94880147 -29.3527832 25.51049805 C-33.81933328 28 -33.81933328 28 -36 28 C-36 28.66 -36 29.32 -36 30 C-38.03336005 31.53035494 -40.07616656 32.95945003 -42.1875 34.375 C-47.37877686 37.96651197 -52.19766377 41.75375688 -56.8125 46.0625 C-57.35052246 46.56346191 -57.88854492 47.06442383 -58.44287109 47.58056641 C-60.9017893 49.90493575 -63.24313912 52.26527678 -65.53125 54.76171875 C-71.75353944 61.54870226 -71.75353944 61.54870226 -76.375 61.75 C-80 61 -80 61 -82 60 C-83.69546808 56.60906384 -83.86387003 53.61254739 -83 50 C-81.15534143 46.84536651 -78.63248139 44.51091776 -76 42 C-75.48501953 41.49742676 -74.97003906 40.99485352 -74.43945312 40.47705078 C-68.36831216 34.5641211 -62.35209334 28.76617951 -55.10546875 24.3046875 C-52.83098808 22.89526905 -50.71639496 21.3370805 -48.5625 19.75 C-36.30135355 11.16338967 -15.41565532 -3.36341571 0 0 Z " fill="#0B1040" transform="translate(184,327)"/>
<path d="M0 0 C7.37854353 5.57823346 12.58569603 14.13652788 15 23 C15.3359375 26.54296875 15.3359375 26.54296875 15.375 30.1875 C15.40335937 31.39792969 15.43171875 32.60835938 15.4609375 33.85546875 C15 37 15 37 13.19921875 38.92578125 C9.79287531 40.58962574 7.57246669 40.03926304 4 39 C1.31916816 35.45702271 0.61661324 32.55301207 0.1875 28.1875 C-0.97157635 20.4539906 -4.35801419 15.82341487 -10.5 11.125 C-16.90117995 6.99206425 -23.47651206 5.82902911 -31 7 C-34.21498732 8.36369376 -37.16834129 9.9150388 -40.17578125 11.6875 C-43.3995146 13.18566654 -45.48455251 13.35841853 -49 13 C-51.4375 11.4375 -51.4375 11.4375 -53 9 C-53.375 5.6875 -53.375 5.6875 -52 2 C-37.00342211 -12.57751185 -16.57207185 -9.89752705 0 0 Z " fill="#0D1243" transform="translate(439,250)"/>
<path d="M0 0 C2.48836965 3.73255448 2.54226552 5.58440935 2 10 C-0.22265625 11.9921875 -0.22265625 11.9921875 -3 14 C-16.66723945 24.26141612 -25.82833714 36.87302057 -29 54 C-29.17035983 55.97720651 -29.31665243 57.95665071 -29.4375 59.9375 C-29.68955112 63.33049585 -29.84656989 64.75564835 -31.6875 67.6875 C-34.78469427 69.44536702 -36.49549702 69.65709431 -40 69 C-42.76453481 66.89022343 -43.79870322 65.18518613 -44.3828125 61.74609375 C-45.13568055 44.90694512 -36.90344642 26.79425268 -26.06640625 14.17578125 C-9.66569367 -3.09302197 -9.66569367 -3.09302197 0 0 Z " fill="#0D1343" transform="translate(194,105)"/>
<path d="M0 0 C1.83203125 1.80859375 1.83203125 1.80859375 3 4 C2.875 7.625 2.875 7.625 2 11 C-1.28620152 13.19080101 -4.21880738 13.94966872 -8 15 C-9.39287806 16.17036305 -9.39287806 16.17036305 -9.1875 19.4375 C-9.39564928 23.05032721 -9.39564928 23.05032721 -7 25 C-5.865625 25.309375 -4.73125 25.61875 -3.5625 25.9375 C1.43917368 27.42922724 1.43917368 27.42922724 3 30 C3.5 32.9375 3.5 32.9375 3 36 C0.22216589 39.29867801 -1.54138108 39.93233491 -5.8125 40.5625 C-11.43531608 40.25483648 -15.66005897 37.3167733 -19.578125 33.4375 C-24.30061437 28.0093513 -24.41321087 23.2476569 -24.3359375 16.30078125 C-23.74895577 10.53334446 -21.45048701 7.26198801 -17.2734375 3.40625 C-12.14583008 -0.39197772 -6.24003974 -1.46172175 0 0 Z " fill="#0C1242" transform="translate(371,299)"/>
<path d="M0 0 C2.5 1.5625 2.5 1.5625 4 4 C4.56040426 7.92282979 4.68217904 10.02920675 2.375 13.3125 C-0.32322956 15.22966311 -2.81887663 16.1324209 -6 17 C-6 18.32 -6 19.64 -6 21 C-4.72125 21.268125 -3.4425 21.53625 -2.125 21.8125 C1.49675855 22.57190099 1.80051868 22.70077803 4 26 C4.34506219 29.24358463 4.30533635 31.33544441 2.9375 34.3125 C0.00414249 36.86735977 -2.14195714 36.9367534 -6 37 C-12.86775878 35.52740656 -16.95307243 32.10568321 -20.8125 26.25 C-22.92861452 20.45852867 -22.89662913 15.3284648 -20.3125 9.6875 C-15.78345767 1.66599193 -8.79257035 -0.83738765 0 0 Z " fill="#080D3E" transform="translate(319,399)"/>
<path d="M0 0 C2.625 1.5625 2.625 1.5625 4 4 C3.9375 7.625 3.9375 7.625 3 11 C0.01353231 12.99097846 -2.59687262 13.94124926 -6 15 C-6.05167527 17.42267086 -6.05167527 17.42267086 -5 20 C-1.59336492 21.74570339 -1.59336492 21.74570339 2 23 C4 25 4 25 4.375 27.875 C4 31 4 31 2.5 33.375 C-0.98669199 35.64134979 -4.02153978 35.73620105 -8 35 C-13.59376968 32.88679812 -17.10605728 29.24089837 -20.08203125 24.1484375 C-21.76322592 20.21372656 -21.53122141 16.1900089 -21 12 C-16.68893393 3.21205764 -9.6654685 -1.19961489 0 0 Z " fill="#0D1243" transform="translate(273,277)"/>
<path d="M0 0 C3.5390625 0.67578125 3.5390625 0.67578125 6.0390625 2.30078125 C8.09590401 5.55744697 8.34374734 6.87181656 7.5390625 10.67578125 C5.56823107 13.68715655 3.06903747 16.12943103 0.5390625 18.67578125 C-0.5573982 19.79807301 -1.65374374 20.92047729 -2.75 22.04296875 C-13.06776624 32.52434959 -13.06776624 32.52434959 -17.3359375 32.98828125 C-20.4609375 32.67578125 -20.4609375 32.67578125 -22.7734375 30.92578125 C-24.48367799 28.64546059 -25.28969531 27.50127733 -25.4609375 24.67578125 C-23.47190115 18.37102309 -18.87908457 14.46476178 -14.3359375 9.86328125 C-13.50578125 8.97962891 -12.675625 8.09597656 -11.8203125 7.18554688 C-4.84438288 0.10574369 -4.84438288 0.10574369 0 0 Z " fill="#080D3E" transform="translate(125.4609375,398.32421875)"/>
<path d="M0 0 C0.91265625 -0.01998047 1.8253125 -0.03996094 2.765625 -0.06054688 C9.0033292 -0.05610407 14.64416101 0.80381843 19.875 4.4375 C21.25 7.875 21.25 7.875 20.875 11.4375 C19.13671875 14.1875 19.13671875 14.1875 15.875 16.4375 C11.63014453 16.87238583 7.54461488 16.44561255 3.3125 16 C2.17619141 15.91556641 1.03988281 15.83113281 -0.13085938 15.74414062 C-8.43235319 14.98500697 -8.43235319 14.98500697 -11.45288086 12.59741211 C-13.87194885 9.47265018 -13.61374159 7.27761249 -13.125 3.4375 C-9.81681406 -1.0590571 -5.10407841 -0.03866726 0 0 Z " fill="#0E1444" transform="translate(225.125,95.5625)"/>
</svg>
